<svg version="1.1" viewBox="0.0 0.0 600.0 371.0" fill="none" stroke="none" stroke-linecap="square" stroke-miterlimit="10" width="600" height="371" xmlns:xlink="http://www.w3.org/1999/xlink" xmlns="http://www.w3.org/2000/svg"><path fill="#ffffff" d="M0 0L600.0 0L600.0 371.0L0 371.0L0 0Z" fill-rule="nonzero"/><path fill="#ffffff" d="M0 0L600.0 0L600.0 371.0L0 371.0L0 0Z" fill-rule="nonzero"/><path stroke="#333333" stroke-width="1.0" stroke-linecap="butt" d="M52.5 267.5L554.5 267.5" fill-rule="nonzero"/><path stroke="#cccccc" stroke-width="1.0" stroke-linecap="butt" d="M52.5 231.5L554.5 231.5" fill-rule="nonzero"/><path stroke="#cccccc" stroke-width="1.0" stroke-linecap="butt" d="M52.5 196.5L554.5 196.5" fill-rule="nonzero"/><path stroke="#cccccc" stroke-width="1.0" stroke-linecap="butt" d="M52.5 160.5L554.5 160.5" fill-rule="nonzero"/><path stroke="#cccccc" stroke-width="1.0" stroke-linecap="butt" d="M52.5 125.5L554.5 125.5" fill-rule="nonzero"/><path stroke="#cccccc" stroke-width="1.0" stroke-linecap="butt" d="M52.5 89.5L554.5 89.5" fill-rule="nonzero"/><clipPath id="id_0"><path d="M52.55 89.78333L554.45 89.78333L554.45 267.1345L52.55 267.1345L52.55 89.78333Z" clip-rule="nonzero"/></clipPath><path stroke="#000000" stroke-width="0.0" stroke-linecap="butt" stroke-opacity="0.0" clip-path="url(#id_0)" d="M79.0 267.0L67.0 267.0L67.0 151.0C67.0 149.89543 67.89543 149.0 69.0 149.0L77.0 149.0C78.10457 149.0 79.0 149.89543 79.0 151.0Z" fill-rule="nonzero"/><path fill="#4285f4" clip-path="url(#id_0)" d="M79.0 267.0L67.0 267.0L67.0 151.0C67.0 149.89543 67.89543 149.0 69.0 149.0L77.0 149.0C78.10457 149.0 79.0 149.89543 79.0 151.0Z" fill-rule="nonzero"/><path stroke="#000000" stroke-width="0.0" stroke-linecap="butt" stroke-opacity="0.0" clip-path="url(#id_0)" d="M120.0 267.0L108.0 267.0L108.0 121.0C108.0 119.89543 108.89543 119.0 110.0 119.0L118.0 119.0C119.10457 119.0 120.0 119.89543 120.0 121.0Z" fill-rule="nonzero"/><path fill="#4285f4" clip-path="url(#id_0)" d="M120.0 267.0L108.0 267.0L108.0 121.0C108.0 119.89543 108.89543 119.0 110.0 119.0L118.0 119.0C119.10457 119.0 120.0 119.89543 120.0 121.0Z" fill-rule="nonzero"/><path stroke="#000000" stroke-width="0.0" stroke-linecap="butt" stroke-opacity="0.0" clip-path="url(#id_0)" d="M160.0 267.0L148.0 267.0L148.0 151.0C148.0 149.89543 148.89543 149.0 150.0 149.0L158.0 149.0C159.10457 149.0 160.0 149.89543 160.0 151.0Z" fill-rule="nonzero"/><path fill="#4285f4" clip-path="url(#id_0)" d="M160.0 267.0L148.0 267.0L148.0 151.0C148.0 149.89543 148.89543 149.0 150.0 149.0L158.0 149.0C159.10457 149.0 160.0 149.89543 160.0 151.0Z" fill-rule="nonzero"/><path stroke="#000000" stroke-width="0.0" stroke-linecap="butt" stroke-opacity="0.0" clip-path="url(#id_0)" d="M201.0 267.0L189.0 267.0L189.0 240.0C189.0 238.89543 189.89543 238.0 191.0 238.0L199.0 238.0C200.10457 238.0 201.0 238.89543 201.0 240.0Z" fill-rule="nonzero"/><path fill="#4285f4" clip-path="url(#id_0)" d="M201.0 267.0L189.0 267.0L189.0 240.0C189.0 238.89543 189.89543 238.0 191.0 238.0L199.0 238.0C200.10457 238.0 201.0 238.89543 201.0 240.0Z" fill-rule="nonzero"/><path stroke="#000000" stroke-width="0.0" stroke-linecap="butt" stroke-opacity="0.0" clip-path="url(#id_0)" d="M242.0 267.0L230.0 267.0L230.0 92.0C230.0 90.89543 230.89543 90.0 232.0 90.0L240.0 90.0C241.10457 90.0 242.0 90.89543 242.0 92.0Z" fill-rule="nonzero"/><path fill="#4285f4" clip-path="url(#id_0)" d="M242.0 267.0L230.0 267.0L230.0 92.0C230.0 90.89543 230.89543 90.0 232.0 90.0L240.0 90.0C241.10457 90.0 242.0 90.89543 242.0 92.0Z" fill-rule="nonzero"/><path stroke="#000000" stroke-width="0.0" stroke-linecap="butt" stroke-opacity="0.0" clip-path="url(#id_0)" d="M282.0 267.0L270.0 267.0L270.0 180.0C270.0 178.89543 270.89542 178.0 272.0 178.0L280.0 178.0C281.10458 178.0 282.0 178.89543 282.0 180.0Z" fill-rule="nonzero"/><path fill="#4285f4" clip-path="url(#id_0)" d="M282.0 267.0L270.0 267.0L270.0 180.0C270.0 178.89543 270.89542 178.0 272.0 178.0L280.0 178.0C281.10458 178.0 282.0 178.89543 282.0 180.0Z" fill-rule="nonzero"/><path stroke="#000000" stroke-width="0.0" stroke-linecap="butt" stroke-opacity="0.0" clip-path="url(#id_0)" d="M323.0 267.0L311.0 267.0L311.0 121.0C311.0 119.89543 311.89542 119.0 313.0 119.0L321.0 119.0C322.10458 119.0 323.0 119.89543 323.0 121.0Z" fill-rule="nonzero"/><path fill="#4285f4" clip-path="url(#id_0)" d="M323.0 267.0L311.0 267.0L311.0 121.0C311.0 119.89543 311.89542 119.0 313.0 119.0L321.0 119.0C322.10458 119.0 323.0 119.89543 323.0 121.0Z" fill-rule="nonzero"/><path stroke="#000000" stroke-width="0.0" stroke-linecap="butt" stroke-opacity="0.0" clip-path="url(#id_0)" d="M363.0 267.0L351.0 267.0L351.0 180.0C351.0 178.89543 351.89542 178.0 353.0 178.0L361.0 178.0C362.10458 178.0 363.0 178.89543 363.0 180.0Z" fill-rule="nonzero"/><path fill="#4285f4" clip-path="url(#id_0)" d="M363.0 267.0L351.0 267.0L351.0 180.0C351.0 178.89543 351.89542 178.0 353.0 178.0L361.0 178.0C362.10458 178.0 363.0 178.89543 363.0 180.0Z" fill-rule="nonzero"/><path stroke="#000000" stroke-width="0.0" stroke-linecap="butt" stroke-opacity="0.0" clip-path="url(#id_0)" d="M404.0 267.0L392.0 267.0L392.0 92.0C392.0 90.89543 392.89542 90.0 394.0 90.0L402.0 90.0C403.10458 90.0 404.0 90.89543 404.0 92.0Z" fill-rule="nonzero"/><path fill="#4285f4" clip-path="url(#id_0)" d="M404.0 267.0L392.0 267.0L392.0 92.0C392.0 90.89543 392.89542 90.0 394.0 90.0L402.0 90.0C403.10458 90.0 404.0 90.89543 404.0 92.0Z" fill-rule="nonzero"/><path stroke="#000000" stroke-width="0.0" stroke-linecap="butt" stroke-opacity="0.0" clip-path="url(#id_0)" d="M445.0 267.0L433.0 267.0L433.0 240.0C433.0 238.89543 433.89542 238.0 435.0 238.0L443.0 238.0C444.10458 238.0 445.0 238.89543 445.0 240.0Z" fill-rule="nonzero"/><path fill="#4285f4" clip-path="url(#id_0)" d="M445.0 267.0L433.0 267.0L433.0 240.0C433.0 238.89543 433.89542 238.0 435.0 238.0L443.0 238.0C444.10458 238.0 445.0 238.89543 445.0 240.0Z" fill-rule="nonzero"/><path stroke="#000000" stroke-width="0.0" stroke-linecap="butt" stroke-opacity="0.0" clip-path="url(#id_0)" d="M485.0 267.0L473.0 267.0L473.0 180.0C473.0 178.89543 473.89542 178.0 475.0 178.0L483.0 178.0C484.10458 178.0 485.0 178.89543 485.0 180.0Z" fill-rule="nonzero"/><path fill="#4285f4" clip-path="url(#id_0)" d="M485.0 267.0L473.0 267.0L473.0 180.0C473.0 178.89543 473.89542 178.0 475.0 178.0L483.0 178.0C484.10458 178.0 485.0 178.89543 485.0 180.0Z" fill-rule="nonzero"/><path stroke="#000000" stroke-width="0.0" stroke-linecap="butt" stroke-opacity="0.0" clip-path="url(#id_0)" d="M526.0 267.0L514.0 267.0L514.0 240.0C514.0 238.89543 514.89545 238.0 516.0 238.0L524.0 238.0C525.10455 238.0 526.0 238.89543 526.0 240.0Z" fill-rule="nonzero"/><path fill="#4285f4" clip-path="url(#id_0)" d="M526.0 267.0L514.0 267.0L514.0 240.0C514.0 238.89543 514.89545 238.0 516.0 238.0L524.0 238.0C525.10455 238.0 526.0 238.89543 526.0 240.0Z" fill-rule="nonzero"/><path stroke="#000000" stroke-width="0.0" stroke-linecap="butt" stroke-opacity="0.0" clip-path="url(#id_0)" d="M92.0 267.0L80.0 267.0L80.0 160.0C80.0 158.89543 80.89543 158.0 82.0 158.0L90.0 158.0C91.10457 158.0 92.0 158.89543 92.0 160.0Z" fill-rule="nonzero"/><path fill="#db4437" clip-path="url(#id_0)" d="M92.0 267.0L80.0 267.0L80.0 160.0C80.0 158.89543 80.89543 158.0 82.0 158.0L90.0 158.0C91.10457 158.0 92.0 158.89543 92.0 160.0Z" fill-rule="nonzero"/><path stroke="#000000" stroke-width="0.0" stroke-linecap="butt" stroke-opacity="0.0" clip-path="url(#id_0)" d="M133.0 267.0L121.0 267.0L121.0 99.0C121.0 97.89543 121.89543 97.0 123.0 97.0L131.0 97.0C132.10457 97.0 133.0 97.89543 133.0 99.0Z" fill-rule="nonzero"/><path fill="#db4437" clip-path="url(#id_0)" d="M133.0 267.0L121.0 267.0L121.0 99.0C121.0 97.89543 121.89543 97.0 123.0 97.0L131.0 97.0C132.10457 97.0 133.0 97.89543 133.0 99.0Z" fill-rule="nonzero"/><path stroke="#000000" stroke-width="0.0" stroke-linecap="butt" stroke-opacity="0.0" clip-path="url(#id_0)" d="M173.0 267.0L161.0 267.0L161.0 155.0C161.0 153.89543 161.89543 153.0 163.0 153.0L171.0 153.0C172.10457 153.0 173.0 153.89543 173.0 155.0Z" fill-rule="nonzero"/><path fill="#db4437" clip-path="url(#id_0)" d="M173.0 267.0L161.0 267.0L161.0 155.0C161.0 153.89543 161.89543 153.0 163.0 153.0L171.0 153.0C172.10457 153.0 173.0 153.89543 173.0 155.0Z" fill-rule="nonzero"/><path stroke="#000000" stroke-width="0.0" stroke-linecap="butt" stroke-opacity="0.0" clip-path="url(#id_0)" d="M214.0 267.0L202.0 267.0L202.0 243.0C202.0 241.89543 202.89543 241.0 204.0 241.0L212.0 241.0C213.10457 241.0 214.0 241.89543 214.0 243.0Z" fill-rule="nonzero"/><path fill="#db4437" clip-path="url(#id_0)" d="M214.0 267.0L202.0 267.0L202.0 243.0C202.0 241.89543 202.89543 241.0 204.0 241.0L212.0 241.0C213.10457 241.0 214.0 241.89543 214.0 243.0Z" fill-rule="nonzero"/><path stroke="#000000" stroke-width="0.0" stroke-linecap="butt" stroke-opacity="0.0" clip-path="url(#id_0)" d="M255.0 267.0L243.0 267.0L243.0 123.0C243.0 121.89543 243.89543 121.0 245.0 121.0L253.0 121.0C254.10457 121.0 255.0 121.89543 255.0 123.0Z" fill-rule="nonzero"/><path fill="#db4437" clip-path="url(#id_0)" d="M255.0 267.0L243.0 267.0L243.0 123.0C243.0 121.89543 243.89543 121.0 245.0 121.0L253.0 121.0C254.10457 121.0 255.0 121.89543 255.0 123.0Z" fill-rule="nonzero"/><path stroke="#000000" stroke-width="0.0" stroke-linecap="butt" stroke-opacity="0.0" clip-path="url(#id_0)" d="M295.0 267.0L283.0 267.0L283.0 181.0C283.0 179.89543 283.89542 179.0 285.0 179.0L293.0 179.0C294.10458 179.0 295.0 179.89543 295.0 181.0Z" fill-rule="nonzero"/><path fill="#db4437" clip-path="url(#id_0)" d="M295.0 267.0L283.0 267.0L283.0 181.0C283.0 179.89543 283.89542 179.0 285.0 179.0L293.0 179.0C294.10458 179.0 295.0 179.89543 295.0 181.0Z" fill-rule="nonzero"/><path stroke="#000000" stroke-width="0.0" stroke-linecap="butt" stroke-opacity="0.0" clip-path="url(#id_0)" d="M336.0 267.0L324.0 267.0L324.0 139.0C324.0 137.89543 324.89542 137.0 326.0 137.0L334.0 137.0C335.10458 137.0 336.0 137.89543 336.0 139.0Z" fill-rule="nonzero"/><path fill="#db4437" clip-path="url(#id_0)" d="M336.0 267.0L324.0 267.0L324.0 139.0C324.0 137.89543 324.89542 137.0 326.0 137.0L334.0 137.0C335.10458 137.0 336.0 137.89543 336.0 139.0Z" fill-rule="nonzero"/><path stroke="#000000" stroke-width="0.0" stroke-linecap="butt" stroke-opacity="0.0" clip-path="url(#id_0)" d="M376.0 267.0L364.0 267.0L364.0 194.0C364.0 192.89543 364.89542 192.0 366.0 192.0L374.0 192.0C375.10458 192.0 376.0 192.89543 376.0 194.0Z" fill-rule="nonzero"/><path fill="#db4437" clip-path="url(#id_0)" d="M376.0 267.0L364.0 267.0L364.0 194.0C364.0 192.89543 364.89542 192.0 366.0 192.0L374.0 192.0C375.10458 192.0 376.0 192.89543 376.0 194.0Z" fill-rule="nonzero"/><path stroke="#000000" stroke-width="0.0" stroke-linecap="butt" stroke-opacity="0.0" clip-path="url(#id_0)" d="M417.0 267.0L405.0 267.0L405.0 160.0C405.0 158.89543 405.89542 158.0 407.0 158.0L415.0 158.0C416.10458 158.0 417.0 158.89543 417.0 160.0Z" fill-rule="nonzero"/><path fill="#db4437" clip-path="url(#id_0)" d="M417.0 267.0L405.0 267.0L405.0 160.0C405.0 158.89543 405.89542 158.0 407.0 158.0L415.0 158.0C416.10458 158.0 417.0 158.89543 417.0 160.0Z" fill-rule="nonzero"/><path stroke="#000000" stroke-width="0.0" stroke-linecap="butt" stroke-opacity="0.0" clip-path="url(#id_0)" d="M458.0 267.0L446.0 267.0L446.0 237.0C446.0 235.89543 446.89542 235.0 448.0 235.0L456.0 235.0C457.10458 235.0 458.0 235.89543 458.0 237.0Z" fill-rule="nonzero"/><path fill="#db4437" clip-path="url(#id_0)" d="M458.0 267.0L446.0 267.0L446.0 237.0C446.0 235.89543 446.89542 235.0 448.0 235.0L456.0 235.0C457.10458 235.0 458.0 235.89543 458.0 237.0Z" fill-rule="nonzero"/><path stroke="#000000" stroke-width="0.0" stroke-linecap="butt" stroke-opacity="0.0" clip-path="url(#id_0)" d="M498.0 267.0L486.0 267.0L486.0 156.0C486.0 154.89543 486.89542 154.0 488.0 154.0L496.0 154.0C497.10458 154.0 498.0 154.89543 498.0 156.0Z" fill-rule="nonzero"/><path fill="#db4437" clip-path="url(#id_0)" d="M498.0 267.0L486.0 267.0L486.0 156.0C486.0 154.89543 486.89542 154.0 488.0 154.0L496.0 154.0C497.10458 154.0 498.0 154.89543 498.0 156.0Z" fill-rule="nonzero"/><path stroke="#000000" stroke-width="0.0" stroke-linecap="butt" stroke-opacity="0.0" clip-path="url(#id_0)" d="M539.0 267.0L527.0 267.0L527.0 256.0C527.0 254.89543 527.89545 254.0 529.0 254.0L537.0 254.0C538.10455 254.0 539.0 254.89543 539.0 256.0Z" fill-rule="nonzero"/><path fill="#db4437" clip-path="url(#id_0)" d="M539.0 267.0L527.0 267.0L527.0 256.0C527.0 254.89543 527.89545 254.0 529.0 254.0L537.0 254.0C538.10455 254.0 539.0 254.89543 539.0 256.0Z" fill-rule="nonzero"/><path fill="#424242" d="M288.4375 340.91876L291.23438 347.8719L294.01562 340.91876L295.48438 340.91876L295.48438 349.45L294.35938 349.45L294.35938 346.1219L294.46875 342.54376L291.65625 349.45L290.79688 349.45L288.0 342.5594L288.10938 346.1219L288.10938 349.45L286.98438 349.45L286.98438 340.91876L288.4375 340.91876ZM296.53125 346.21564Q296.53125 345.29376 296.89062 344.54376Q297.26562 343.79376 297.92188 343.40314Q298.57812 342.9969 299.40625 342.9969Q300.70312 342.9969 301.5 343.8875Q302.3125 344.77814 302.3125 346.27814L302.3125 346.35626Q302.3125 347.27814 301.95312 348.0125Q301.59375 348.7469 300.9375 349.16876Q300.28125 349.575 299.42188 349.575Q298.14062 349.575 297.32812 348.6844Q296.53125 347.77814 296.53125 346.29376L296.53125 346.21564ZM297.625 346.35626Q297.625 347.40314 298.10938 348.04376Q298.60938 348.6844 299.42188 348.6844Q300.25 348.6844 300.73438 348.04376Q301.21875 347.3875 301.21875 346.21564Q301.21875 345.1844 300.71875 344.54376Q300.23438 343.8875 299.40625 343.8875Q298.60938 343.8875 298.10938 344.52814Q297.625 345.15314 297.625 346.35626ZM304.84375 343.10626L304.875 343.90314Q305.60938 342.9969 306.78125 342.9969Q308.79688 342.9969 308.8125 345.2625L308.8125 349.45L307.71875 349.45L307.71875 345.2469Q307.71875 344.575 307.40625 344.2469Q307.10938 343.91876 306.45312 343.91876Q305.92188 343.91876 305.51562 344.2Q305.125 344.48126 304.90625 344.9344L304.90625 349.45L303.82812 349.45L303.82812 343.10626L304.84375 343.10626ZM312.29688 341.575L312.29688 343.10626L313.46875 343.10626L313.46875 343.95L312.29688 343.95L312.29688 347.8719Q312.29688 348.2625 312.45312 348.45Q312.60938 348.6375 312.98438 348.6375Q313.17188 348.6375 313.5 348.575L313.5 349.45Q313.07812 349.575 312.67188 349.575Q311.95312 349.575 311.57812 349.1375Q311.20312 348.6844 311.20312 347.8719L311.20312 343.95L310.04688 343.95L310.04688 343.10626L311.20312 343.10626L311.20312 341.575L312.29688 341.575ZM315.90625 343.8719Q316.625 342.9969 317.78125 342.9969Q319.79688 342.9969 319.8125 345.2625L319.8125 349.45L318.71875 349.45L318.71875 345.2469Q318.71875 344.575 318.40625 344.2469Q318.10938 343.91876 317.45312 343.91876Q316.92188 343.91876 316.51562 344.2Q316.125 344.48126 315.90625 344.9344L315.90625 349.45L314.82812 349.45L314.82812 340.45L315.90625 340.45L315.90625 343.8719Z" fill-rule="nonzero"/><path fill="#757575" d="M45.6125 267.99387Q45.6125 269.90012 44.95625 270.83762Q44.315624 271.7595 42.925 271.7595Q41.565624 271.7595 40.909374 270.85324Q40.253124 269.947 40.221874 268.1345L40.221874 266.697Q40.221874 264.80637 40.8625 263.90012Q41.51875 262.97824 42.909374 262.97824Q44.284374 262.97824 44.940624 263.86887Q45.596874 264.74387 45.6125 266.58762L45.6125 267.99387ZM44.51875 266.5095Q44.51875 265.1345 44.128124 264.5095Q43.753124 263.86887 42.909374 263.86887Q42.08125 263.86887 41.690624 264.5095Q41.315624 265.1345 41.315624 266.43137L41.315624 268.16574Q41.315624 269.54074 41.70625 270.21262Q42.1125 270.86887 42.925 270.86887Q43.721874 270.86887 44.1125 270.24387Q44.503124 269.61887 44.51875 268.29074L44.51875 266.5095Z" fill-rule="nonzero"/><path fill="#757575" d="M26.753124 231.88303L27.190624 227.63303L31.565624 227.63303L31.565624 228.63303L28.1125 228.63303L27.846874 230.96115Q28.4875 230.58615 29.284374 230.58615Q30.440624 230.58615 31.128124 231.3674Q31.815624 232.13303 31.815624 233.44553Q31.815624 234.75803 31.096874 235.52365Q30.39375 236.28928 29.1125 236.28928Q27.9875 236.28928 27.26875 235.66428Q26.55 235.02365 26.45625 233.91428L27.471874 233.91428Q27.58125 234.64865 28.003124 235.02365Q28.425 235.39865 29.1125 235.39865Q29.8625 235.39865 30.3 234.88303Q30.7375 234.3674 30.7375 233.46115Q30.7375 232.60178 30.26875 232.08615Q29.8 231.57053 29.01875 231.57053Q28.315624 231.57053 27.909374 231.8674L27.628124 232.10178L26.753124 231.88303ZM38.6125 232.52365Q38.6125 234.4299 37.95625 235.3674Q37.315624 236.28928 35.925 236.28928Q34.565624 236.28928 33.909374 235.38303Q33.253124 234.47678 33.221874 232.66428L33.221874 231.22678Q33.221874 229.33615 33.8625 228.4299Q34.51875 227.50803 35.909374 227.50803Q37.284374 227.50803 37.940624 228.39865Q38.596874 229.27365 38.6125 231.1174L38.6125 232.52365ZM37.51875 231.03928Q37.51875 229.66428 37.128124 229.03928Q36.753124 228.39865 35.909374 228.39865Q35.08125 228.39865 34.690624 229.03928Q34.315624 229.66428 34.315624 230.96115L34.315624 232.69553Q34.315624 234.07053 34.70625 234.7424Q35.1125 235.39865 35.925 235.39865Q36.721874 235.39865 37.1125 234.77365Q37.503124 234.14865 37.51875 232.82053L37.51875 231.03928ZM45.6125 232.52365Q45.6125 234.4299 44.95625 235.3674Q44.315624 236.28928 42.925 236.28928Q41.565624 236.28928 40.909374 235.38303Q40.253124 234.47678 40.221874 232.66428L40.221874 231.22678Q40.221874 229.33615 40.8625 228.4299Q41.51875 227.50803 42.909374 227.50803Q44.284374 227.50803 44.940624 228.39865Q45.596874 229.27365 45.6125 231.1174L45.6125 232.52365ZM44.51875 231.03928Q44.51875 229.66428 44.128124 229.03928Q43.753124 228.39865 42.909374 228.39865Q42.08125 228.39865 41.690624 229.03928Q41.315624 229.66428 41.315624 230.96115L41.315624 232.69553Q41.315624 234.07053 41.70625 234.7424Q42.1125 235.39865 42.925 235.39865Q43.721874 235.39865 44.1125 234.77365Q44.503124 234.14865 44.51875 232.82053L44.51875 231.03928Z" fill-rule="nonzero"/><path fill="#757575" d="M22.815624 200.69403L21.7375 200.69403L21.7375 193.47528L19.55 194.27216L19.55 193.28778L22.659374 192.1159L22.815624 192.1159L22.815624 200.69403ZM31.6125 197.0534Q31.6125 198.95966 30.95625 199.89716Q30.315624 200.81903 28.925 200.81903Q27.565624 200.81903 26.909374 199.91278Q26.253124 199.00653 26.221874 197.19403L26.221874 195.75653Q26.221874 193.8659 26.8625 192.95966Q27.51875 192.03778 28.909374 192.03778Q30.284374 192.03778 30.940624 192.9284Q31.596874 193.8034 31.6125 195.64716L31.6125 197.0534ZM30.51875 195.56903Q30.51875 194.19403 30.128124 193.56903Q29.753124 192.9284 28.909374 192.9284Q28.08125 192.9284 27.690624 193.56903Q27.315624 194.19403 27.315624 195.4909L27.315624 197.22528Q27.315624 198.60028 27.70625 199.27216Q28.1125 199.9284 28.925 199.9284Q29.721874 199.9284 30.1125 199.3034Q30.503124 198.6784 30.51875 197.35028L30.51875 195.56903ZM38.6125 197.0534Q38.6125 198.95966 37.95625 199.89716Q37.315624 200.81903 35.925 200.81903Q34.565624 200.81903 33.909374 199.91278Q33.253124 199.00653 33.221874 197.19403L33.221874 195.75653Q33.221874 193.8659 33.8625 192.95966Q34.51875 192.03778 35.909374 192.03778Q37.284374 192.03778 37.940624 192.9284Q38.596874 193.8034 38.6125 195.64716L38.6125 197.0534ZM37.51875 195.56903Q37.51875 194.19403 37.128124 193.56903Q36.753124 192.9284 35.909374 192.9284Q35.08125 192.9284 34.690624 193.56903Q34.315624 194.19403 34.315624 195.4909L34.315624 197.22528Q34.315624 198.60028 34.70625 199.27216Q35.1125 199.9284 35.925 199.9284Q36.721874 199.9284 37.1125 199.3034Q37.503124 198.6784 37.51875 197.35028L37.51875 195.56903ZM45.6125 197.0534Q45.6125 198.95966 44.95625 199.89716Q44.315624 200.81903 42.925 200.81903Q41.565624 200.81903 40.909374 199.91278Q40.253124 199.00653 40.221874 197.19403L40.221874 195.75653Q40.221874 193.8659 40.8625 192.95966Q41.51875 192.03778 42.909374 192.03778Q44.284374 192.03778 44.940624 192.9284Q45.596874 193.8034 45.6125 195.64716L45.6125 197.0534ZM44.51875 195.56903Q44.51875 194.19403 44.128124 193.56903Q43.753124 192.9284 42.909374 192.9284Q42.08125 192.9284 41.690624 193.56903Q41.315624 194.19403 41.315624 195.4909L41.315624 197.22528Q41.315624 198.60028 41.70625 199.27216Q42.1125 199.9284 42.925 199.9284Q43.721874 199.9284 44.1125 199.3034Q44.503124 198.6784 44.51875 197.35028L44.51875 195.56903Z" fill-rule="nonzero"/><path fill="#757575" d="M22.815624 165.2238L21.7375 165.2238L21.7375 158.00505L19.55 158.80193L19.55 157.81755L22.659374 156.64568L22.815624 156.64568L22.815624 165.2238ZM26.753124 160.94255L27.190624 156.69255L31.565624 156.69255L31.565624 157.69255L28.1125 157.69255L27.846874 160.02068Q28.4875 159.64568 29.284374 159.64568Q30.440624 159.64568 31.128124 160.42693Q31.815624 161.19255 31.815624 162.50505Q31.815624 163.81755 31.096874 164.58318Q30.39375 165.3488 29.1125 165.3488Q27.9875 165.3488 27.26875 164.7238Q26.55 164.08318 26.45625 162.9738L27.471874 162.9738Q27.58125 163.70818 28.003124 164.08318Q28.425 164.45818 29.1125 164.45818Q29.8625 164.45818 30.3 163.94255Q30.7375 163.42693 30.7375 162.52068Q30.7375 161.6613 30.26875 161.14568Q29.8 160.63005 29.01875 160.63005Q28.315624 160.63005 27.909374 160.92693L27.628124 161.1613L26.753124 160.94255ZM38.6125 161.58318Q38.6125 163.48943 37.95625 164.42693Q37.315624 165.3488 35.925 165.3488Q34.565624 165.3488 33.909374 164.44255Q33.253124 163.5363 33.221874 161.7238L33.221874 160.2863Q33.221874 158.39568 33.8625 157.48943Q34.51875 156.56755 35.909374 156.56755Q37.284374 156.56755 37.940624 157.45818Q38.596874 158.33318 38.6125 160.17693L38.6125 161.58318ZM37.51875 160.0988Q37.51875 158.7238 37.128124 158.0988Q36.753124 157.45818 35.909374 157.45818Q35.08125 157.45818 34.690624 158.0988Q34.315624 158.7238 34.315624 160.02068L34.315624 161.75505Q34.315624 163.13005 34.70625 163.80193Q35.1125 164.45818 35.925 164.45818Q36.721874 164.45818 37.1125 163.83318Q37.503124 163.20818 37.51875 161.88005L37.51875 160.0988ZM45.6125 161.58318Q45.6125 163.48943 44.95625 164.42693Q44.315624 165.3488 42.925 165.3488Q41.565624 165.3488 40.909374 164.44255Q40.253124 163.5363 40.221874 161.7238L40.221874 160.2863Q40.221874 158.39568 40.8625 157.48943Q41.51875 156.56755 42.909374 156.56755Q44.284374 156.56755 44.940624 157.45818Q45.596874 158.33318 45.6125 160.17693L45.6125 161.58318ZM44.51875 160.0988Q44.51875 158.7238 44.128124 158.0988Q43.753124 157.45818 42.909374 157.45818Q42.08125 157.45818 41.690624 158.0988Q41.315624 158.7238 41.315624 160.02068L41.315624 161.75505Q41.315624 163.13005 41.70625 163.80193Q42.1125 164.45818 42.925 164.45818Q43.721874 164.45818 44.1125 163.83318Q44.503124 163.20818 44.51875 161.88005L44.51875 160.0988Z" fill-rule="nonzero"/><path fill="#757575" d="M24.846874 129.75357L19.253124 129.75357L19.253124 128.97232L22.20625 125.69107Q22.8625 124.94107 23.1125 124.487946Q23.3625 124.019196 23.3625 123.519196Q23.3625 122.84732 22.95625 122.425446Q22.565624 121.987946 21.878124 121.987946Q21.08125 121.987946 20.628124 122.456696Q20.175 122.90982 20.175 123.737946L19.096874 123.737946Q19.096874 122.550446 19.846874 121.831696Q20.6125 121.09732 21.878124 121.09732Q23.08125 121.09732 23.76875 121.72232Q24.45625 122.34732 24.45625 123.394196Q24.45625 124.644196 22.846874 126.394196L20.565624 128.86295L24.846874 128.86295L24.846874 129.75357ZM31.6125 126.112946Q31.6125 128.0192 30.95625 128.9567Q30.315624 129.87857 28.925 129.87857Q27.565624 129.87857 26.909374 128.97232Q26.253124 128.06607 26.221874 126.25357L26.221874 124.81607Q26.221874 122.925446 26.8625 122.019196Q27.51875 121.09732 28.909374 121.09732Q30.284374 121.09732 30.940624 121.987946Q31.596874 122.862946 31.6125 124.706696L31.6125 126.112946ZM30.51875 124.62857Q30.51875 123.25357 30.128124 122.62857Q29.753124 121.987946 28.909374 121.987946Q28.08125 121.987946 27.690624 122.62857Q27.315624 123.25357 27.315624 124.550446L27.315624 126.28482Q27.315624 127.65982 27.70625 128.3317Q28.1125 128.98795 28.925 128.98795Q29.721874 128.98795 30.1125 128.36295Q30.503124 127.737946 30.51875 126.40982L30.51875 124.62857ZM38.6125 126.112946Q38.6125 128.0192 37.95625 128.9567Q37.315624 129.87857 35.925 129.87857Q34.565624 129.87857 33.909374 128.97232Q33.253124 128.06607 33.221874 126.25357L33.221874 124.81607Q33.221874 122.925446 33.8625 122.019196Q34.51875 121.09732 35.909374 121.09732Q37.284374 121.09732 37.940624 121.987946Q38.596874 122.862946 38.6125 124.706696L38.6125 126.112946ZM37.51875 124.62857Q37.51875 123.25357 37.128124 122.62857Q36.753124 121.987946 35.909374 121.987946Q35.08125 121.987946 34.690624 122.62857Q34.315624 123.25357 34.315624 124.550446L34.315624 126.28482Q34.315624 127.65982 34.70625 128.3317Q35.1125 128.98795 35.925 128.98795Q36.721874 128.98795 37.1125 128.36295Q37.503124 127.737946 37.51875 126.40982L37.51875 124.62857ZM45.6125 126.112946Q45.6125 128.0192 44.95625 128.9567Q44.315624 129.87857 42.925 129.87857Q41.565624 129.87857 40.909374 128.97232Q40.253124 128.06607 40.221874 126.25357L40.221874 124.81607Q40.221874 122.925446 40.8625 122.019196Q41.51875 121.09732 42.909374 121.09732Q44.284374 121.09732 44.940624 121.987946Q45.596874 122.862946 45.6125 124.706696L45.6125 126.112946ZM44.51875 124.62857Q44.51875 123.25357 44.128124 122.62857Q43.753124 121.987946 42.909374 121.987946Q42.08125 121.987946 41.690624 122.62857Q41.315624 123.25357 41.315624 124.550446L41.315624 126.28482Q41.315624 127.65982 41.70625 128.3317Q42.1125 128.98795 42.925 128.98795Q43.721874 128.98795 44.1125 128.36295Q44.503124 127.737946 44.51875 126.40982L44.51875 124.62857Z" fill-rule="nonzero"/><path fill="#757575" d="M24.846874 94.28333L19.253124 94.28333L19.253124 93.50208L22.20625 90.22083Q22.8625 89.47083 23.1125 89.01771Q23.3625 88.54896 23.3625 88.04896Q23.3625 87.37708 22.95625 86.95521Q22.565624 86.51771 21.878124 86.51771Q21.08125 86.51771 20.628124 86.98646Q20.175 87.43958 20.175 88.26771L19.096874 88.26771Q19.096874 87.08021 19.846874 86.36146Q20.6125 85.62708 21.878124 85.62708Q23.08125 85.62708 23.76875 86.25208Q24.45625 86.87708 24.45625 87.92396Q24.45625 89.17396 22.846874 90.92396L20.565624 93.39271L24.846874 93.39271L24.846874 94.28333ZM26.753124 90.00208L27.190624 85.75208L31.565624 85.75208L31.565624 86.75208L28.1125 86.75208L27.846874 89.08021Q28.4875 88.70521 29.284374 88.70521Q30.440624 88.70521 31.128124 89.48646Q31.815624 90.25208 31.815624 91.56458Q31.815624 92.87708 31.096874 93.64271Q30.39375 94.40833 29.1125 94.40833Q27.9875 94.40833 27.26875 93.78333Q26.55 93.14271 26.45625 92.03333L27.471874 92.03333Q27.58125 92.76771 28.003124 93.14271Q28.425 93.51771 29.1125 93.51771Q29.8625 93.51771 30.3 93.00208Q30.7375 92.48646 30.7375 91.58021Q30.7375 90.72083 30.26875 90.20521Q29.8 89.68958 29.01875 89.68958Q28.315624 89.68958 27.909374 89.98646L27.628124 90.22083L26.753124 90.00208ZM38.6125 90.64271Q38.6125 92.54896 37.95625 93.48646Q37.315624 94.40833 35.925 94.40833Q34.565624 94.40833 33.909374 93.50208Q33.253124 92.59583 33.221874 90.78333L33.221874 89.34583Q33.221874 87.45521 33.8625 86.54896Q34.51875 85.62708 35.909374 85.62708Q37.284374 85.62708 37.940624 86.51771Q38.596874 87.39271 38.6125 89.23646L38.6125 90.64271ZM37.51875 89.15833Q37.51875 87.78333 37.128124 87.15833Q36.753124 86.51771 35.909374 86.51771Q35.08125 86.51771 34.690624 87.15833Q34.315624 87.78333 34.315624 89.08021L34.315624 90.81458Q34.315624 92.18958 34.70625 92.86146Q35.1125 93.51771 35.925 93.51771Q36.721874 93.51771 37.1125 92.89271Q37.503124 92.26771 37.51875 90.93958L37.51875 89.15833ZM45.6125 90.64271Q45.6125 92.54896 44.95625 93.48646Q44.315624 94.40833 42.925 94.40833Q41.565624 94.40833 40.909374 93.50208Q40.253124 92.59583 40.221874 90.78333L40.221874 89.34583Q40.221874 87.45521 40.8625 86.54896Q41.51875 85.62708 42.909374 85.62708Q44.284374 85.62708 44.940624 86.51771Q45.596874 87.39271 45.6125 89.23646L45.6125 90.64271ZM44.51875 89.15833Q44.51875 87.78333 44.128124 87.15833Q43.753124 86.51771 42.909374 86.51771Q42.08125 86.51771 41.690624 87.15833Q41.315624 87.78333 41.315624 89.08021L41.315624 90.81458Q41.315624 92.18958 41.70625 92.86146Q42.1125 93.51771 42.925 93.51771Q43.721874 93.51771 44.1125 92.89271Q44.503124 92.26771 44.51875 90.93958L44.51875 89.15833Z" fill-rule="nonzero"/><path fill="#757575" d="M566.5125 267.99387Q566.5125 269.90012 565.85626 270.83762Q565.21564 271.7595 563.825 271.7595Q562.46564 271.7595 561.8094 270.85324Q561.15314 269.947 561.1219 268.1345L561.1219 266.697Q561.1219 264.80637 561.7625 263.90012Q562.41876 262.97824 563.8094 262.97824Q565.1844 262.97824 565.84064 263.86887Q566.4969 264.74387 566.5125 266.58762L566.5125 267.99387ZM565.41876 266.5095Q565.41876 265.1345 565.02814 264.5095Q564.65314 263.86887 563.8094 263.86887Q562.98126 263.86887 562.59064 264.5095Q562.21564 265.1345 562.21564 266.43137L562.21564 268.16574Q562.21564 269.54074 562.60626 270.21262Q563.0125 270.86887 563.825 270.86887Q564.6219 270.86887 565.0125 270.24387Q565.40314 269.61887 565.41876 268.29074L565.41876 266.5095Z" fill-rule="nonzero"/><path fill="#757575" d="M566.7469 212.51744L561.15314 212.51744L561.15314 211.73619L564.10626 208.45494Q564.7625 207.70494 565.0125 207.25182Q565.2625 206.78307 565.2625 206.28307Q565.2625 205.61119 564.85626 205.18932Q564.46564 204.75182 563.77814 204.75182Q562.98126 204.75182 562.52814 205.22057Q562.075 205.67369 562.075 206.50182L560.9969 206.50182Q560.9969 205.31432 561.7469 204.59557Q562.5125 203.86119 563.77814 203.86119Q564.98126 203.86119 565.66876 204.48619Q566.35626 205.11119 566.35626 206.15807Q566.35626 207.40807 564.7469 209.15807L562.46564 211.62682L566.7469 211.62682L566.7469 212.51744Z" fill-rule="nonzero"/><path fill="#757575" d="M565.73126 150.54102L566.91876 150.54102L566.91876 151.41602L565.73126 151.41602L565.73126 153.40039L564.65314 153.40039L564.65314 151.41602L560.7625 151.41602L560.7625 150.77539L564.575 144.86914L565.73126 144.86914L565.73126 150.54102ZM561.9969 150.54102L564.65314 150.54102L564.65314 146.35352L564.5125 146.58789L561.9969 150.54102Z" fill-rule="nonzero"/><path fill="#757575" d="M565.41876 85.75208L565.41876 86.65833L565.21564 86.65833Q563.95 86.68958 563.2 87.42396Q562.45 88.14271 562.325 89.45521Q563.0125 88.68958 564.16876 88.68958Q565.27814 88.68958 565.95 89.47083Q566.6219 90.25208 566.6219 91.50208Q566.6219 92.81458 565.90314 93.61146Q565.1844 94.40833 563.96564 94.40833Q562.7469 94.40833 561.98126 93.47083Q561.23126 92.51771 561.23126 91.03333L561.23126 90.62708Q561.23126 88.26771 562.23126 87.01771Q563.23126 85.76771 565.21564 85.75208L565.41876 85.75208ZM563.9969 89.59583Q563.4344 89.59583 562.96564 89.92396Q562.4969 90.25208 562.3094 90.76771L562.3094 91.15833Q562.3094 92.22083 562.77814 92.86146Q563.2625 93.50208 563.96564 93.50208Q564.7 93.50208 565.1219 92.97083Q565.54376 92.42396 565.54376 91.54896Q565.54376 90.67396 565.1219 90.14271Q564.7 89.59583 563.9969 89.59583Z" fill-rule="nonzero"/><path fill="#757575" d="M53.84092 304.1809L54.647465 303.37436L58.923252 307.65015Q59.785038 308.51193 59.751892 309.53946Q59.718746 310.54486 58.85696 311.40665Q57.96203 312.30157 56.989758 312.3458Q56.028534 312.37894 55.199894 311.5503L55.995388 310.7548Q56.514668 311.27408 57.08919 311.29617Q57.66372 311.29617 58.205097 310.7548Q58.702282 310.2576 58.69123 309.64993Q58.680183 309.02017 58.127758 308.46774L53.84092 304.1809ZM64.94471 305.14212Q64.745834 305.07584 64.35914 304.77753Q64.39228 305.87134 63.65203 306.61157Q62.989117 307.2745 62.182575 307.32974Q61.38708 307.37393 60.801506 306.78836Q60.10545 306.09232 60.24908 305.17526Q60.39271 304.25824 61.364983 303.28598L62.105236 302.54572L61.751682 302.19217Q61.353935 301.79443 60.878845 301.80548Q60.40376 301.79443 59.928673 302.2695Q59.519875 302.6783 59.453583 303.16443Q59.376244 303.63953 59.674557 303.93784L58.901157 304.71124Q58.55865 304.36874 58.48131 303.82736Q58.41502 303.27493 58.64704 302.68936Q58.86801 302.09274 59.35415 301.6066Q60.138596 300.82214 60.956184 300.77795Q61.78483 300.72272 62.480885 301.37457L64.54696 303.44064Q65.16568 304.05936 65.68496 304.2693L65.75125 304.33557L64.94471 305.14212ZM63.088554 305.82715Q63.453156 305.46252 63.58574 304.9543Q63.718323 304.44608 63.56364 304.00412L62.646614 303.0871L62.04999 303.68372Q60.635777 305.09793 61.46442 305.92657Q61.817974 306.28012 62.27096 306.24698Q62.712906 306.2028 63.088554 305.82715ZM63.36477 297.75064L63.95034 298.29202Q63.828808 297.13193 64.65745 296.30328Q66.08271 294.87802 67.6958 296.46902L70.65681 299.43002L69.88341 300.20343L66.911354 297.23138Q66.436264 296.7563 65.98328 296.74524Q65.54133 296.72314 65.07729 297.18716Q64.701645 297.56284 64.61325 298.04895Q64.53591 298.52405 64.701645 298.99915L67.89467 302.19217L67.132324 302.95453L62.646614 298.4688L63.36477 297.75064ZM74.40226 294.8007Q74.490654 295.77295 73.61781 296.6458Q72.89966 297.36395 72.104164 297.31976Q71.30867 297.27557 70.49108 296.45798L67.574265 293.54117L68.33662 292.7788L71.23133 295.67352Q72.25884 296.70105 73.08749 295.8724Q73.97137 294.98853 73.59572 294.03833L70.3364 290.77902L71.109795 290.0056L75.595505 294.49133L74.8663 295.22055L74.40226 294.8007ZM79.79395 290.29288Q79.59508 290.2266 79.20838 289.92828Q79.24152 291.0221 78.501274 291.76233Q77.83836 292.42526 77.031815 292.4805Q76.23632 292.5247 75.65075 291.93912Q74.95469 291.24307 75.09832 290.32602Q75.24195 289.409 76.214226 288.43674L76.954475 287.69647L76.60092 287.34293Q76.20318 286.9452 75.72809 286.95624Q75.253 286.9452 74.777916 287.42026Q74.36912 287.82907 74.302826 288.3152Q74.22549 288.79028 74.523796 289.0886L73.7504 289.862Q73.4079 289.5195 73.33055 288.97812Q73.26427 288.4257 73.496284 287.84012Q73.717255 287.2435 74.20339 286.75735Q74.98784 285.9729 75.80543 285.9287Q76.63407 285.87347 77.330124 286.52533L79.3962 288.5914Q80.01492 289.21014 80.5342 289.42004L80.600494 289.48633L79.79395 290.29288ZM77.9378 290.9779Q78.3024 290.61328 78.43498 290.10507Q78.567566 289.59683 78.41289 289.15488L77.49586 288.23785L76.89923 288.83447Q75.48502 290.2487 76.31366 291.07733Q76.66721 291.43088 77.12021 291.39774Q77.56215 291.35355 77.9378 290.9779ZM80.34638 282.13907Q80.14751 282.29373 79.94863 282.4926Q79.18628 283.25497 79.561935 284.16095L82.74391 287.34293L81.98157 288.1053L77.49586 283.61957L78.23611 282.8793L78.76644 283.38754Q78.54546 282.41528 79.24152 281.7192Q79.462494 281.49826 79.639275 281.43195L80.34638 282.13907ZM85.14145 282.6915L82.832306 278.2831L83.649895 277.4655L87.03075 284.4482Q87.72681 285.98395 86.82082 286.88992L86.6551 287.03357L86.32364 287.25455L85.704926 286.6358L85.91485 286.448Q86.31259 286.05023 86.367836 285.68564Q86.43413 285.31 86.15791 284.74652L85.859604 284.11676L79.827095 281.28833L80.66679 280.44864L85.14145 282.6915Z" fill-rule="nonzero"/><path fill="#757575" d="M96.53563 308.86548L93.99446 311.40665L96.65716 314.06937L95.861664 314.86484L89.82916 308.83234L93.574615 305.08688L94.22648 305.73874L91.27652 308.68872L93.3426 310.7548L95.88376 308.21362L96.53563 308.86548ZM102.64547 308.2578Q101.72844 309.17484 100.5573 309.15274Q99.38615 309.10855 98.38073 308.10315L98.24815 307.97055Q97.57419 307.2966 97.30902 306.5232Q97.032814 305.73874 97.19854 304.9985Q97.364265 304.23615 97.8946 303.7058Q98.76743 302.83298 99.828094 302.9214Q100.888756 303.00977 101.960464 304.08148L102.28087 304.4019L99.242516 307.44022Q99.92753 308.08105 100.70093 308.12524Q101.485374 308.1584 102.0599 307.58386Q102.45764 307.18613 102.56813 306.74417Q102.68967 306.29117 102.63442 305.794L103.463066 305.69455Q103.77242 307.13086 102.64547 308.2578ZM98.52436 304.3356Q98.060326 304.79962 98.08242 305.46255Q98.10452 306.10336 98.6459 306.7773L100.888756 304.53445L100.83351 304.47922Q100.21479 303.9268 99.607124 303.89365Q99.0105 303.84946 98.52436 304.3356ZM106.54561 299.8057Q107.57312 300.8332 107.7278 301.93805Q107.88248 303.0208 107.08698 303.8163Q106.236244 304.66705 105.164536 304.5234L105.639626 305.08688L104.943565 305.78296L98.579605 299.41898L99.34196 298.65665L101.71739 301.03207Q101.60691 299.9935 102.4245 299.1759Q103.24209 298.35834 104.32485 298.513Q105.39656 298.65665 106.47932 299.73938L106.54561 299.8057ZM105.69487 300.47964Q104.91042 299.6952 104.18122 299.58472Q103.45201 299.45212 102.88854 300.0156Q102.12619 300.77795 102.49079 301.80548L104.43533 303.75003Q105.495995 304.10358 106.236244 303.3633Q106.78867 302.81088 106.66714 302.07065Q106.54561 301.33038 105.69487 300.47964ZM108.25813 294.86697Q108.05926 295.02167 107.86038 295.22055Q107.09803 295.98288 107.47369 296.88885L110.65566 300.07086L109.89332 300.8332L105.40761 296.3475L106.14786 295.60724L106.67819 296.11548Q106.457214 295.1432 107.153275 294.44714Q107.374245 294.22617 107.551025 294.15988L108.25813 294.86697ZM115.04194 294.8007Q115.130325 295.77298 114.25749 296.6458Q113.53934 297.36395 112.743835 297.31976Q111.94834 297.27557 111.13075 296.45798L108.213936 293.54117L108.97629 292.7788L111.871 295.67352Q112.89852 296.70105 113.72716 295.8724Q114.611046 294.98853 114.23539 294.03836L110.976074 290.77902L111.74947 290.0056L116.235176 294.49133L115.505974 295.22055L115.04194 294.8007ZM120.43362 290.2929Q120.23475 290.2266 119.848045 289.92828Q119.881195 291.0221 119.14094 291.76236Q118.478035 292.42526 117.671486 292.4805Q116.87599 292.5247 116.29042 291.93912Q115.59436 291.24307 115.73799 290.32605Q115.88162 289.409 116.85389 288.43674L117.59415 287.69647L117.24059 287.34293Q116.84284 286.9452 116.36776 286.95624Q115.89267 286.9452 115.41758 287.4203Q115.00878 287.82907 114.9425 288.31522Q114.86516 288.79028 115.16347 289.0886L114.390076 289.862Q114.04757 289.5195 113.97023 288.97812Q113.90394 288.4257 114.135956 287.84012Q114.35692 287.2435 114.843056 286.75735Q115.6275 285.9729 116.4451 285.9287Q117.273735 285.87347 117.969795 286.52533L120.03587 288.59143Q120.654594 289.21014 121.173874 289.42007L121.240166 289.48636L120.43362 290.2929ZM118.57746 290.9779Q118.94207 290.6133 119.074646 290.10507Q119.20723 289.59683 119.05255 289.1549L118.13552 288.23785L117.5389 288.83447Q116.124695 290.2487 116.95333 291.07733Q117.306885 291.43088 117.75987 291.39774Q118.20181 291.35355 118.57746 290.9779ZM120.986046 282.13907Q120.78717 282.29376 120.5883 282.4926Q119.82595 283.25497 120.2016 284.16095L123.38358 287.34293L122.62123 288.1053L118.13552 283.61957L118.87578 282.87933L119.406105 283.38754Q119.185135 282.41528 119.881195 281.71924Q120.102165 281.49826 120.27894 281.43198L120.986046 282.13907ZM125.78111 282.6915L123.47197 278.28314L124.28956 277.46555L127.67042 284.4482Q128.36647 285.98395 127.460495 286.88995L127.29477 287.03357L126.96331 287.25455L126.34459 286.63583L126.55451 286.448Q126.95226 286.05026 127.0075 285.68564Q127.07379 285.31 126.797585 284.74652L126.49927 284.11676L120.46677 281.28833L121.30646 280.44864L125.78111 282.6915Z" fill-rule="nonzero"/><path fill="#757575" d="M141.39584 297.90533L148.29013 300.84424L145.34018 293.961L146.37874 292.92245L152.41124 298.95496L151.61574 299.75046L149.2624 297.3971L146.80963 294.78964L149.70435 301.66183L149.09668 302.2695L142.24658 299.3748L144.84299 301.81653L147.19633 304.16986L146.40083 304.96536L140.36833 298.93286L141.39584 297.90533ZM156.12355 295.24265Q155.92468 295.17636 155.53798 294.87805Q155.57112 295.97183 154.83087 296.7121Q154.16795 297.375 153.36142 297.43024Q152.56592 297.47446 151.98035 296.8889Q151.28429 296.1928 151.42792 295.2758Q151.57155 294.35876 152.54382 293.38647L153.28407 292.64624L152.93053 292.2927Q152.53278 291.89493 152.0577 291.90598Q151.5826 291.89493 151.10751 292.37003Q150.69872 292.7788 150.63243 293.26495Q150.55508 293.74005 150.8534 294.03836L150.08 294.81174Q149.73749 294.46924 149.66016 293.92786Q149.59386 293.37543 149.82588 292.78986Q150.04684 292.19324 150.53299 291.7071Q151.31743 290.92267 152.13503 290.87848Q152.96367 290.8232 153.65973 291.4751L155.7258 293.54117Q156.34453 294.15988 156.8638 294.3698L156.9301 294.4361L156.12355 295.24265ZM154.2674 295.92764Q154.632 295.56305 154.76459 295.0548Q154.89716 294.54657 154.74248 294.10464L153.82545 293.18762L153.22884 293.78424Q151.81462 295.19846 152.64326 296.0271Q152.99681 296.38065 153.4498 296.3475Q153.89174 296.3033 154.2674 295.92764ZM156.67598 287.0888Q156.4771 287.2435 156.27823 287.44238Q155.51588 288.2047 155.89153 289.1107L159.07352 292.2927L158.31116 293.05502L153.82545 288.5693L154.5657 287.82907L155.09604 288.3373Q154.87506 287.36502 155.57112 286.66898Q155.7921 286.448 155.96887 286.3817L156.67598 287.0888ZM162.38808 287.89536Q162.79688 287.48657 162.86316 286.93414Q162.91841 286.37067 162.5759 285.96185L163.3051 285.23267Q163.66971 285.64145 163.76915 286.2491Q163.86858 286.8347 163.66971 287.45343Q163.48189 288.0611 163.01784 288.52512Q162.10081 289.44217 160.95177 289.37585Q159.80272 289.28748 158.74205 288.2268L158.60947 288.09424Q157.95761 287.44238 157.6814 286.70212Q157.41623 285.9508 157.58195 285.23267Q157.74768 284.4924 158.36641 283.8737Q159.1177 283.12238 160.06789 283.0782Q161.01805 283.0119 161.78041 283.70795L161.05121 284.43716Q160.57611 284.02838 160.00159 284.05048Q159.42706 284.07257 158.99617 284.50345Q158.4106 285.08902 158.51004 285.82928Q158.60947 286.56952 159.40497 287.36502L159.5486 287.50867Q160.32199 288.28204 161.06226 288.3815Q161.8025 288.48093 162.38808 287.89536ZM162.20026 281.27728Q162.08977 280.15033 162.90736 279.33273Q164.33261 277.90747 165.94571 279.49847L168.90672 282.45947L168.13332 283.23288L165.16125 280.2608Q164.68617 279.78574 164.23318 279.7747Q163.79124 279.7526 163.3272 280.2166Q162.95155 280.5923 162.86316 281.0784Q162.78583 281.5535 162.95155 282.0286L166.14458 285.22162L165.38223 285.98395L159.01826 279.62L159.78062 278.85764L162.20026 281.27728Z" fill-rule="nonzero"/><path fill="#757575" d="M195.1612 293.68478L192.63107 296.2149L193.64754 298.35834L192.82994 299.17593L189.09554 290.8453L189.7916 290.14926L198.13326 293.87262L197.31566 294.69022L195.1612 293.68478ZM192.22227 295.31998L194.27731 293.26495L190.43242 291.4751L192.22227 295.31998ZM200.54182 287.0888Q201.5583 288.1053 201.72403 289.1991Q201.88976 290.29288 201.0832 291.09943Q200.26561 291.91702 199.2823 291.8618L201.43677 294.01624L200.67441 294.7786L194.46513 288.5693L195.1612 287.87326L195.69151 288.3373Q195.59209 287.2877 196.42073 286.45905Q197.22726 285.6525 198.29898 285.79614Q199.38173 285.9287 200.4645 287.01147L200.54182 287.0888ZM199.69109 287.7628Q198.92874 287.00043 198.1664 286.901Q197.40404 286.77945 196.84058 287.34293Q196.14452 288.039 196.40967 288.98917L198.55309 291.13257Q199.51431 291.40878 200.22142 290.7017Q200.77385 290.14926 200.66336 289.39795Q200.55287 288.62457 199.69109 287.7628ZM202.2654 282.13907Q202.06653 282.29373 201.86766 282.4926Q201.1053 283.25497 201.48096 284.16095L204.66293 287.34293L203.90059 288.1053L199.41489 283.61957L200.15514 282.87933L200.68546 283.38754Q200.4645 282.41528 201.16055 281.7192Q201.38152 281.49826 201.5583 281.43195L202.2654 282.13907ZM207.55766 284.4482L206.7953 285.21057L202.3096 280.72485L203.07195 279.9625L207.55766 284.4482ZM201.06111 279.60895Q200.87329 279.4211 200.8512 279.17807Q200.84015 278.92395 201.06111 278.70297Q201.28209 278.482 201.52515 278.5041Q201.77927 278.51514 201.96709 278.70297Q202.14388 278.87976 202.15492 279.13385Q202.16597 279.36588 201.94499 279.58685Q201.72403 279.80783 201.48096 279.80783Q201.23788 279.78574 201.06111 279.60895ZM209.67897 282.3269L208.91663 283.08923L202.55266 276.72528L203.31502 275.96292L209.67897 282.3269Z" fill-rule="nonzero"/><path fill="#757575" d="M230.45337 290.12717L237.34767 293.06607L234.3977 286.18283L235.43626 285.14426L241.46877 291.17676L240.67328 291.97226L238.31993 289.61893L235.86716 287.01147L238.76187 293.88367L238.1542 294.49133L231.30411 291.59662L233.90051 294.03833L236.25386 296.3917L235.45836 297.1872L229.42586 291.15466L230.45337 290.12717ZM245.18108 287.46445Q244.98221 287.39816 244.5955 287.09985Q244.62865 288.19366 243.8884 288.93393Q243.2255 289.59683 242.41895 289.65207Q241.62344 289.69626 241.03787 289.1107Q240.34181 288.41464 240.48544 287.49762Q240.62907 286.58057 241.60135 285.6083L242.3416 284.86804L241.98805 284.5145Q241.5903 284.11676 241.11522 284.1278Q240.64014 284.11676 240.16504 284.59183Q239.75624 285.00064 239.68996 285.4868Q239.61261 285.96185 239.91092 286.26016L239.13753 287.03357Q238.79503 286.69107 238.71768 286.1497Q238.6514 285.59726 238.8834 285.0117Q239.10439 284.41507 239.59052 283.92892Q240.37497 283.14447 241.19255 283.10028Q242.0212 283.04504 242.71725 283.6969L244.78334 285.763Q245.40205 286.3817 245.92134 286.5916L245.98763 286.65793L245.18108 287.46445ZM243.32492 288.14948Q243.68953 287.78488 243.82211 287.27664Q243.9547 286.7684 243.80002 286.32648L242.88298 285.40942L242.28636 286.00604Q240.87215 287.42026 241.70079 288.2489Q242.05434 288.60245 242.50734 288.5693Q242.94928 288.52512 243.32492 288.14948ZM247.70015 282.6915L245.391 278.2831L246.2086 277.4655L249.58945 284.4482Q250.2855 285.98395 249.37953 286.88992L249.2138 287.03357L248.88234 287.25455L248.26363 286.63583L248.47354 286.448Q248.87129 286.05026 248.92654 285.68564Q248.99283 285.31 248.71661 284.74652L248.4183 284.11676L242.3858 281.28833L243.2255 280.44864L247.70015 282.6915Z" fill-rule="nonzero"/><path fill="#757575" d="M269.7672 291.45297L270.57376 290.64645L274.84955 294.92224Q275.71133 295.78403 275.6782 296.81152Q275.64505 297.81696 274.78326 298.67874Q273.88834 299.57367 272.91605 299.61786Q271.95483 299.651 271.1262 298.82236L271.9217 298.02686Q272.44098 298.54614 273.0155 298.56824Q273.59003 298.56824 274.1314 298.02686Q274.62857 297.5297 274.61752 296.92203Q274.60648 296.29224 274.05405 295.7398L269.7672 291.45297ZM280.42908 291.97226Q280.51746 292.94455 279.64462 293.81738Q278.92648 294.53552 278.13098 294.49133Q277.33548 294.44714 276.51788 293.62955L273.60107 290.71274L274.36343 289.95038L277.25815 292.8451Q278.28564 293.87262 279.1143 293.04398Q279.99817 292.1601 279.62253 291.20993L276.36322 287.9506L277.1366 287.1772L281.6223 291.6629L280.8931 292.39212L280.42908 291.97226ZM279.29108 285.02274L279.87665 285.56412Q279.7551 284.40402 280.58374 283.57538Q282.009 282.15012 283.6221 283.7411L286.5831 286.70212L285.80972 287.4755L282.83765 284.50345Q282.36258 284.02835 281.90958 284.0173Q281.46762 283.9952 281.0036 284.45926Q280.62793 284.8349 280.53955 285.32104Q280.46222 285.79614 280.62793 286.2712L283.82098 289.46423L283.05862 290.2266L278.5729 285.74088L279.29108 285.02274ZM289.9529 283.5091Q289.0359 284.42612 287.86475 284.40402Q286.6936 284.35983 285.68817 283.3544L285.5556 283.22183Q284.88162 282.54785 284.61646 281.77448Q284.34024 280.99002 284.50598 280.24976Q284.67172 279.4874 285.20203 278.9571Q286.0749 278.08426 287.13553 278.17264Q288.1962 278.26102 289.2679 279.33273L289.58832 279.65314L286.54996 282.6915Q287.235 283.3323 288.00836 283.3765Q288.79282 283.40964 289.36734 282.8351Q289.76508 282.43738 289.87558 281.99542Q289.9971 281.54245 289.94186 281.04526L290.7705 280.94583Q291.07986 282.38214 289.9529 283.5091ZM285.83182 279.58685Q285.36777 280.05087 285.38986 280.7138Q285.41196 281.3546 285.95334 282.02856L288.1962 279.78574L288.14096 279.73047Q287.52225 279.17804 286.91455 279.1449Q286.31793 279.1007 285.83182 279.58685Z" fill-rule="nonzero"/><path fill="#757575" d="M313.23532 288.62454L314.04187 287.81802L318.31766 292.0938Q319.17944 292.9556 319.1463 293.9831Q319.11316 294.98853 318.25137 295.8503Q317.35645 296.74524 316.38416 296.78943Q315.42294 296.82257 314.5943 295.99393L315.3898 295.19843Q315.9091 295.7177 316.4836 295.7398Q317.05814 295.7398 317.59952 295.19843Q318.09668 294.70126 318.08563 294.0936Q318.0746 293.4638 317.52216 292.91138L313.23532 288.62454ZM323.8972 289.14383Q323.98557 290.11612 323.11273 290.98895Q322.39456 291.7071 321.5991 291.6629Q320.8036 291.6187 319.986 290.80112L317.06918 287.8843L317.8315 287.12195L320.72626 290.01666Q321.75375 291.0442 322.5824 290.21555Q323.46628 289.33167 323.09064 288.3815L319.8313 285.12216L320.6047 284.34875L325.09042 288.83447L324.3612 289.5637L323.8972 289.14383ZM327.35538 286.56952L326.59302 287.33188L320.22906 280.96793L320.9914 280.20557L327.35538 286.56952ZM328.9795 282.6915L326.67035 278.2831L327.48795 277.4655L330.8688 284.4482Q331.56485 285.98395 330.65887 286.88992L330.49316 287.03357L330.1617 287.25455L329.54297 286.6358L329.7529 286.448Q330.15067 286.05023 330.2059 285.68564Q330.2722 285.31 329.99597 284.74652L329.69766 284.11676L323.66516 281.28833L324.50485 280.44864L328.9795 282.6915Z" fill-rule="nonzero"/><path fill="#757575" d="M347.8204 303.5843L345.29028 306.1144L346.30676 308.2578L345.48917 309.0754L341.75476 300.7448L342.4508 300.04874L350.79248 303.7721L349.97488 304.5897L347.8204 303.5843ZM344.8815 305.21945L346.93652 303.16443L343.09164 301.37457L344.8815 305.21945ZM353.93024 299.75043Q354.01865 300.72272 353.1458 301.59555Q352.42764 302.3137 351.63214 302.2695Q350.83667 302.2253 350.01907 301.4077L347.10226 298.4909L347.8646 297.72855L350.7593 300.62326Q351.78683 301.6508 352.61548 300.82214Q353.49936 299.93826 353.12372 298.9881L349.86438 295.72876L350.6378 294.95538L355.1235 299.44107L354.3943 300.1703L353.93024 299.75043ZM354.09598 295.9166Q353.04636 294.86697 352.9138 293.76212Q352.7812 292.65726 353.5767 291.8618Q354.3943 291.0442 355.43286 291.15466L354.9688 290.62433L355.67593 289.91724L360.05115 294.29245Q360.92398 295.16528 360.9019 296.18176Q360.89084 297.20926 360.02905 298.07104Q359.5429 298.5572 358.86896 298.8113Q358.19498 299.06543 357.59836 298.95496L357.53207 298.09314Q358.6259 298.2147 359.34402 297.49652Q359.89645 296.9441 359.8854 296.31433Q359.89645 295.68457 359.32193 295.11005L358.93524 294.72336Q359.01257 295.72876 358.2171 296.52426Q357.43265 297.30872 356.31674 297.16507Q355.1898 297.0104 354.09598 295.9166ZM354.95776 295.23157Q355.70908 295.98288 356.46036 296.11548Q357.20062 296.237 357.7641 295.67352Q358.48224 294.95538 358.16183 293.94995L356.11786 291.90598Q355.1235 291.6187 354.41638 292.3258Q353.86395 292.87823 353.97446 293.62955Q354.09598 294.36978 354.95776 295.23157ZM363.82974 289.85095Q363.91812 290.8232 363.0453 291.69604Q362.32715 292.4142 361.53165 292.37Q360.73615 292.3258 359.91855 291.5082L357.00174 288.5914L357.7641 287.82907L360.6588 290.7238Q361.68634 291.75128 362.51498 290.92264Q363.39886 290.03876 363.0232 289.0886L359.7639 285.82928L360.5373 285.05588L365.02298 289.5416L364.2938 290.27078L363.82974 289.85095ZM367.8735 284.30457Q367.56415 283.9952 367.15536 284.07254Q366.74655 284.1278 366.03946 284.59183Q365.34338 285.04483 364.82413 285.21054Q364.30484 285.37628 363.90707 285.31Q363.50934 285.2216 363.1779 284.89014Q362.62546 284.3377 362.71384 283.49802Q362.7912 282.64728 363.5204 281.9181Q364.28275 281.15573 365.14453 281.08945Q366.00632 281.00107 366.61398 281.60873L365.85162 282.37106Q365.54227 282.0617 365.04507 282.11697Q364.5479 282.15012 364.15015 282.54785Q363.73032 282.9677 363.67508 283.3986Q363.6198 283.80737 363.90707 284.09464Q364.1833 284.37085 364.5479 284.29352Q364.9125 284.2162 365.6196 283.77423Q366.31567 283.32126 366.846 283.14447Q367.37634 282.9677 367.79617 283.0561Q368.22708 283.13342 368.58063 283.48697Q369.1883 284.09464 369.06674 284.94537Q368.95627 285.78506 368.1939 286.54742Q367.65256 287.0888 367.04486 287.32083Q366.4372 287.53076 365.86267 287.42026Q365.28815 287.30978 364.8904 286.91202L365.65277 286.1497Q366.06155 286.51428 366.58084 286.45905Q367.08908 286.39276 367.56415 285.91766Q367.99506 285.48676 368.08344 285.04483Q368.1718 284.60287 367.8735 284.30457ZM366.17203 277.2556L367.2548 278.33835L368.08344 277.5097L368.68005 278.10635L367.8514 278.93497L370.6246 281.70816Q370.90082 281.98438 371.1439 282.00647Q371.38696 282.02856 371.65213 281.7634Q371.7847 281.63083 371.97253 281.3546L372.59125 281.97333Q372.38132 282.36002 372.09406 282.64728Q371.58582 283.15552 371.0113 283.11133Q370.42572 283.0561 369.8512 282.48157L367.07803 279.70837L366.26044 280.52597L365.66382 279.92935L366.48138 279.11176L365.39865 278.029L366.17203 277.2556Z" fill-rule="nonzero"/><path fill="#757575" d="M372.36237 317.4723Q371.04758 318.19046 370.1416 318.23465Q369.24667 318.2678 368.6169 317.63803Q367.9098 316.9309 368.00925 315.9034Q368.10867 314.8538 369.0257 313.93677Q369.6444 313.31805 370.37363 313.07498Q371.1028 312.8319 371.78784 312.9866Q372.4839 313.13022 372.99213 313.63846L372.18558 314.445Q371.63315 313.89258 370.97025 313.93677Q370.3184 313.9699 369.6886 314.59967Q369.10303 315.18524 369.03674 315.78186Q368.9594 316.36743 369.41238 316.82043Q369.78806 317.19608 370.35153 317.14084Q370.92606 317.07455 371.88727 316.53317Q372.84848 315.9918 373.52246 315.82605Q374.20746 315.6493 374.74884 315.7929Q375.30127 315.9255 375.75427 316.37848Q376.4945 317.11874 376.36194 318.13522Q376.22934 319.15167 375.27917 320.10184Q374.6494 320.73163 373.86496 321.02994Q373.09155 321.3172 372.38446 321.2067Q371.67734 321.07413 371.15808 320.55484L371.95355 319.75934Q372.49493 320.30072 373.22415 320.21234Q373.95334 320.12396 374.62732 319.44998Q375.25708 318.82022 375.3344 318.23465Q375.4007 317.63803 374.95877 317.19608Q374.5168 316.75415 373.9644 316.82043Q373.41196 316.88672 372.36237 317.4723ZM380.05215 315.3289Q379.1351 316.2459 377.96396 316.22382Q376.79282 316.17963 375.7874 315.1742L375.65482 315.04163Q374.98087 314.36765 374.7157 313.59427Q374.43948 312.8098 374.60522 312.06955Q374.77094 311.30722 375.30127 310.7769Q376.1741 309.90405 377.23477 309.99243Q378.29544 310.0808 379.36713 311.15253L379.68753 311.47293L376.6492 314.5113Q377.3342 315.1521 378.1076 315.1963Q378.89206 315.22943 379.46658 314.6549Q379.86432 314.25717 379.9748 313.81522Q380.09634 313.36224 380.0411 312.86505L380.86975 312.76562Q381.1791 314.20193 380.05215 315.3289ZM375.93103 311.40665Q375.467 311.8707 375.4891 312.5336Q375.5112 313.1744 376.05258 313.8484L378.29544 311.60553L378.24017 311.5503Q377.62146 310.99786 377.0138 310.9647Q376.41718 310.9205 375.93103 311.40665ZM383.94122 306.8878Q384.9577 307.90427 385.1234 308.99808Q385.28915 310.09186 384.4826 310.8984Q383.665 311.716 382.6817 311.66077L384.83615 313.81522L384.07382 314.57758L377.86453 308.3683L378.56058 307.67224L379.0909 308.1363Q378.9915 307.08667 379.82013 306.25803Q380.62668 305.45148 381.69836 305.59512Q382.78113 305.7277 383.8639 306.81046L383.94122 306.8878ZM383.09048 307.56177Q382.32816 306.7994 381.5658 306.69998Q380.80344 306.57843 380.23996 307.1419Q379.5439 307.83798 379.80908 308.78815L381.95248 310.93155Q382.91373 311.20776 383.62082 310.50067Q384.17325 309.94824 384.06277 309.19693Q383.95227 308.42355 383.09048 307.56177ZM382.77008 301.29724L383.85284 302.37997L384.6815 301.55136L385.2781 302.14798L384.44946 302.97662L387.22266 305.7498Q387.49887 306.026 387.74194 306.0481Q387.985 306.0702 388.25015 305.80502Q388.38275 305.67245 388.57056 305.39624L389.1893 306.01495Q388.97937 306.40167 388.6921 306.68893Q388.18387 307.19714 387.60934 307.15295Q387.02377 307.09772 386.44925 306.5232L383.67606 303.75L382.85846 304.5676L382.26184 303.97098L383.07944 303.15338L381.99667 302.07062L382.77008 301.29724ZM392.07297 303.30807Q391.15594 304.2251 389.98477 304.203Q388.81363 304.1588 387.80823 303.15338L387.67563 303.0208Q387.00168 302.34683 386.7365 301.57346Q386.4603 300.789 386.62604 300.04874Q386.79175 299.2864 387.32208 298.75607Q388.19492 297.88324 389.25558 297.97162Q390.31625 298.06 391.38794 299.1317L391.70834 299.45212L388.67 302.49048Q389.355 303.1313 390.12842 303.17548Q390.91287 303.20862 391.4874 302.6341Q391.88513 302.23636 391.9956 301.7944Q392.11716 301.34143 392.06192 300.84424L392.89056 300.7448Q393.19992 302.18112 392.07297 303.30807ZM387.95184 299.38583Q387.48782 299.84988 387.50992 300.5128Q387.532 301.1536 388.0734 301.82755L390.31625 299.58472L390.261 299.52945Q389.64227 298.97705 389.0346 298.94388Q388.438 298.8997 387.95184 299.38583ZM390.60352 295.62933L391.12277 296.1044Q391.0344 295.04376 391.87408 294.20407Q392.8132 293.26495 393.87387 293.6406Q393.77444 293.0992 393.9291 292.54678Q394.09485 291.9833 394.581 291.49716Q396.0615 290.01666 397.64142 291.55243L400.64664 294.55762L399.88428 295.31998L396.92328 292.35895Q396.44818 291.88388 395.99518 291.87283Q395.53116 291.85074 395.01187 292.37Q394.581 292.8009 394.54782 293.3423Q394.52573 293.87262 394.91245 294.3477L397.8845 297.31976L397.12213 298.0821L394.18323 295.1432Q393.21097 294.17093 392.24973 295.13214Q391.49844 295.88345 391.86304 296.80048L395.1334 300.07083L394.36002 300.84424L389.8743 296.35852L390.60352 295.62933ZM403.75128 287.07776Q404.77878 288.10526 404.93347 289.2101Q405.08813 290.29288 404.29266 291.08838Q403.44193 291.93912 402.3702 291.79547L402.84528 292.35895L402.14923 293.05502L395.78528 286.69107L396.5476 285.9287L398.92307 288.30414Q398.81256 287.2656 399.63016 286.448Q400.44775 285.6304 401.53052 285.78506Q402.60223 285.9287 403.68497 287.01147L403.75128 287.07776ZM402.90054 287.7517Q402.1161 286.96725 401.38687 286.85678Q400.65768 286.7242 400.0942 287.2877Q399.33185 288.05002 399.69644 289.07755L401.641 291.0221Q402.70166 291.37564 403.44193 290.63538Q403.99432 290.08295 403.8728 289.3427Q403.75128 288.60245 402.90054 287.7517ZM409.04352 286.3375Q408.1265 287.25452 406.95535 287.23242Q405.7842 287.18823 404.77878 286.18283L404.6462 286.05023Q403.97223 285.37628 403.70706 284.60287Q403.43085 283.81842 403.5966 283.0782Q403.76233 282.31583 404.29266 281.7855Q405.1655 280.91266 406.22614 281.00107Q407.2868 281.08945 408.35852 282.16116L408.67892 282.48157L405.64056 285.5199Q406.3256 286.16074 407.09897 286.20493Q407.88342 286.23807 408.45795 285.66354Q408.85568 285.2658 408.9662 284.82385Q409.0877 284.37085 409.03247 283.8737L409.8611 283.77423Q410.17047 285.21054 409.04352 286.3375ZM404.92242 282.41528Q404.45837 282.8793 404.48047 283.5422Q404.50256 284.18304 405.04395 284.857L407.2868 282.61414L407.23157 282.5589Q406.61285 282.00647 406.00516 281.97333Q405.40854 281.92914 404.92242 282.41528ZM409.70642 277.89642Q409.50757 278.0511 409.3087 278.24997Q408.54633 279.01233 408.922 279.9183L412.10397 283.10028L411.3416 283.86264L406.8559 279.37692L407.59616 278.63666L408.1265 279.1449Q407.90552 278.17264 408.6016 277.47656Q408.82254 277.25558 408.99933 277.1893L409.70642 277.89642Z" fill-rule="nonzero"/><path fill="#757575" d="M427.04474 303.16443Q427.92862 304.0483 428.2932 305.00955Q428.64676 305.95972 428.4479 306.8657Q428.26007 307.76062 427.53088 308.48984Q426.82376 309.19693 425.9178 309.3958Q425.0118 309.5947 424.0616 309.2632Q423.11145 308.90967 422.23862 308.05893L421.80774 307.62805Q420.93488 306.75522 420.57028 305.79398Q420.21674 304.82172 420.41562 303.91574Q420.60342 302.99872 421.3216 302.28055Q422.03973 301.56238 422.94574 301.36353Q423.8517 301.16464 424.81293 301.52924Q425.77414 301.89386 426.65805 302.77774L427.04474 303.16443ZM425.86255 303.55112Q424.79083 302.47943 423.7854 302.3358Q422.78 302.19217 422.0066 302.96555Q421.24426 303.7279 421.38788 304.73334Q421.53152 305.73874 422.53693 306.76627L422.98993 307.21924Q424.02847 308.2578 425.056 308.42355Q426.08353 308.56717 426.84586 307.8048Q427.61926 307.03143 427.48666 306.05914Q427.3541 305.0648 426.31552 304.00412L425.86255 303.55112ZM432.01657 302.7446Q432.42538 302.3358 432.49167 301.78336Q432.5469 301.21988 432.2044 300.8111L432.9336 300.08188Q433.29822 300.4907 433.39764 301.09836Q433.49707 301.68393 433.29822 302.30264Q433.11038 302.9103 432.64633 303.37436Q431.7293 304.29138 430.58026 304.2251Q429.4312 304.13672 428.37057 303.07605L428.23798 302.94345Q427.58612 302.2916 427.3099 301.55133Q427.04474 300.80005 427.21045 300.08188Q427.3762 299.34164 427.9949 298.72293Q428.74622 297.97162 429.69638 297.92743Q430.64655 297.86115 431.4089 298.5572L430.67972 299.2864Q430.20462 298.8776 429.6301 298.8997Q429.05557 298.92178 428.62466 299.3527Q428.0391 299.93826 428.13855 300.6785Q428.23798 301.41876 429.03348 302.21426L429.1771 302.35788Q429.9505 303.1313 430.69077 303.2307Q431.431 303.33017 432.01657 302.7446ZM430.48083 294.22617L431.5636 295.30893L432.39224 294.4803L432.98886 295.0769L432.16022 295.90555L434.93338 298.6787Q435.2096 298.95493 435.45267 298.97702Q435.69574 298.99915 435.9609 298.73398Q436.0935 298.60138 436.2813 298.32516L436.90002 298.94388Q436.69012 299.3306 436.40286 299.61786Q435.89462 300.12607 435.3201 300.08188Q434.73453 300.02664 434.16 299.45212L431.3868 296.67892L430.5692 297.49652L429.9726 296.8999L430.7902 296.0823L429.70743 294.99957L430.48083 294.22617ZM435.3422 295.92764Q434.69034 295.27576 434.41412 294.49133Q434.14896 293.69583 434.33676 292.95557Q434.51355 292.20428 435.09912 291.6187Q436.01614 290.70166 437.20938 290.76797Q438.4137 290.8232 439.47433 291.88388L439.5296 291.93912Q440.18146 292.59097 440.44662 293.36438Q440.7118 294.1378 440.54605 294.90012Q440.3693 295.65143 439.7616 296.2591Q438.85562 297.16507 437.65134 297.10983Q436.44705 297.0325 435.39743 295.98288L435.3422 295.92764ZM436.21503 295.25366Q436.9553 295.99393 437.75076 296.1044Q438.5573 296.20386 439.13184 295.62933Q439.7174 295.04376 439.60693 294.24826Q439.48538 293.4417 438.65677 292.61307Q437.92755 291.88388 437.121 291.78442Q436.31445 291.6629 435.72888 292.24847Q435.1654 292.81195 435.26486 293.6185Q435.3643 294.40292 436.21503 295.25366ZM444.39096 287.07776Q445.41846 288.10526 445.57315 289.2101Q445.7278 290.29288 444.9323 291.08838Q444.08157 291.93912 443.0099 291.79547L443.48495 292.35895L442.7889 293.05502L436.42496 286.69104L437.1873 285.9287L439.56274 288.30414Q439.45224 287.26556 440.26984 286.448Q441.08743 285.6304 442.1702 285.78506Q443.2419 285.9287 444.32465 287.01147L444.39096 287.07776ZM443.54022 287.7517Q442.75577 286.96725 442.02655 286.85678Q441.29736 286.7242 440.7339 287.2877Q439.97153 288.05002 440.33612 289.07755L442.28067 291.0221Q443.34134 291.37564 444.08157 290.63538Q444.634 290.08295 444.51248 289.3427Q444.39096 288.60245 443.54022 287.7517ZM449.6832 286.3375Q448.76617 287.25452 447.59503 287.23242Q446.4239 287.18823 445.41846 286.18283L445.2859 286.05023Q444.6119 285.37628 444.34674 284.60287Q444.07053 283.81842 444.23627 283.0782Q444.402 282.31583 444.9323 281.7855Q445.80518 280.91266 446.8658 281.00107Q447.92648 281.08945 448.9982 282.16116L449.3186 282.48157L446.28024 285.5199Q446.96527 286.16074 447.73865 286.20493Q448.5231 286.23807 449.09763 285.66354Q449.49536 285.26578 449.60587 284.82385Q449.7274 284.37085 449.67215 283.8737L450.5008 283.77423Q450.81015 285.21054 449.6832 286.3375ZM445.5621 282.41525Q445.09805 282.8793 445.12015 283.5422Q445.14224 284.18304 445.68362 284.857L447.92648 282.61414L447.87125 282.5589Q447.25253 282.00647 446.64484 281.97333Q446.04822 281.92914 445.5621 282.41525ZM450.3461 277.89642Q450.14725 278.0511 449.94836 278.24997Q449.186 279.01233 449.56168 279.9183L452.74365 283.10028L451.9813 283.86264L447.49557 279.37692L448.23584 278.63666L448.76617 279.1449Q448.5452 278.17264 449.24127 277.47656Q449.46222 277.25558 449.639 277.1893L450.3461 277.89642Z" fill-rule="nonzero"/><path fill="#757575" d="M460.60226 315.88132L459.8068 316.67682L452.117 315.06372L456.76843 319.71518L455.96188 320.52173L449.92938 314.4892L450.73593 313.68268L458.4478 315.31784L453.77426 310.64432L454.56976 309.84882L460.60226 315.88132ZM459.71838 312.1911Q459.06653 311.53925 458.7903 310.7548Q458.52515 309.95932 458.71298 309.21906Q458.88974 308.46774 459.4753 307.88217Q460.39236 306.96515 461.5856 307.03143Q462.7899 307.08667 463.85056 308.14734L463.9058 308.20258Q464.55765 308.85446 464.8228 309.62784Q465.08798 310.40125 464.92224 311.1636Q464.74548 311.9149 464.13782 312.52258Q463.23184 313.42856 462.02753 313.3733Q460.82324 313.29596 459.77362 312.24637L459.71838 312.1911ZM460.59122 311.51715Q461.33148 312.25742 462.12698 312.3679Q462.93353 312.46732 463.50806 311.8928Q464.09363 311.30722 463.98312 310.51172Q463.8616 309.7052 463.03296 308.87656Q462.30374 308.14734 461.4972 308.0479Q460.69067 307.92636 460.1051 308.51193Q459.54163 309.0754 459.64105 309.88196Q459.74048 310.6664 460.59122 311.51715ZM467.596 306.8105L465.26477 302.24744L466.0492 301.46298L468.9218 307.56177L468.33624 308.14734L462.2264 305.28577L463.01086 304.5013L467.596 306.8105ZM473.3523 303.30807Q472.43527 304.2251 471.26413 304.203Q470.093 304.1588 469.08755 303.1534L468.955 303.0208Q468.281 302.34686 468.01584 301.57346Q467.73962 300.789 467.90536 300.04877Q468.07108 299.2864 468.6014 298.75607Q469.47424 297.88324 470.5349 297.97165Q471.59558 298.06003 472.6673 299.13174L472.9877 299.45215L469.94934 302.49048Q470.63434 303.13132 471.40775 303.1755Q472.1922 303.20865 472.76672 302.63412Q473.16446 302.23636 473.27496 301.79443Q473.39648 301.34143 473.34125 300.84427L474.1699 300.7448Q474.47925 302.18112 473.3523 303.30807ZM469.2312 299.38586Q468.76715 299.84988 468.78925 300.5128Q468.81134 301.15363 469.35272 301.82758L471.59558 299.58472L471.54034 299.52948Q470.9216 298.97705 470.31393 298.9439Q469.71732 298.89972 469.2312 299.38586ZM471.88284 295.62933L472.40213 296.10443Q472.31372 295.04376 473.1534 294.20407Q474.09256 293.26495 475.1532 293.6406Q475.05377 293.09924 475.20844 292.5468Q475.37418 291.98334 475.86032 291.4972Q477.34082 290.0167 478.92075 291.55243L481.92596 294.55765L481.1636 295.31998L478.2026 292.35898Q477.7275 291.88388 477.27454 291.87283Q476.8105 291.85074 476.2912 292.37003Q475.86032 292.8009 475.82718 293.3423Q475.80508 293.87262 476.19177 294.34772L479.16382 297.31976L478.4015 298.08212L475.46255 295.14322Q474.4903 294.17093 473.52908 295.13217Q472.77777 295.88345 473.14236 296.80048L476.41275 300.07086L475.63934 300.84427L471.15363 296.35855L471.88284 295.62933ZM485.0306 287.07776Q486.0581 288.1053 486.2128 289.21014Q486.3675 290.2929 485.572 291.08838Q484.72125 291.93912 483.64954 291.7955L484.12463 292.35898L483.42856 293.05502L477.0646 286.69107L477.82697 285.9287L480.2024 288.30417Q480.09192 287.2656 480.9095 286.448Q481.72708 285.6304 482.80984 285.7851Q483.88156 285.9287 484.96432 287.01147L485.0306 287.07776ZM484.17987 287.75174Q483.39542 286.9673 482.66623 286.8568Q481.937 286.7242 481.37354 287.2877Q480.61118 288.05005 480.9758 289.07755L482.92032 291.0221Q483.981 291.37564 484.72125 290.6354Q485.27368 290.08298 485.15213 289.3427Q485.0306 288.60248 484.17987 287.75174ZM490.32285 286.33752Q489.40582 287.25455 488.23468 287.23245Q487.06354 287.18826 486.0581 286.18283L485.92554 286.05026Q485.2516 285.37628 484.98642 284.6029Q484.7102 283.81845 484.87592 283.0782Q485.04166 282.31586 485.572 281.78552Q486.44482 280.9127 487.5055 281.00107Q488.56613 281.08945 489.63785 282.16116L489.95825 282.48157L486.9199 285.51993Q487.60492 286.16074 488.37833 286.20493Q489.16275 286.2381 489.73727 285.66354Q490.13504 285.2658 490.2455 284.82388Q490.36707 284.37088 490.3118 283.8737L491.14044 283.77426Q491.4498 285.21057 490.32285 286.33752ZM486.20175 282.41528Q485.7377 282.87933 485.7598 283.54224Q485.7819 284.18304 486.32327 284.85703L488.56613 282.61417L488.5109 282.55893Q487.89218 282.0065 487.28452 281.97336Q486.6879 281.92914 486.20175 282.41528ZM490.98578 277.89642Q490.7869 278.05112 490.588 278.25Q489.82568 279.01233 490.20132 279.9183L493.3833 283.1003L492.62094 283.86264L488.13525 279.37692L488.8755 278.6367L489.40582 279.14493Q489.18484 278.17264 489.88092 277.4766Q490.1019 277.2556 490.27866 277.18933L490.98578 277.89642Z" fill-rule="nonzero"/><path fill="#757575" d="M498.01578 319.10748L491.98328 313.07498L493.6958 311.36246Q494.48026 310.57803 495.43042 310.33496Q496.38058 310.0698 497.35287 310.37915Q498.32513 310.6885 499.16483 311.5282L499.54047 311.90384Q500.40225 312.76562 500.7116 313.7379Q501.03204 314.69913 500.75583 315.66034Q500.49066 316.61053 499.69516 317.42813L498.01578 319.10748ZM493.43063 312.93137L498.15942 317.66013L498.99908 316.82043Q499.91614 315.9034 499.86087 314.83173Q499.80563 313.7379 498.745 312.67725L498.39142 312.3237Q497.36392 311.29617 496.3143 311.21884Q495.26468 311.11942 494.3587 312.0033L493.43063 312.93137ZM505.50668 311.79337Q504.58966 312.7104 503.41852 312.6883Q502.24738 312.6441 501.24194 311.63867L501.10938 311.5061Q500.4354 310.83215 500.17026 310.05875Q499.89404 309.2743 500.05975 308.53403Q500.2255 307.7717 500.75583 307.24136Q501.62866 306.36853 502.6893 306.4569Q503.74997 306.54532 504.8217 307.617L505.1421 307.9374L502.10373 310.97577Q502.78876 311.61658 503.56213 311.66077Q504.3466 311.69394 504.9211 311.11942Q505.31888 310.72165 505.42935 310.27972Q505.55087 309.82672 505.49564 309.32953L506.32428 309.2301Q506.63364 310.6664 505.50668 311.79337ZM501.3856 307.87112Q500.92154 308.33517 500.94363 308.99808Q500.96573 309.6389 501.5071 310.31287L503.74997 308.07L503.69473 308.01477Q503.07602 307.46234 502.46835 307.4292Q501.87173 307.38498 501.3856 307.87112ZM509.05328 306.98724Q509.46207 306.57846 509.52835 306.02603Q509.58362 305.46255 509.2411 305.05374L509.9703 304.32455Q510.3349 304.73334 510.43433 305.341Q510.53378 305.92657 510.3349 306.54532Q510.14706 307.15298 509.68304 307.617Q508.76602 308.53403 507.61697 308.46774Q506.46793 308.37936 505.40726 307.3187L505.27466 307.18613Q504.6228 306.53424 504.3466 305.794Q504.08142 305.0427 504.24716 304.32455Q504.41287 303.5843 505.03162 302.96558Q505.7829 302.21426 506.7331 302.17007Q507.68326 302.1038 508.44562 302.79984L507.7164 303.52905Q507.2413 303.12027 506.66678 303.14236Q506.09225 303.16446 505.66138 303.59534Q505.0758 304.1809 505.17523 304.92117Q505.27466 305.6614 506.07016 306.4569L506.2138 306.60056Q506.98718 307.37393 507.72745 307.4734Q508.4677 307.5728 509.05328 306.98724ZM513.99194 303.30807Q513.07495 304.2251 511.9038 304.203Q510.73267 304.1588 509.72723 303.1534L509.59467 303.0208Q508.9207 302.34686 508.65552 301.57346Q508.3793 300.789 508.54504 300.04877Q508.71075 299.2864 509.2411 298.75607Q510.11392 297.88324 511.1746 297.97165Q512.2352 298.06003 513.30695 299.13174L513.6274 299.45215L510.58902 302.49048Q511.27402 303.13132 512.0474 303.1755Q512.83185 303.20865 513.4064 302.63412Q513.80414 302.23636 513.9146 301.79443Q514.0362 301.34143 513.9809 300.84427L514.8096 300.7448Q515.1189 302.18112 513.99194 303.30807ZM509.87088 299.38583Q509.40683 299.84988 509.42892 300.5128Q509.45102 301.15363 509.9924 301.82758L512.2352 299.58472L512.18 299.52948Q511.56128 298.97705 510.9536 298.9439Q510.357 298.89972 509.87088 299.38583ZM512.5225 295.62933L513.0418 296.10443Q512.9534 295.04376 513.7931 294.20407Q514.73224 293.26495 515.7929 293.6406Q515.6934 293.0992 515.84814 292.5468Q516.01385 291.98334 516.5 291.4972Q517.98047 290.0167 519.5604 291.55243L522.5656 294.55765L521.8033 295.31998L518.8423 292.35898Q518.3672 291.88388 517.9142 291.87283Q517.4502 291.85074 516.9309 292.37003Q516.5 292.8009 516.46686 293.3423Q516.44476 293.87262 516.8314 294.34772L519.8035 297.31976L519.04114 298.08212L516.10223 295.14322Q515.12994 294.17093 514.16876 295.13217Q513.4174 295.88345 513.78204 296.80048L517.0524 300.07086L516.279 300.84427L511.7933 296.35855L512.5225 295.62933ZM525.6703 287.07776Q526.6978 288.1053 526.8525 289.21014Q527.00714 290.2929 526.2117 291.08838Q525.3609 291.93912 524.2892 291.7955L524.7643 292.35898L524.06824 293.05502L517.7043 286.69107L518.4666 285.9287L520.84204 288.30417Q520.73157 287.2656 521.5492 286.448Q522.36676 285.6304 523.4495 285.7851Q524.52124 285.9287 525.604 287.01147L525.6703 287.07776ZM524.8195 287.75174Q524.0351 286.9673 523.3059 286.8568Q522.57666 286.7242 522.01324 287.2877Q521.25085 288.05005 521.6155 289.07755L523.56 291.0221Q524.62067 291.37564 525.3609 290.6354Q525.9133 290.08298 525.7918 289.3427Q525.6703 288.60248 524.8195 287.75174ZM530.9625 286.33752Q530.04553 287.25455 528.8744 287.23245Q527.7032 287.18826 526.6978 286.18283L526.5652 286.05026Q525.89124 285.37628 525.6261 284.6029Q525.34985 283.81845 525.5156 283.0782Q525.68134 282.31586 526.2117 281.78552Q527.0845 280.9127 528.14514 281.00107Q529.2058 281.08945 530.2775 282.16116L530.59796 282.48157L527.5596 285.51993Q528.24457 286.16074 529.018 286.20493Q529.8024 286.23807 530.37695 285.66354Q530.7747 285.2658 530.8852 284.82385Q531.0067 284.37088 530.9515 283.8737L531.78015 283.77426Q532.0895 285.21057 530.9625 286.33752ZM526.84143 282.41528Q526.3774 282.87933 526.3995 283.54224Q526.4216 284.18304 526.96295 284.85703L529.2058 282.61417L529.1506 282.55893Q528.53186 282.0065 527.9242 281.97336Q527.3276 281.92914 526.84143 282.41528ZM531.6254 277.89642Q531.4266 278.05112 531.2277 278.24997Q530.46533 279.01233 530.841 279.9183L534.023 283.10028L533.2606 283.86264L528.7749 279.37692L529.5152 278.6367L530.04553 279.14493Q529.8245 278.17264 530.52057 277.4766Q530.7416 277.2556 530.91833 277.18933L531.6254 277.89642Z" fill-rule="nonzero"/><path fill="#4285f4" d="M238.5 57.416668C238.5 56.864384 238.94771 56.416668 239.5 56.416668L249.5 56.416668C250.05229 56.416668 250.5 56.864384 250.5 57.416668L250.5 67.416664C250.5 67.96895 250.05229 68.416664 249.5 68.416664L239.5 68.416664C238.94771 68.416664 238.5 67.96895 238.5 67.416664Z" fill-rule="nonzero"/><path fill="#757575" d="M259.48438 66.916664L259.48438 58.385414L262.28125 58.385414Q263.67188 58.385414 264.35938 58.96354Q265.0625 59.52604 265.0625 60.65104Q265.0625 61.260414 264.71875 61.729164Q264.39062 62.18229 263.79688 62.43229Q264.5 62.61979 264.89062 63.166664Q265.29688 63.697914 265.29688 64.447914Q265.29688 65.604164 264.54688 66.260414Q263.8125 66.916664 262.45312 66.916664L259.48438 66.916664ZM260.60938 62.93229L260.60938 65.99479L262.46875 65.99479Q263.26562 65.99479 263.71875 65.58854Q264.17188 65.18229 264.17188 64.46354Q264.17188 62.93229 262.48438 62.93229L260.60938 62.93229ZM260.60938 62.02604L262.3125 62.02604Q263.04688 62.02604 263.48438 61.666664Q263.9375 61.291664 263.9375 60.65104Q263.9375 59.947914 263.53125 59.635414Q263.125 59.30729 262.28125 59.30729L260.60938 59.30729L260.60938 62.02604ZM266.03125 63.68229Q266.03125 62.760414 266.39062 62.010414Q266.76562 61.260414 267.42188 60.86979Q268.07812 60.46354 268.90625 60.46354Q270.20312 60.46354 271.0 61.354164Q271.8125 62.24479 271.8125 63.74479L271.8125 63.822914Q271.8125 64.74479 271.45312 65.479164Q271.09375 66.21354 270.4375 66.635414Q269.78125 67.041664 268.92188 67.041664Q267.64062 67.041664 266.82812 66.15104Q266.03125 65.24479 266.03125 63.760414L266.03125 63.68229ZM267.125 63.822914Q267.125 64.86979 267.60938 65.510414Q268.10938 66.15104 268.92188 66.15104Q269.75 66.15104 270.23438 65.510414Q270.71875 64.854164 270.71875 63.68229Q270.71875 62.65104 270.21875 62.010414Q269.73438 61.354164 268.90625 61.354164Q268.10938 61.354164 267.60938 61.99479Q267.125 62.61979 267.125 63.822914ZM273.03125 63.68229Q273.03125 62.760414 273.39062 62.010414Q273.76562 61.260414 274.42188 60.86979Q275.07812 60.46354 275.90625 60.46354Q277.20312 60.46354 278.0 61.354164Q278.8125 62.24479 278.8125 63.74479L278.8125 63.822914Q278.8125 64.74479 278.45312 65.479164Q278.09375 66.21354 277.4375 66.635414Q276.78125 67.041664 275.92188 67.041664Q274.64062 67.041664 273.82812 66.15104Q273.03125 65.24479 273.03125 63.760414L273.03125 63.68229ZM274.125 63.822914Q274.125 64.86979 274.60938 65.510414Q275.10938 66.15104 275.92188 66.15104Q276.75 66.15104 277.23438 65.510414Q277.71875 64.854164 277.71875 63.68229Q277.71875 62.65104 277.21875 62.010414Q276.73438 61.354164 275.90625 61.354164Q275.10938 61.354164 274.60938 61.99479Q274.125 62.61979 274.125 63.822914ZM282.09375 63.979164L281.40625 64.68229L281.40625 66.916664L280.32812 66.916664L280.32812 57.916664L281.40625 57.916664L281.40625 63.354164L281.98438 62.666664L283.96875 60.572914L285.28125 60.572914L282.8125 63.229164L285.57812 66.916664L284.29688 66.916664L282.09375 63.979164ZM290.01562 65.229164Q290.01562 64.791664 289.67188 64.55729Q289.34375 64.30729 288.51562 64.135414Q287.70312 63.96354 287.21875 63.71354Q286.73438 63.46354 286.5 63.135414Q286.28125 62.791664 286.28125 62.322914Q286.28125 61.541664 286.9375 61.010414Q287.59375 60.46354 288.625 60.46354Q289.70312 60.46354 290.35938 61.02604Q291.03125 61.572914 291.03125 62.43229L289.95312 62.43229Q289.95312 61.99479 289.5625 61.68229Q289.1875 61.354164 288.625 61.354164Q288.03125 61.354164 287.6875 61.61979Q287.35938 61.86979 287.35938 62.27604Q287.35938 62.666664 287.67188 62.86979Q287.98438 63.072914 288.79688 63.260414Q289.60938 63.43229 290.10938 63.68229Q290.60938 63.93229 290.84375 64.291664Q291.09375 64.65104 291.09375 65.15104Q291.09375 66.010414 290.40625 66.52604Q289.73438 67.041664 288.65625 67.041664Q287.89062 67.041664 287.29688 66.77604Q286.71875 66.49479 286.39062 66.010414Q286.0625 65.52604 286.0625 64.96354L287.14062 64.96354Q287.17188 65.510414 287.57812 65.83854Q287.98438 66.15104 288.65625 66.15104Q289.26562 66.15104 289.64062 65.90104Q290.01562 65.65104 290.01562 65.229164Z" fill-rule="nonzero"/><path fill="#db4437" d="M307.5 57.416668C307.5 56.864384 307.94772 56.416668 308.5 56.416668L318.5 56.416668C319.05228 56.416668 319.5 56.864384 319.5 57.416668L319.5 67.416664C319.5 67.96895 319.05228 68.416664 318.5 68.416664L308.5 68.416664C307.94772 68.416664 307.5 67.96895 307.5 67.416664Z" fill-rule="nonzero"/><path fill="#757575" d="M329.60938 63.572914L329.60938 66.916664L328.48438 66.916664L328.48438 58.385414L331.64062 58.385414Q333.03125 58.385414 333.82812 59.104164Q334.625 59.80729 334.625 60.99479Q334.625 62.229164 333.84375 62.90104Q333.07812 63.572914 331.625 63.572914L329.60938 63.572914ZM329.60938 62.65104L331.64062 62.65104Q332.54688 62.65104 333.01562 62.229164Q333.5 61.80729 333.5 61.010414Q333.5 60.24479 333.01562 59.791664Q332.54688 59.322914 331.70312 59.30729L329.60938 59.30729L329.60938 62.65104ZM340.23438 66.916664Q340.14062 66.729164 340.07812 66.24479Q339.32812 67.041664 338.28125 67.041664Q337.34375 67.041664 336.73438 66.510414Q336.14062 65.979164 336.14062 65.15104Q336.14062 64.166664 336.89062 63.61979Q337.64062 63.072914 339.01562 63.072914L340.0625 63.072914L340.0625 62.572914Q340.0625 62.010414 339.71875 61.68229Q339.39062 61.33854 338.71875 61.33854Q338.14062 61.33854 337.75 61.635414Q337.35938 61.916664 337.35938 62.33854L336.26562 62.33854Q336.26562 61.854164 336.59375 61.416664Q336.9375 60.979164 337.51562 60.729164Q338.09375 60.46354 338.78125 60.46354Q339.89062 60.46354 340.5 61.010414Q341.125 61.55729 341.15625 62.510414L341.15625 65.43229Q341.15625 66.30729 341.375 66.822914L341.375 66.916664L340.23438 66.916664ZM338.4375 66.08854Q338.95312 66.08854 339.40625 65.822914Q339.85938 65.55729 340.0625 65.135414L340.0625 63.83854L339.21875 63.83854Q337.21875 63.83854 337.21875 65.010414Q337.21875 65.510414 337.5625 65.80729Q337.90625 66.08854 338.4375 66.08854ZM343.0625 63.697914Q343.0625 62.21354 343.75 61.33854Q344.4375 60.46354 345.5625 60.46354Q346.71875 60.46354 347.375 61.27604L347.42188 60.572914L348.42188 60.572914L348.42188 66.760414Q348.42188 67.99479 347.6875 68.697914Q346.95312 69.416664 345.73438 69.416664Q345.04688 69.416664 344.39062 69.11979Q343.73438 68.822914 343.39062 68.322914L343.95312 67.666664Q344.64062 68.52604 345.65625 68.52604Q346.4375 68.52604 346.875 68.072914Q347.32812 67.635414 347.32812 66.822914L347.32812 66.27604Q346.67188 67.041664 345.54688 67.041664Q344.4375 67.041664 343.75 66.15104Q343.0625 65.24479 343.0625 63.697914ZM344.15625 63.822914Q344.15625 64.885414 344.59375 65.510414Q345.03125 66.11979 345.82812 66.11979Q346.84375 66.11979 347.32812 65.18229L347.32812 62.291664Q346.82812 61.385414 345.82812 61.385414Q345.04688 61.385414 344.59375 61.99479Q344.15625 62.604164 344.15625 63.822914ZM352.95312 67.041664Q351.65625 67.041664 350.84375 66.197914Q350.04688 65.33854 350.04688 63.916664L350.04688 63.729164Q350.04688 62.77604 350.40625 62.041664Q350.76562 61.291664 351.40625 60.885414Q352.0625 60.46354 352.8125 60.46354Q354.04688 60.46354 354.73438 61.27604Q355.42188 62.08854 355.42188 63.604164L355.42188 64.05729L351.125 64.05729Q351.15625 64.99479 351.67188 65.572914Q352.20312 66.15104 353.01562 66.15104Q353.57812 66.15104 353.96875 65.916664Q354.375 65.68229 354.6875 65.291664L355.34375 65.80729Q354.54688 67.041664 352.95312 67.041664ZM352.8125 61.354164Q352.15625 61.354164 351.70312 61.83854Q351.26562 62.30729 351.17188 63.166664L354.34375 63.166664L354.34375 63.08854Q354.29688 62.260414 353.89062 61.80729Q353.5 61.354164 352.8125 61.354164ZM360.01562 65.229164Q360.01562 64.791664 359.67188 64.55729Q359.34375 64.30729 358.51562 64.135414Q357.70312 63.96354 357.21875 63.71354Q356.73438 63.46354 356.5 63.135414Q356.28125 62.791664 356.28125 62.322914Q356.28125 61.541664 356.9375 61.010414Q357.59375 60.46354 358.625 60.46354Q359.70312 60.46354 360.35938 61.02604Q361.03125 61.572914 361.03125 62.43229L359.95312 62.43229Q359.95312 61.99479 359.5625 61.68229Q359.1875 61.354164 358.625 61.354164Q358.03125 61.354164 357.6875 61.61979Q357.35938 61.86979 357.35938 62.27604Q357.35938 62.666664 357.67188 62.86979Q357.98438 63.072914 358.79688 63.260414Q359.60938 63.43229 360.10938 63.68229Q360.60938 63.93229 360.84375 64.291664Q361.09375 64.65104 361.09375 65.15104Q361.09375 66.010414 360.40625 66.52604Q359.73438 67.041664 358.65625 67.041664Q357.89062 67.041664 357.29688 66.77604Q356.71875 66.49479 356.39062 66.010414Q356.0625 65.52604 356.0625 64.96354L357.14062 64.96354Q357.17188 65.510414 357.57812 65.83854Q357.98438 66.15104 358.65625 66.15104Q359.26562 66.15104 359.64062 65.90104Q360.01562 65.65104 360.01562 65.229164Z" fill-rule="nonzero"/><path fill="#757575" d="M20.20625 37.55L20.20625 23.33125L24.846874 23.33125Q27.159374 23.33125 28.33125 24.284374Q29.503124 25.2375 29.503124 27.1125Q29.503124 28.1125 28.925 28.878124Q28.3625 29.64375 27.39375 30.065624Q28.534374 30.39375 29.20625 31.3Q29.878124 32.190624 29.878124 33.440624Q29.878124 35.3625 28.628124 36.45625Q27.39375 37.55 25.128124 37.55L20.20625 37.55ZM22.08125 30.89375L22.08125 36.01875L25.175 36.01875Q26.4875 36.01875 27.2375 35.346874Q27.9875 34.659374 27.9875 33.471874Q27.9875 30.89375 25.20625 30.89375L22.08125 30.89375ZM22.08125 29.39375L24.909374 29.39375Q26.14375 29.39375 26.878124 28.784374Q27.6125 28.159374 27.6125 27.1125Q27.6125 25.940624 26.925 25.409374Q26.253124 24.878124 24.846874 24.878124L22.08125 24.878124L22.08125 29.39375ZM31.440624 32.175Q31.440624 30.6125 32.05 29.378124Q32.659374 28.128124 33.7375 27.45625Q34.83125 26.784374 36.2375 26.784374Q38.39375 26.784374 39.721874 28.284374Q41.065624 29.76875 41.065624 32.253124L41.065624 32.378124Q41.065624 33.925 40.471874 35.159374Q39.878124 36.378124 38.76875 37.065624Q37.675 37.753124 36.253124 37.753124Q34.1125 37.753124 32.76875 36.253124Q31.440624 34.753124 31.440624 32.3L31.440624 32.175ZM33.253124 32.378124Q33.253124 34.14375 34.065624 35.20625Q34.89375 36.26875 36.253124 36.26875Q37.628124 36.26875 38.440624 35.190624Q39.253124 34.1125 39.253124 32.175Q39.253124 30.425 38.425 29.346874Q37.596874 28.26875 36.2375 28.26875Q34.89375 28.26875 34.065624 29.33125Q33.253124 30.39375 33.253124 32.378124ZM42.440624 32.175Q42.440624 30.6125 43.05 29.378124Q43.659374 28.128124 44.7375 27.45625Q45.83125 26.784374 47.2375 26.784374Q49.39375 26.784374 50.721874 28.284374Q52.065624 29.76875 52.065624 32.253124L52.065624 32.378124Q52.065624 33.925 51.471874 35.159374Q50.878124 36.378124 49.76875 37.065624Q48.675 37.753124 47.253124 37.753124Q45.1125 37.753124 43.76875 36.253124Q42.440624 34.753124 42.440624 32.3L42.440624 32.175ZM44.253124 32.378124Q44.253124 34.14375 45.065624 35.20625Q45.89375 36.26875 47.253124 36.26875Q48.628124 36.26875 49.440624 35.190624Q50.253124 34.1125 50.253124 32.175Q50.253124 30.425 49.425 29.346874Q48.596874 28.26875 47.2375 28.26875Q45.89375 28.26875 45.065624 29.33125Q44.253124 30.39375 44.253124 32.378124ZM56.8625 32.659374L55.7375 33.83125L55.7375 37.55L53.925 37.55L53.925 22.55L55.7375 22.55L55.7375 31.628124L56.70625 30.45625L59.9875 26.9875L62.190624 26.9875L58.08125 31.39375L62.675 37.55L60.55 37.55L56.8625 32.659374ZM70.06563 34.753124Q70.06563 34.01875 69.51875 33.6125Q68.97188 33.20625 67.59688 32.909374Q66.22188 32.6125 65.40938 32.20625Q64.6125 31.8 64.22188 31.2375Q63.846874 30.659374 63.846874 29.878124Q63.846874 28.58125 64.94063 27.690624Q66.03438 26.784374 67.75313 26.784374Q69.55 26.784374 70.65938 27.721874Q71.78438 28.64375 71.78438 30.08125L69.95625 30.08125Q69.95625 29.346874 69.33125 28.815624Q68.70625 28.26875 67.75313 28.26875Q66.75313 28.26875 66.19063 28.70625Q65.64375 29.128124 65.64375 29.83125Q65.64375 30.471874 66.15938 30.815624Q66.675 31.14375 68.03438 31.45625Q69.39375 31.753124 70.22188 32.175Q71.06563 32.58125 71.47188 33.175Q71.87813 33.76875 71.87813 34.6125Q71.87813 36.034374 70.7375 36.89375Q69.6125 37.753124 67.8 37.753124Q66.53438 37.753124 65.55 37.3Q64.58125 36.846874 64.01875 36.05Q63.471874 35.2375 63.471874 34.3L65.28438 34.3Q65.33125 35.20625 66.00313 35.7375Q66.69063 36.26875 67.8 36.26875Q68.83125 36.26875 69.44063 35.8625Q70.06563 35.440624 70.06563 34.753124ZM85.44063 37.55Q85.28438 37.2375 85.19063 36.440624Q83.925 37.753124 82.175 37.753124Q80.6125 37.753124 79.6125 36.8625Q78.6125 35.971874 78.6125 34.6125Q78.6125 32.971874 79.8625 32.065624Q81.12813 31.14375 83.39375 31.14375L85.15938 31.14375L85.15938 30.315624Q85.15938 29.3625 84.58125 28.8Q84.01875 28.2375 82.925 28.2375Q81.95625 28.2375 81.3 28.7375Q80.64375 29.221874 80.64375 29.909374L78.83125 29.909374Q78.83125 29.128124 79.39375 28.39375Q79.95625 27.64375 80.90938 27.221874Q81.87813 26.784374 83.03438 26.784374Q84.8625 26.784374 85.89375 27.70625Q86.925 28.6125 86.97188 30.221874L86.97188 35.08125Q86.97188 36.534374 87.33125 37.39375L87.33125 37.55L85.44063 37.55ZM82.44063 36.175Q83.3 36.175 84.05 35.7375Q84.81563 35.3 85.15938 34.596874L85.15938 32.425L83.7375 32.425Q80.425 32.425 80.425 34.3625Q80.425 35.221874 80.9875 35.70625Q81.55 36.175 82.44063 36.175ZM91.62813 26.9875L91.69063 28.315624Q92.89375 26.784374 94.84688 26.784374Q98.20625 26.784374 98.22188 30.565624L98.22188 37.55L96.425 37.55L96.425 30.55Q96.40938 29.409374 95.89375 28.8625Q95.39375 28.315624 94.3 28.315624Q93.425 28.315624 92.75313 28.784374Q92.09688 29.253124 91.72188 30.01875L91.72188 37.55L89.925 37.55L89.925 26.9875L91.62813 26.9875ZM100.47188 32.175Q100.47188 29.753124 101.62813 28.26875Q102.78438 26.784374 104.64375 26.784374Q106.50313 26.784374 107.58125 28.05L107.58125 22.55L109.39375 22.55L109.39375 37.55L107.7375 37.55L107.64375 36.409374Q106.56563 37.753124 104.62813 37.753124Q102.8 37.753124 101.62813 36.253124Q100.47188 34.7375 100.47188 32.315624L100.47188 32.175ZM102.28438 32.378124Q102.28438 34.175 103.01875 35.190624Q103.76875 36.20625 105.08125 36.20625Q106.8 36.20625 107.58125 34.675L107.58125 29.815624Q106.78438 28.315624 105.09688 28.315624Q103.76875 28.315624 103.01875 29.346874Q102.28438 30.378124 102.28438 32.378124ZM119.08125 31.9875L119.08125 37.55L117.20625 37.55L117.20625 23.33125L122.44063 23.33125Q124.78438 23.33125 126.09688 24.51875Q127.425 25.70625 127.425 27.675Q127.425 29.753124 126.12813 30.878124Q124.83125 31.9875 122.425 31.9875L119.08125 31.9875ZM119.08125 30.45625L122.44063 30.45625Q123.95625 30.45625 124.75313 29.753124Q125.55 29.034374 125.55 27.690624Q125.55 26.425 124.75313 25.675Q123.95625 24.909374 122.55 24.878124L119.08125 24.878124L119.08125 30.45625ZM136.44063 37.55Q136.28438 37.2375 136.19063 36.440624Q134.925 37.753124 133.175 37.753124Q131.6125 37.753124 130.6125 36.8625Q129.6125 35.971874 129.6125 34.6125Q129.6125 32.971874 130.8625 32.065624Q132.12813 31.14375 134.39375 31.14375L136.15938 31.14375L136.15938 30.315624Q136.15938 29.3625 135.58125 28.8Q135.01875 28.2375 133.925 28.2375Q132.95625 28.2375 132.3 28.7375Q131.64375 29.221874 131.64375 29.909374L129.83125 29.909374Q129.83125 29.128124 130.39375 28.39375Q130.95625 27.64375 131.90938 27.221874Q132.87813 26.784374 134.03438 26.784374Q135.8625 26.784374 136.89375 27.70625Q137.925 28.6125 137.97188 30.221874L137.97188 35.08125Q137.97188 36.534374 138.33125 37.39375L138.33125 37.55L136.44063 37.55ZM133.44063 36.175Q134.3 36.175 135.05 35.7375Q135.81563 35.3 136.15938 34.596874L136.15938 32.425L134.7375 32.425Q131.425 32.425 131.425 34.3625Q131.425 35.221874 131.9875 35.70625Q132.55 36.175 133.44063 36.175ZM140.4875 32.175Q140.4875 29.70625 141.62813 28.253124Q142.76875 26.784374 144.65938 26.784374Q146.59688 26.784374 147.675 28.159374L147.76875 26.9875L149.40938 26.9875L149.40938 37.3Q149.40938 39.346874 148.19063 40.51875Q146.9875 41.70625 144.925 41.70625Q143.78438 41.70625 142.69063 41.221874Q141.59688 40.7375 141.01875 39.878124L141.95625 38.8Q143.12813 40.2375 144.8 40.2375Q146.12813 40.2375 146.8625 39.4875Q147.59688 38.753124 147.59688 37.409374L147.59688 36.4875Q146.51875 37.753124 144.64375 37.753124Q142.78438 37.753124 141.62813 36.253124Q140.4875 34.753124 140.4875 32.175ZM142.3 32.378124Q142.3 34.175 143.03438 35.190624Q143.76875 36.20625 145.08125 36.20625Q146.8 36.20625 147.59688 34.659374L147.59688 29.83125Q146.76875 28.315624 145.1125 28.315624Q143.78438 28.315624 143.03438 29.346874Q142.3 30.378124 142.3 32.378124ZM156.3 37.753124Q154.15938 37.753124 152.8 36.346874Q151.45625 34.925 151.45625 32.565624L151.45625 32.221874Q151.45625 30.659374 152.05 29.425Q152.65938 28.190624 153.7375 27.4875Q154.81563 26.784374 156.08125 26.784374Q158.14375 26.784374 159.28438 28.14375Q160.425 29.503124 160.425 32.034374L160.425 32.784374L153.26875 32.784374Q153.3 34.346874 154.175 35.315624Q155.05 36.26875 156.39375 36.26875Q157.3625 36.26875 158.01875 35.878124Q158.69063 35.4875 159.19063 34.846874L160.28438 35.70625Q158.95625 37.753124 156.3 37.753124ZM156.08125 28.26875Q154.9875 28.26875 154.2375 29.065624Q153.50313 29.8625 153.33125 31.3L158.6125 31.3L158.6125 31.159374Q158.53438 29.784374 157.8625 29.034374Q157.20625 28.26875 156.08125 28.26875ZM169.06563 34.753124Q169.06563 34.01875 168.51875 33.6125Q167.97188 33.20625 166.59688 32.909374Q165.22188 32.6125 164.40938 32.20625Q163.6125 31.8 163.22188 31.2375Q162.84688 30.659374 162.84688 29.878124Q162.84688 28.58125 163.94063 27.690624Q165.03438 26.784374 166.75313 26.784374Q168.55 26.784374 169.65938 27.721874Q170.78438 28.64375 170.78438 30.08125L168.95625 30.08125Q168.95625 29.346874 168.33125 28.815624Q167.70625 28.26875 166.75313 28.26875Q165.75313 28.26875 165.19063 28.70625Q164.64375 29.128124 164.64375 29.83125Q164.64375 30.471874 165.15938 30.815624Q165.675 31.14375 167.03438 31.45625Q168.39375 31.753124 169.22188 32.175Q170.06563 32.58125 170.47188 33.175Q170.87813 33.76875 170.87813 34.6125Q170.87813 36.034374 169.7375 36.89375Q168.6125 37.753124 166.8 37.753124Q165.53438 37.753124 164.55 37.3Q163.58125 36.846874 163.01875 36.05Q162.47188 35.2375 162.47188 34.3L164.28438 34.3Q164.33125 35.20625 165.00313 35.7375Q165.69063 36.26875 166.8 36.26875Q167.83125 36.26875 168.44063 35.8625Q169.06563 35.440624 169.06563 34.753124Z" fill-rule="nonzero"/></svg>