<svg fill="none" height="371" stroke-linecap="square" stroke-miterlimit="10" viewBox="0 0 600 371" width="600" xmlns="http://www.w3.org/2000/svg" xmlns:xlink="http://www.w3.org/1999/xlink"><clipPath id="a"><path d="m95.55 56.916668h415.9v191.086112h-415.9z"/></clipPath><path d="m0 0h600v371h-600z" fill="#fff"/><path d="m95.5 248.5h416" stroke="#333" stroke-linecap="butt"/><path d="m95.5 184.5h416" stroke="#ccc" stroke-linecap="butt"/><path d="m95.5 120.5h416" stroke="#ccc" stroke-linecap="butt"/><path d="m95.5 56.5h416" stroke="#ccc" stroke-linecap="butt"/><path clip-path="url(#a)" d="m117 248h-9v-94c0-1.10457.89543-2 2-2h5c1.10457 0 2 .89543 2 2z"/><path clip-path="url(#a)" d="m117 248h-9v-94c0-1.10457.89543-2 2-2h5c1.10457 0 2 .89543 2 2z" fill="#4285f4"/><path clip-path="url(#a)" d="m151 248h-9v-30c0-1.10457.89543-2 2-2h5c1.10457 0 2 .89543 2 2z"/><path clip-path="url(#a)" d="m151 248h-9v-30c0-1.10457.89543-2 2-2h5c1.10457 0 2 .89543 2 2z" fill="#4285f4"/><path clip-path="url(#a)" d="m185 248h-9v-125c0-1.10457.89543-2 2-2h5c1.10457 0 2 .89543 2 2z"/><path clip-path="url(#a)" d="m185 248h-9v-125c0-1.10457.89543-2 2-2h5c1.10457 0 2 .89543 2 2z" fill="#4285f4"/><path clip-path="url(#a)" d="m218 248h-9v-62c0-1.10457.89543-2 2-2h5c1.10457 0 2 .89543 2 2z"/><path clip-path="url(#a)" d="m218 248h-9v-62c0-1.10457.89543-2 2-2h5c1.10457 0 2 .89543 2 2z" fill="#4285f4"/><path clip-path="url(#a)" d="m252 248h-9v-189c0-1.10457.89543-2 2-2h5c1.10457 0 2 .89543 2 2z"/><path clip-path="url(#a)" d="m252 248h-9v-189c0-1.10457.89543-2 2-2h5c1.10457 0 2 .89543 2 2z" fill="#4285f4"/><path clip-path="url(#a)" d="m286 248h-9v-125c0-1.10457.89542-2 2-2h5c1.10458 0 2 .89543 2 2z"/><path clip-path="url(#a)" d="m286 248h-9v-125c0-1.10457.89542-2 2-2h5c1.10458 0 2 .89543 2 2z" fill="#4285f4"/><path clip-path="url(#a)" d="m319 248h-9v-62c0-1.10457.89542-2 2-2h5c1.10458 0 2 .89543 2 2z"/><path clip-path="url(#a)" d="m319 248h-9v-62c0-1.10457.89542-2 2-2h5c1.10458 0 2 .89543 2 2z" fill="#4285f4"/><path clip-path="url(#a)" d="m353 248h-9v-94c0-1.10457.89542-2 2-2h5c1.10458 0 2 .89543 2 2z"/><path clip-path="url(#a)" d="m353 248h-9v-94c0-1.10457.89542-2 2-2h5c1.10458 0 2 .89543 2 2z" fill="#4285f4"/><path clip-path="url(#a)" d="m387 248h-9v-94c0-1.10457.89542-2 2-2h5c1.10458 0 2 .89543 2 2z"/><path clip-path="url(#a)" d="m387 248h-9v-94c0-1.10457.89542-2 2-2h5c1.10458 0 2 .89543 2 2z" fill="#4285f4"/><path clip-path="url(#a)" d="m420 248h-9v-94c0-1.10457.89542-2 2-2h5c1.10458 0 2 .89543 2 2z"/><path clip-path="url(#a)" d="m420 248h-9v-94c0-1.10457.89542-2 2-2h5c1.10458 0 2 .89543 2 2z" fill="#4285f4"/><path clip-path="url(#a)" d="m454 248h-9v-62c0-1.10457.89542-2 2-2h5c1.10458 0 2 .89543 2 2z"/><path clip-path="url(#a)" d="m454 248h-9v-62c0-1.10457.89542-2 2-2h5c1.10458 0 2 .89543 2 2z" fill="#4285f4"/><path clip-path="url(#a)" d="m488 248h-9v-125c0-1.10457.89542-2 2-2h5c1.10458 0 2 .89543 2 2z"/><path clip-path="url(#a)" d="m488 248h-9v-125c0-1.10457.89542-2 2-2h5c1.10458 0 2 .89543 2 2z" fill="#4285f4"/><path clip-path="url(#a)" d="m128 248h-9v-82c0-1.10457.89543-2 2-2h5c1.10457 0 2 .89543 2 2z"/><path clip-path="url(#a)" d="m128 248h-9v-82c0-1.10457.89543-2 2-2h5c1.10457 0 2 .89543 2 2z" fill="#ea4335"/><path clip-path="url(#a)" d="m162 248h-9v-21c0-1.10457.89543-2 2-2h5c1.10457 0 2 .89543 2 2z"/><path clip-path="url(#a)" d="m162 248h-9v-21c0-1.10457.89543-2 2-2h5c1.10457 0 2 .89543 2 2z" fill="#ea4335"/><path clip-path="url(#a)" d="m196 248h-9v-62c0-1.10457.89543-2 2-2h5c1.10457 0 2 .89543 2 2z"/><path clip-path="url(#a)" d="m196 248h-9v-62c0-1.10457.89543-2 2-2h5c1.10457 0 2 .89543 2 2z" fill="#ea4335"/><path clip-path="url(#a)" d="m229 248h-9v-44c0-1.10457.89543-2 2-2h5c1.10457 0 2 .89543 2 2z"/><path clip-path="url(#a)" d="m229 248h-9v-44c0-1.10457.89543-2 2-2h5c1.10457 0 2 .89543 2 2z" fill="#ea4335"/><path clip-path="url(#a)" d="m263 248h-9v-163c0-1.10457.89543-2 2-2h5c1.10458 0 2 .89543 2 2z"/><path clip-path="url(#a)" d="m263 248h-9v-163c0-1.10457.89543-2 2-2h5c1.10458 0 2 .89543 2 2z" fill="#ea4335"/><path clip-path="url(#a)" d="m297 248h-9v-49c0-1.10457.89542-2 2-2h5c1.10458 0 2 .89543 2 2z"/><path clip-path="url(#a)" d="m297 248h-9v-49c0-1.10457.89542-2 2-2h5c1.10458 0 2 .89543 2 2z" fill="#ea4335"/><path clip-path="url(#a)" d="m330 248h-9v-40c0-1.10457.89542-2 2-2h5c1.10458 0 2 .89543 2 2z"/><path clip-path="url(#a)" d="m330 248h-9v-40c0-1.10457.89542-2 2-2h5c1.10458 0 2 .89543 2 2z" fill="#ea4335"/><path clip-path="url(#a)" d="m364 248h-9v-50c0-1.10457.89542-2 2-2h5c1.10458 0 2 .89543 2 2z"/><path clip-path="url(#a)" d="m364 248h-9v-50c0-1.10457.89542-2 2-2h5c1.10458 0 2 .89543 2 2z" fill="#ea4335"/><path clip-path="url(#a)" d="m398 248h-9v-78c0-1.10457.89542-2 2-2h5c1.10458 0 2 .89543 2 2z"/><path clip-path="url(#a)" d="m398 248h-9v-78c0-1.10457.89542-2 2-2h5c1.10458 0 2 .89543 2 2z" fill="#ea4335"/><path clip-path="url(#a)" d="m431 248h-9v-69c0-1.10457.89542-2 2-2h5c1.10458 0 2 .89543 2 2z"/><path clip-path="url(#a)" d="m431 248h-9v-69c0-1.10457.89542-2 2-2h5c1.10458 0 2 .89543 2 2z" fill="#ea4335"/><path clip-path="url(#a)" d="m465 248h-9v-43c0-1.10457.89542-2 2-2h5c1.10458 0 2 .89543 2 2z"/><path clip-path="url(#a)" d="m465 248h-9v-43c0-1.10457.89542-2 2-2h5c1.10458 0 2 .89543 2 2z" fill="#ea4335"/><path clip-path="url(#a)" d="m499 248h-9v-99c0-1.10457.89542-2 2-2h5c1.10458 0 2 .89543 2 2z"/><path clip-path="url(#a)" d="m499 248h-9v-99c0-1.10457.89542-2 2-2h5c1.10458 0 2 .89543 2 2z" fill="#ea4335"/><g fill="#000"><path d="m283.6875 348.45v-11.4531h2.28125l2.71875 8.10936q.375 1.125.54688 1.6875.1875-.625.60937-1.82812l2.73437-7.96874h2.04688v11.4531h-1.46875v-9.59374l-3.32813 9.59374h-1.35937l-3.3125-9.75v9.75zm12.34375-4.15624q0-2.29686 1.28125-3.40626 1.07812-.92186 2.60938-.92186 1.71874 0 2.79687 1.125 1.09375 1.10936 1.09375 3.09376 0 1.59374-.48438 2.5156-.48437.9219-1.40624 1.4375-.90626.5-2 .5-1.73438 0-2.8125-1.10936-1.07813-1.125-1.07813-3.23438zm1.45313 0q0 1.59374.6875 2.39064.70312.79686 1.75.79686 1.04687 0 1.73437-.79686.70313-.7969.70313-2.4375 0-1.53126-.70313-2.32814-.6875-.79686-1.73437-.79686-1.04688 0-1.75.79686-.6875.78124-.6875 2.375zm8.07812 4.15624v-8.29686h1.26562v1.17186q.90626-1.35936 2.64063-1.35936.75 0 1.375.26562.625.26564.9375.70314.3125.4375.4375 1.04686.07813.39064.07813 1.35938v5.10936h-1.40626v-5.04686q0-.85938-.17187-1.28124-.15625-.4375-.57813-.6875-.40624-.25-.96874-.25-.90626 0-1.5625.5781-.64063.5625-.64063 2.15626v4.53124zm11.0625-1.2656.20312 1.25q-.59374.125-1.0625.125-.76562 0-1.1875-.2344-.42187-.25-.59374-.6406-.17188-.40626-.17188-1.6719v-4.7656h-1.03125v-1.09376h1.03125v-2.0625l1.40625-.84374v2.90624h1.40625v1.09376h-1.40625v4.84374q0 .60936.0625.78126.07813.17186.25.28124.17187.09376.48437.09376.23438 0 .60938-.0625zm.9375 1.2656v-11.4531h1.40625v4.10936q.98437-1.14062 2.48437-1.14062.92188 0 1.59376.35936.6875.3594.96874 1 .29688.64064.29688 1.8594v5.2656h-1.40625v-5.2656q0-1.0469-.45313-1.53126-.45312-.48438-1.29687-.48438-.625 0-1.17187.32814-.54688.3281-.78126.8906-.23437.5469-.23437 1.51564v4.54686z"/><path d="m33.55001 201.44896h-11.453122v-4.32813q0-1.14062.109375-1.73437.140625-.84375.53125-1.40625.390625-.57813 1.109375-.92188.703125-.35937 1.5625-.35937 1.453125 0 2.46875.9375 1.015625.92187 1.015625 3.35937v2.9375h4.656247zm-6.015622-1.51563v-2.96875q0-1.46875-.546875-2.07812-.546875-.625-1.53125-.625-.71875 0-1.234375.375-.515625.35937-.671875.95312-.109375.375-.109375 1.40625v2.9375zm4.984372-14.71875q.671876.78125.953126 1.5.265624.71875.265624 1.54688 0 1.375-.671874 2.10937-.671876.73438-1.703123.73438-.609375 0-1.109375-.28125-.515625-.28125-.8125-.71875-.3125-.45313-.46875-1.01563-.109375-.42187-.203125-1.25-.203125-1.70312-.484375-2.51562-.296875 0-.375 0-.859375 0-1.203125.39062-.484375.54688-.484375 1.60938 0 .98437.359375 1.46875.34375.46875 1.21875.6875l-.1875 1.375q-.875-.1875-1.421875-.60938-.546875-.4375-.828125-1.25-.296875-.8125-.296875-1.875 0-1.0625.25-1.71875.25-.67187.625-.98437.375-.3125.953125-.4375.359375-.07813 1.296875-.07813h1.875q1.968748 0 2.484372-.07812.515626-.09375 1-.35938v1.46875q-.4375.21875-1.03125.28125zm-3.140622.10938q.3125.76562.53125 2.29687.125.875.28125 1.23438.15625.35937.46875.5625.296875.1875.65625.1875.5625 0 .937498-.42188.375-.4375.375-1.25 0-.8125-.34375-1.4375-.359373-.64062-.984373-.9375-.46875-.23437-1.40625-.23437zm4.859372-3.4375.203126-1.375q.640624-.07813.921874-.46875.390626-.53125.390626-1.4375 0-.96875-.390626-1.5-.390624-.53125-1.09375-.71875-.421874-.10938-1.8125-.10938 1.09375.92188 1.09375 2.29688 0 1.71875-1.234374 2.65625-1.234373.9375-2.968748.9375-1.1875 0-2.1875-.42188-1-.4375-1.546875-1.25-.546875-.82812-.546875-1.92187 0-1.46875 1.1875-2.42188h-1v-1.29687h7.171872q1.9375 0 2.75.39062.8125.39063 1.28125 1.25.46875.85938.46875 2.10938 0 1.48437-.671874 2.40625-.671876.90625-2.015626.875zm-4.984372-1.17188q1.625 0 2.375-.64062.749998-.65625.749998-1.625 0-.96875-.734373-1.625-.75-.65625-2.34375-.65625-1.53125 0-2.296875.67187-.78125.67188-.78125 1.625 0 .9375.765625 1.59375.765625.65625 2.265625.65625zm1.625-13.76562.171875-1.45313q1.281247.34375 1.984373 1.28125.703124.92188.703124 2.35938 0 1.82812-1.125 2.89062-1.124997 1.0625-3.140622 1.0625-2.09375 0-3.25-1.07812-1.15625-1.07813-1.15625-2.79688 0-1.65625 1.140625-2.70312 1.125-1.0625 3.171875-1.0625.125 0 .375 0v6.1875q1.375-.07813 2.109375-.76563.718747-.70312.718747-1.73437 0-.78125-.40625-1.32813-.406247-.54687-1.296872-.85937zm-2.28125 4.60937v-4.625q-1.046875.09375-1.5625.53125-.8125.67188-.8125 1.73438 0 .96875.65625 1.64062.640625.65625 1.71875.71875zm2.46875-7.375-.21875-1.39062q.84375-.10938 1.296872-.64063.4375-.54687.4375-1.5 0-.96875-.390624-1.4375-.406248-.46875-.937498-.46875-.46875 0-.75.40625-.1875.29688-.46875 1.4375-.390625 1.54688-.671875 2.15625-.296875.59375-.796875.90625-.5.29688-1.109375.29688-.5625 0-1.03125-.25-.46875-.25-.78125-.6875-.25-.32813-.40625-.89063-.171875-.57812-.171875-1.21875 0-.98437.28125-1.71875.28125-.73437.765625-1.07812.46875-.35938 1.28125-.5l.1875 1.375q-.640625.09375-1 .54687-.359375.45313-.359375 1.26563 0 .96875.328125 1.39062.3125.40625.734375.40625.28125 0 .5-.17187.21875-.17188.375-.53125.078125-.21875.359375-1.25.390625-1.48438.65625-2.07813.25-.59375.734375-.92187.484375-.34375 1.203125-.34375.703125 0 1.328123.42187.609374.40625.953124 1.1875.34375.76563.34375 1.73438 0 1.625-.671874 2.46875-.671876.84375-1.999998 1.07812z"/><path d="m577.45 201.01144h-11.4531v-4.29687q0-1.3125.34374-2.10937.34376-.79688 1.07812-1.23438.71874-.45312 1.5-.45312.73438 0 1.39064.40624.6406.39063 1.04686 1.1875.29688-1.03124 1.03124-1.59374.7344-.5625 1.7344-.5625.8125 0 1.5.34374.6875.34376 1.0625.84376.375.5.5781 1.25.1875.75.1875 1.84374zm-6.6406-1.51562v-2.48438q0-1-.14064-1.4375-.17186-.57812-.5625-.875-.40626-.29687-1-.29687-.57812 0-1 .28125-.4375.26562-.59376.78125-.17186.5-.17186 1.73437v2.29688zm5.28124 0v-2.85938q0-.73437-.04688-1.03124-.09376-.51563-.3125-.85938-.21876-.35938-.64062-.57812-.42188-.23438-.96874-.23438-.64064 0-1.1094.32812-.46874.32813-.65624.90626-.20312.57812-.20312 1.67187v2.65625zm-2.79688-8.84375q-2.29686 0-3.40626-1.28125-.92186-1.07812-.92186-2.60938 0-1.71874 1.125-2.79687 1.10936-1.09375 3.09376-1.09375 1.59374 0 2.5156.48438.9219.48437 1.4375 1.40624.5.90626.5 2 0 1.73438-1.10936 2.8125-1.125 1.07813-3.23438 1.07813zm0-1.45313q1.59374 0 2.39064-.6875.79686-.70312.79686-1.75 0-1.04687-.79686-1.73437-.7969-.70313-2.4375-.70313-1.53126 0-2.32814.70313-.79686.6875-.79686 1.73437 0 1.04688.79686 1.75.78124.6875 2.375.6875zm0-7.54687q-2.29686 0-3.40626-1.28125-.92186-1.07812-.92186-2.60938 0-1.71874 1.125-2.79687 1.10936-1.09375 3.09376-1.09375 1.59374 0 2.5156.48438.9219.48437 1.4375 1.40624.5.90626.5 2 0 1.73438-1.10936 2.8125-1.125 1.07813-3.23438 1.07813zm0-1.45313q1.59374 0 2.39064-.6875.79686-.70312.79686-1.75 0-1.04687-.79686-1.73437-.7969-.70313-2.4375-.70313-1.53126 0-2.32814.70313-.79686.6875-.79686 1.73437 0 1.04688.79686 1.75.78124.6875 2.375.6875zm4.15624-8.07812h-11.4531v-1.40625h6.53124l-3.375-3.32813v-1.82812l3.07812 3.17188 5.21874-3.48438v1.73438l-4.25 2.73437.95314 1h3.29686zm-2.48436-7.4375-.21874-1.39062q.84374-.10938 1.29686-.64063.4375-.54687.4375-1.5 0-.96875-.39062-1.4375-.40624-.46875-.9375-.46875-.46874 0-.75.40625-.1875.29687-.46874 1.4375-.39064 1.54687-.6719 2.15625-.29686.59375-.79686.90625-.5.29687-1.10938.29687-.5625 0-1.03126-.25-.46874-.25-.78124-.6875-.25-.32812-.40626-.89062-.17186-.57812-.17186-1.21875 0-.98437.28126-1.71875.28124-.73438.7656-1.07812.46876-.35938 1.28126-.5l.1875 1.375q-.64062.09374-1 .54687-.35936.45313-.35936 1.26563 0 .96874.3281 1.39062.3125.40625.7344.40625.28124 0 .5-.17187.21874-.17188.375-.53126.0781-.21874.35936-1.25.39064-1.48437.65624-2.07812.25-.59375.7344-.92188.48436-.34374 1.2031-.34374.70314 0 1.32814.42187.60936.40625.95312 1.1875.34374.76563.34374 1.73437 0 1.625-.67186 2.46876-.67188.84374-2 1.07812z"/><path d="m83.05 247.7684q0-1.53125.3125-2.45312.3125-.9375.92188-1.4375.625-.5 1.5625-.5.6875 0 1.20312.28125.53125.28125.875.8125.34375.51562.53125 1.26562.1875.75.1875 2.03125 0 1.51563-.3125 2.4375-.29687.92188-.92187 1.4375-.60938.5-1.5625.5-1.23438 0-1.95313-.89062-.84375-1.0625-.84375-3.48438zm1.07813 0q0 2.10938.5 2.8125.5.70313 1.21875.70313.73437 0 1.21875-.70313.5-.70312.5-2.8125 0-2.125-.5-2.8125-.48438-.70312-1.23438-.70312-.71875 0-1.15625.60937-.54687.78125-.54687 2.90625z"/><path d="m66.01875 188.3074h-1.04687v-6.71875q-.39063.35938-1.01563.73438-.609376.35937-1.09375.53125v-1.01563q.875-.42187 1.53125-1 .67188-.59375.95313-1.15625h.67187zm3.03125-4.23437q0-1.53125.3125-2.45313.3125-.9375.92188-1.4375.625-.5 1.5625-.5.6875 0 1.20312.28125.53125.28125.875.8125.34375.51563.53125 1.26563.1875.75.1875 2.03125 0 1.51562-.3125 2.4375-.29687.92187-.92187 1.4375-.60938.5-1.5625.5-1.23438 0-1.95313-.89063-.84375-1.0625-.84375-3.48437zm1.07813 0q0 2.10937.5 2.8125.5.70312 1.21875.70312.73437 0 1.21875-.70312.5-.70313.5-2.8125 0-2.125-.5-2.8125-.48438-.70313-1.23438-.70313-.71875 0-1.15625.60938-.54687.78125-.54687 2.90625zm5.92187 0q0-1.53125.3125-2.45313.3125-.9375.92188-1.4375.625-.5 1.5625-.5.6875 0 1.20312.28125.53125.28125.875.8125.34375.51563.53125 1.26563.1875.75.1875 2.03125 0 1.51562-.3125 2.4375-.29687.92187-.92187 1.4375-.60938.5-1.5625.5-1.23438 0-1.95313-.89063-.84375-1.0625-.84375-3.48437zm1.07813 0q0 2.10937.5 2.8125.5.70312 1.21875.70312.73437 0 1.21875-.70312.5-.70313.5-2.8125 0-2.125-.5-2.8125-.48438-.70313-1.23438-.70313-.71875 0-1.15625.60938-.54687.78125-.54687 2.90625zm5.92187 0q0-1.53125.3125-2.45313.3125-.9375.92188-1.4375.625-.5 1.5625-.5.6875 0 1.20312.28125.53125.28125.875.8125.34375.51563.53125 1.26563.1875.75.1875 2.03125 0 1.51562-.3125 2.4375-.29687.92187-.92187 1.4375-.60938.5-1.5625.5-1.23438 0-1.95313-.89063-.84375-1.0625-.84375-3.48437zm1.07813 0q0 2.10937.5 2.8125.5.70312 1.21875.70312.73437 0 1.21875-.70312.5-.70313.5-2.8125 0-2.125-.5-2.8125-.48438-.70313-1.23438-.70313-.71875 0-1.15625.60938-.54687.78125-.54687 2.90625z"/><path d="m67.59688 123.59641v1.01563h-5.687506q0-.375.125-.73438.21875-.57812.6875-1.14062.484376-.5625 1.390626-1.29688 1.40625-1.15625 1.89063-1.82812.5-.67188.5-1.26563 0-.625-.45313-1.04687-.45312-.4375-1.17187-.4375-.76563 0-1.218756.45312-.453124.45313-.46875 1.26563l-1.078124-.10938q.109374-1.21875.828124-1.84375.734376-.64062 1.968756-.64062 1.23437 0 1.95312.6875.71875.6875.71875 1.70312 0 .51563-.21875 1.01563-.20312.48437-.70312 1.04687-.48438.54688-1.60938 1.5-.95312.79688-1.234376 1.09375-.265624.28125-.4375.5625zm1.45312-3.21875q0-1.53125.3125-2.45312.3125-.9375.92188-1.4375.625-.5 1.5625-.5.6875 0 1.20312.28125.53125.28125.875.8125.34375.51562.53125 1.26562.1875.75.1875 2.03125 0 1.51563-.3125 2.4375-.29687.92188-.92187 1.4375-.60938.5-1.5625.5-1.23438 0-1.95313-.89062-.84375-1.0625-.84375-3.48438zm1.07813 0q0 2.10938.5 2.8125.5.70313 1.21875.70313.73437 0 1.21875-.70313.5-.70312.5-2.8125 0-2.125-.5-2.8125-.48438-.70312-1.23438-.70312-.71875 0-1.15625.60937-.54687.78125-.54687 2.90625zm5.92187 0q0-1.53125.3125-2.45312.3125-.9375.92188-1.4375.625-.5 1.5625-.5.6875 0 1.20312.28125.53125.28125.875.8125.34375.51562.53125 1.26562.1875.75.1875 2.03125 0 1.51563-.3125 2.4375-.29687.92188-.92187 1.4375-.60938.5-1.5625.5-1.23438 0-1.95313-.89062-.84375-1.0625-.84375-3.48438zm1.07813 0q0 2.10938.5 2.8125.5.70313 1.21875.70313.73437 0 1.21875-.70313.5-.70312.5-2.8125 0-2.125-.5-2.8125-.48438-.70312-1.23438-.70312-.71875 0-1.15625.60937-.54687.78125-.54687 2.90625zm5.92187 0q0-1.53125.3125-2.45312.3125-.9375.92188-1.4375.625-.5 1.5625-.5.6875 0 1.20312.28125.53125.28125.875.8125.34375.51562.53125 1.26562.1875.75.1875 2.03125 0 1.51563-.3125 2.4375-.29687.92188-.92187 1.4375-.60938.5-1.5625.5-1.23438 0-1.95313-.89062-.84375-1.0625-.84375-3.48438zm1.07813 0q0 2.10938.5 2.8125.5.70313 1.21875.70313.73437 0 1.21875-.70313.5-.70312.5-2.8125 0-2.125-.5-2.8125-.48438-.70312-1.23438-.70312-.71875 0-1.15625.60937-.54687.78125-.54687 2.90625z"/><path d="m62.05 58.651043 1.0625-.140625q.171874.890625.609374 1.296875.437506.390625 1.062506.390625.75 0 1.26562-.515625.51563-.515625.51563-1.28125 0-.71875-.48438-1.1875-.46875-.484375-1.20312-.484375-.29688 0-.75.125l.125-.9375q.10937.015625.17187.015625.67188 0 1.20313-.34375.54687-.359375.54687-1.09375 0-.578125-.39062-.953125-.39063-.390625-1.01563-.390625-.60937 0-1.03125.390625-.40625.390625-.515626 1.15625l-1.0625-.1875q.1875-1.046875.875-1.625.6875-.59375 1.703126-.59375.70313 0 1.29688.3125.59375.296875.90625.8125.3125.515625.3125 1.109375 0 .546875-.29688 1.015625-.29687.453125-.875.71875.75.171875 1.17188.734375.42187.546875.42187 1.390625 0 1.125-.82812 1.90625-.8125.78125-2.0625.78125-1.125006 0-1.875006-.671875-.75-.6875-.859374-1.75zm7-1.96875q0-1.53125.3125-2.453125.3125-.9375.92188-1.4375.625-.5 1.5625-.5.6875 0 1.20312.28125.53125.28125.875.8125.34375.515625.53125 1.265625.1875.75.1875 2.03125 0 1.515625-.3125 2.4375-.29687.921875-.92187 1.4375-.60938.5-1.5625.5-1.23438 0-1.95313-.890625-.84375-1.0625-.84375-3.484375zm1.07813 0q0 2.109375.5 2.8125.5.703125 1.21875.703125.73437 0 1.21875-.703125.5-.703125.5-2.8125 0-2.125-.5-2.8125-.48438-.703125-1.23438-.703125-.71875 0-1.15625.609375-.54687.78125-.54687 2.90625zm5.92187 0q0-1.53125.3125-2.453125.3125-.9375.92188-1.4375.625-.5 1.5625-.5.6875 0 1.20312.28125.53125.28125.875.8125.34375.515625.53125 1.265625.1875.75.1875 2.03125 0 1.515625-.3125 2.4375-.29687.921875-.92187 1.4375-.60938.5-1.5625.5-1.23438 0-1.95313-.890625-.84375-1.0625-.84375-3.484375zm1.07813 0q0 2.109375.5 2.8125.5.703125 1.21875.703125.73437 0 1.21875-.703125.5-.703125.5-2.8125 0-2.125-.5-2.8125-.48438-.703125-1.23438-.703125-.71875 0-1.15625.609375-.54687.78125-.54687 2.90625zm5.92187 0q0-1.53125.3125-2.453125.3125-.9375.92188-1.4375.625-.5 1.5625-.5.6875 0 1.20312.28125.53125.28125.875.8125.34375.515625.53125 1.265625.1875.75.1875 2.03125 0 1.515625-.3125 2.4375-.29687.921875-.92187 1.4375-.60938.5-1.5625.5-1.23438 0-1.95313-.890625-.84375-1.0625-.84375-3.484375zm1.07813 0q0 2.109375.5 2.8125.5.703125 1.21875.703125.73437 0 1.21875-.703125.5-.703125.5-2.8125 0-2.125-.5-2.8125-.48438-.703125-1.23438-.703125-.71875 0-1.15625.609375-.54687.78125-.54687 2.90625z"/><path d="m517.95 247.7684q0-1.53125.3125-2.45312.3125-.9375.9219-1.4375.625-.5 1.5625-.5.6875 0 1.2031.28125.53126.28125.875.8125.34376.51562.53126 1.26562.1875.75.1875 2.03125 0 1.51563-.3125 2.4375-.29686.92188-.92186 1.4375-.6094.5-1.5625.5-1.2344 0-1.95314-.89062-.84376-1.0625-.84376-3.48438zm1.07814 0q0 2.10938.5 2.8125.5.70313 1.21876.70313.73436 0 1.21874-.70313.5-.70312.5-2.8125 0-2.125-.5-2.8125-.48438-.70312-1.23438-.70312-.71876 0-1.15626.60937-.54686.78125-.54686 2.90625z"/><path d="m523.4969 187.29178v1.01562h-5.6875q0-.375.125-.73437.21874-.57813.6875-1.14063.48436-.5625 1.3906-1.29687 1.40626-1.15625 1.89064-1.82813.5-.67187.5-1.26562 0-.625-.45314-1.04688-.4531-.4375-1.17186-.4375-.76564 0-1.21874.45313-.45314.45312-.46876 1.26562l-1.07814-.10937q.1094-1.21875.82814-1.84375.73436-.64063 1.96876-.64063 1.23436 0 1.9531.6875.71876.6875.71876 1.70313 0 .51562-.21876 1.01562-.2031.48438-.7031 1.04688-.4844.54687-1.6094 1.5-.9531.79687-1.23436 1.09375-.26564.28125-.4375.5625z"/><path d="m521.325 124.61204v-2.0625h-3.71874v-.96875l3.92188-5.5625h.85936v5.5625h1.15626v.96875h-1.15626v2.0625zm0-3.03125v-3.85938l-2.6875 3.85938z"/><path d="m523.41876 54.432293-1.04686.078125q-.14064-.625-.39064-.90625-.4375-.453125-1.0625-.453125-.5 0-.89062.28125-.48438.375-.78124 1.078125-.28126.6875-.2969 1.96875.375-.578125.9219-.859375.5625-.28125 1.17186-.28125 1.04688 0 1.78124.78125.75.78125.75 2 0 .8125-.35936 1.515625-.34374.6875-.95314 1.0625-.60936.359375-1.375.359375-1.3281 0-2.15624-.96875-.82812-.96875-.82812-3.1875 0-2.5.92186-3.625.7969-.984375 2.15626-.984375 1.01564 0 1.65624.578125.65626.5625.78126 1.5625zm-4.29686 3.703125q0 .546875.21874 1.046875.23436.484375.64062.75.42188.265625.89064.265625.65624 0 1.1406-.53125.4844-.546875.4844-1.46875 0-.890625-.4844-1.40625-.46874-.515625-1.1875-.515625-.71874 0-1.21874.515625-.48436.515625-.48436 1.34375z"/><path d="m90.39485 297.2524.71816-.96123q.85073.78445 1.414204.81759.574526.0221 1.060661-.46402.353555-.35357.452995-.76234.08839-.41988-.08839-.79552-.17678-.37564-.7955-.99435l-4.8724-4.87241.928074-.9281 4.828216 4.82822q.88388.88388 1.17114 1.591.27622.69606.05525 1.42526-.209925.71814-.83969 1.3479-.92808.9281-1.95559.89496-1.03857-.04422-2.07713-1.12696zm9.336015-6.57387q-.066295.88387-.342505 1.51364-.27621.60767-.795495 1.12695-.839685.83968-1.712525.89493-.87283.03315-1.524696-.61871-.375648-.37564-.519279-.85074-.132585-.48615-.044195-.95017.09943-.47509.342504-.91705.187821-.3204.640816-.90598.939125-1.1822 1.25953-1.85614-.176774-.17678-.22097-.22096-.541375-.5414-.99437-.50825-.62976.03315-1.29268.69607-.607666.60768-.685005 1.12696-.077339.49716.320405 1.18219l-.96122.74023q-.44194-.6629-.50823-1.25952-.05525-.60768.26516-1.28165.32041-.69603.98332-1.35895.65186-.65188 1.21534-.906.563475-.25408.98332-.2099.430894.03314.872834.3204.265166.17676.839691.75128l1.160095 1.1601q1.21534 1.21536 1.59099 1.48054.375655.26516.83969.39772l-.905975.90598q-.408795-.14362-.80655-.45297zm-2.010835-1.87827q-.28726.66291-1.0938 1.75672-.453.60766-.58557.93914-.13259.30936-.066295.61872.066295.30936.287265.53033.35355.35355.850736.32041.497184-.03315 1.005414-.54138.508235-.50825.67396-1.1159.165726-.60768-.03314-1.1822-.14363-.4309-.71816-1.00543zm4.94975.19889-5.13758-5.13758.78445-.78445.72921.72922q-.276214-1.40317.795494-2.47489.464036-.46405 1.016466-.685.55243-.22097 1.01646-.1326.464046.06629.91703.3646.29831.18783.89494.78445l3.15988 3.15988-.87283.87284-3.12674-3.12674q-.53034-.53034-.88389-.685-.3646-.16574-.78445-.05524-.419835.08838-.77339.44193-.55243.55243-.60767 1.31479-.04419.75128.93912 1.73462l2.80634 2.80632zm9.02666-9.02668-.7513-.75127q.265164 1.4805-.76235 2.508-.45299.453-1.02752.67397-.56347.2099-1.02751.14361-.45299-.07733-.90598-.37564-.30936-.19888-.872834-.76236l-3.181986-3.18198.87284-.87283 2.85052 2.85053q.68501.685.972275.86178.419845.26517.88388.19889.464045-.06632.861795-.46405.386695-.38669.530326-.92807.132584-.55243-.066296-1.03858-.19887-.48614-.86178-1.14905l-2.75109-2.75106.87284-.87286 5.13757 5.13757zm5.00498-6.26452q-.06628.88388-.342495 1.51367-.276215.60766-.795495 1.12692-.83969.83969-1.71252.89496-.87284.03314-1.5247-.61874-.375656-.37566-.51929-.85074-.13258-.48612-.04419-.95017.09944-.4751.3425-.91702.18783-.3204.64082-.90598.93913-1.18219 1.25953-1.85617-.176776-.17675-.22097-.22094-.54138-.54139-.99437-.50824-.62976.03314-1.29267.69604-.60768.60766-.68502 1.12696-.077336.4972.320415 1.1822l-.961225.74025q-.44194-.6629-.508234-1.25955-.055236-.60767.265164-1.28162.32041-.69608.983325-1.35898.651865-.65185 1.215335-.90597.56347-.25413.98332-.20993.43089.03317.87283.32043.26517.17677.83969.75127l1.1601 1.1601q1.21534 1.21537 1.59099 1.4805.37565.26518.83969.39777l-.905985.90598q-.408791-.14362-.806545-.453zm-2.01083-1.87825q-.287254.6629-1.0938 1.75673-.45299.60767-.585575.93911-.132585.30936-.066295.61872.066295.30934.287265.53034.353555.35354.850739.3204.497186-.03315 1.005416-.5414.50823-.5082.67397-1.1159.16572-.60766-.03315-1.18218-.14364-.43088-.718166-1.0054zm4.9387.20994-5.137576-5.13757.784446-.78447.78445.78447q-.254114-.85074-.16573-1.2706.07734-.43087.3867-.74023.44194-.44196 1.17115-.61874l.50823 1.10485q-.50823.1326-.82864.453-.287265.28725-.34251.69605-.05524.38672.154686.7955.320404.60767.872834 1.1601l2.68479 2.6848zm5.491125-1.53576-.917031-.71814q.364602-.20994.574526-.41986.28726-.28728.3646-.56348.08839-.26517.0221-.55243-.05524-.2099-.3867-.91702-.04419-.08838-.132585-.28725l-7.10421-3.19304.939125-.93912 4.04377 1.90033q.78445.36463 1.56889.8176-.45299-.74023-.81759-1.52469l-1.90035-4.08795.872835-.87286 3.270371 7.18158q.530324 1.14905.673954 1.6462.19888.66295.09944 1.1601-.08839.50825-.508235.9281-.243065.24307-.66291.44193z"/><path d="m120.95527 304.38977-7.08212-7.08212 4.772976-4.77298.828634.82863-3.84489 3.84492 2.19866 2.19864 3.325614-3.32559.839691.83969-3.325615 3.32559 3.21513 3.21512zm8.05439-11.36897 1.01646-.7955q.57453 1.0165.44194 2.03294-.14363 1.00543-1.03856 1.90036-1.12695 1.12695-2.48592 1.0938-1.34792-.04418-2.596404-1.29268-1.303736-1.30372-1.347926-2.67374-.044195-1.39212 1.01647-2.45278 1.02751-1.0275 2.38648-.97227 1.34792.04419 2.6185 1.31477.07735.07735.23203.232l-3.833846 3.83388q.894926.78442 1.767762.81759.883884.0221 1.535754-.62979.47508-.47508.55243-1.06064.08837-.59661-.26517-1.34794zm-4.25369 1.44737 2.86157-2.86157q-.70711-.59662-1.30373-.6408-.90598-.08842-1.56889.5745-.60767.60768-.61872 1.41423 0 .79547.62977 1.51364zm8.86093-2.74005-.80654.80655-7.08212-7.08212.86179-.86179 2.51907 2.51907q-.13258-1.23743.7292-2.09921.47509-.4751 1.08275-.70712.60768-.232 1.23745-.15467.6187.06629 1.25953.39774.64081.33145 1.20428.89493 1.31478 1.3148 1.38108 2.7069.06628 1.37003-.83969 2.276-.90598.90598-2.18761.6629zm-2.6185-2.59642q.92807.9281 1.59099 1.08278 1.08276.26516 1.77881-.43088.57452-.57452.48614-1.48053-.07734-.91702-1.06067-1.90033-1.00542-1.00544-1.87825-1.08276-.87283-.07733-1.43631.48614-.57452.57453-.49718 1.49155.07734.89493 1.01647 1.83403zm7.45776-2.24285-5.13757-5.13757.78445-.78442.78444.78442q-.25412-.85071-.16572-1.27058.07733-.43086.3867-.74025.44194-.44193 1.17114-.61872l.50823 1.10487q-.50823.1326-.82863.453-.28726.28726-.34252.69604-.05523.38672.15468.7955.32041.60766.87284 1.1601l2.6848 2.68478zm6.91638-6.91638-.75129-.75127q.26516 1.4805-.76235 2.508-.45299.453-1.02751.67397-.56348.20993-1.02753.14361-.45298-.07733-.90597-.37564-.30936-.19888-.87284-.76236l-3.18197-3.18198.87283-.87283 2.85053 2.85053q.68501.685.97227.86178.41985.26517.88388.19889.46404-.06629.86179-.46405.3867-.38669.53033-.92807.13257-.55243-.0663-1.03858-.19886-.48611-.86178-1.14905l-2.75109-2.75106.87284-.87284 5.13757 5.13758zm5.00499-6.26452q-.06628.88388-.3425 1.51367-.27621.60766-.79548 1.12695-.83969.83969-1.71253.89493-.87285.03314-1.5247-.6187-.37566-.3757-.51929-.85075-.13258-.48615-.04419-.9502.09944-.47505.3425-.91702.18784-.3204.64082-.90598.93912-1.18219 1.25954-1.85617-.17679-.17675-.22098-.22094-.54138-.54139-.99437-.50824-.62975.03314-1.29267.69604-.60767.60766-.68502 1.12696-.07733.4972.32042 1.1822l-.96123.74025q-.44194-.6629-.50824-1.25952-.05523-.6077.26517-1.28165.32041-.69604.98332-1.35898.65187-.65185 1.21534-.90597.56347-.25413.98332-.20993.43089.03314.87283.3204.26517.1768.83969.7513l1.1601 1.1601q1.21535 1.21534 1.591 1.4805.37564.26518.83968.39777l-.90598.90598q-.4088-.14365-.80655-.453zm-2.01083-1.87825q-.28726.6629-1.0938 1.75673-.45298.60767-.58557.93911-.13258.30936-.0663.61872.0663.30934.28727.53034.35356.35354.85073.3204.4972-.03315 1.00542-.5414.50824-.5082.67397-1.11586.16572-.6077-.03315-1.18222-.14363-.43088-.71815-1.0054zm4.9387.2099-5.13757-5.13753.78446-.78447.78443.78447q-.25412-.85074-.16572-1.2706.07733-.43087.3867-.74027.44194-.44192 1.17115-.6187l.50822 1.10485q-.50822.1326-.82863.453-.28728.28725-.34251.69605-.05524.38672.15467.7955.32041.60767.87284 1.1601l2.6848 2.68478zm5.49112-1.53572-.91702-.71814q.36461-.20994.57453-.41986.28726-.28728.3646-.56348.08838-.26517.0221-.55243-.05525-.20993-.3867-.91702-.04419-.08838-.13259-.28725l-7.10422-3.19304.93914-.93912 4.04376 1.90033q.78445.3646 1.56889.8176-.45299-.74027-.81758-1.52469l-1.90036-4.08798.87283-.87283 3.27037 7.18158q.53034 1.14905.67397 1.6462.19887.66295.09944 1.1601-.08839.50825-.50824.9281-.24307.24305-.66292.44193z"/><path d="m167.98907 291.03207-7.08212-7.08212 1.40317-1.40317 6.69542 3.33667q.92808.46402 1.39212.7071-.26517-.50821-.76236-1.51365l-3.23721-6.61807 1.27058-1.2706 7.08211 7.08213-.90598.90597-5.93307-5.93303 3.86699 7.99913-.83968.83969-8.08754-3.97748 6.0325 6.03251zm10.40773-11.66727q-.0663.8839-.34251 1.51365-.27621.60765-.79549 1.12695-.83969.8397-1.71252.89493-.87283.03317-1.5247-.61871-.37564-.37564-.51928-.85074-.13258-.48612-.0442-.95018.09944-.4751.34251-.917.18782-.3204.64081-.906.93913-1.1822 1.25954-1.85616-.17677-.17678-.22098-.22097-.54137-.54139-.99437-.50821-.62976.03314-1.29268.69604-.60766.60767-.685 1.12696-.07734.49719.32041 1.18219l-.96123.74025q-.44194-.66292-.50822-1.25954-.05526-.60766.26515-1.28162.32042-.69607.98332-1.35898.65187-.65186 1.21535-.90596.56347-.25413.98332-.20994.43089.03314.87283.3204.26517.17679.83969.75131l1.1601 1.1601q1.21533 1.21533 1.59099 1.4805.37566.26517.83969.39773l-.90599.906q-.40878-.14364-.80654-.453zm-2.01083-1.87826q-.28726.66294-1.09381 1.75676-.45299.60765-.58557.9391-.13259.30936-.06629.61872.06629.30935.28727.53033.35354.35355.85072.32041.49719-.03316 1.00543-.54139.50823-.50824.67395-1.1159.16573-.60767-.03314-1.18219-.14363-.43088-.71815-1.0054zm4.93869.20993-5.13757-5.13757.78445-.78446.78444.78446q-.2541-.85074-.16572-1.27057.07734-.43091.3867-.74026.44194-.44193 1.17114-.61872l.50824 1.10485q-.50824.13258-.82864.45298-.28726.28726-.34252.69608-.05523.38669.1547.7955.3204.60767.87283 1.16009l2.68479 2.68479zm5.01604-8.77252.97227-.75131q.74025 1.02749.66292 2.12131-.07735 1.07171-.91704 1.9114-1.0496 1.04962-2.37542 1.00545-1.33689-.05528-2.62957-1.34795-.82863-.82865-1.17114-1.72357-.35355-.90598-.09942-1.77881.2541-.87287.91702-1.53577.82864-.82864 1.77881-.9391.96122-.12156 1.88931.51928l-.70711.97226q-.64082-.39774-1.2043-.3425-.57453.04419-1.00542.4751-.6629.6629-.59661 1.54678.05523.87283 1.07171 1.88931 1.03856 1.03855 1.91139 1.11587.86179.06632 1.49155-.56344.51929-.51929.55243-1.17116.02209-.66292-.54138-1.40315zm3.4803.27618-7.08212-7.08209.87283-.87284 2.54117 2.54118q-.09944-1.31478.82864-2.24286.57453-.57452 1.2264-.76236.6408-.19888 1.21533.02209.57452.19889 1.33687.96122l3.24827 3.24829-.87283.87284-3.24828-3.24827q-.6629-.66293-1.23742-.66293-.57453-.0221-1.09381.4972-.38671.38668-.53034.92806-.14363.54138.05525 1.02754.19887.4861.80654 1.0938l2.80633 2.8063z"/><path d="m208.69206 284.0052-4.36416-9.80006 1.00541-1.00544 9.98787 4.17637-1.0717 1.07171-2.97206-1.31478-2.96102 2.96102 1.37003 2.91681zm-.86178-4.94975 2.39753-2.39755-2.70689-1.22638q-1.22639-.56348-1.96664-.97226.55242.8176.96122 1.73462zm9.8553-.11047-7.10422-7.10422.7955-.7955.67397.67394q-.12154-.67394.04419-1.21532.15468-.55243.66291-1.06068.65186-.65185 1.49155-.80654.83969-.17676 1.71252.18784.87284.3646 1.60204 1.0938.78446.78446 1.138 1.71253.35356.90597.15468 1.78987-.19887.86177-.79549 1.4584-.43089.4309-.97227.5966-.53034.1547-1.02751.09946l2.49696 2.49694zm-3.72336-5.29228q.99437.99436 1.8672 1.07173.88388.06627 1.45841-.50823.57452-.57454.49719-1.46947-.07735-.91703-1.10486-1.94453-.98332-.98332-1.87825-1.06068-.88388-.08838-1.44736.47508-.55243.55244-.46405 1.5026.0884.9502 1.07172 1.9335zm7.40253-2.32018-5.13758-5.13757.78444-.78445.78446.78445q-.25412-.85075-.16573-1.2706.07733-.43088.38669-.74025.44194-.44194 1.17116-.6187l.50822 1.10486q-.50822.13257-.82864.45297-.28727.28727-.3425.69607-.05524.3867.15468.79548.3204.60766.87283 1.16009l2.6848 2.68483zm-2.53012-9.64539-.99437-.99435.86178-.86178.99437.99435zm6.08775 6.08774-5.13758-5.13757.86179-.8618 5.13757 5.1376zm2.08816-2.08817-7.0821-7.08212.87283-.87283 7.08211 7.08212z"/><path d="m244.53368 281.8397-7.08211-7.08213 1.40317-1.40317 6.69542 3.33667q.92808.46403 1.39212.70709-.26517-.50824-.76235-1.51364l-3.23723-6.61807 1.27059-1.2706 7.08212 7.08212-.90599.90598-5.93306-5.93308 3.86699 7.99915-.83969.83968-8.08754-3.97744 6.0325 6.0325zm10.40774-11.66728q-.06628.88388-.3425 1.51365-.27621.60766-.7955 1.12695-.83969.83968-1.71252.89493-.87284.03315-1.5247-.61872-.37565-.37563-.51928-.85073-.13258-.48615-.0442-.95017.09944-.4751.34251-.91705.18782-.32041.64081-.90598.93913-1.1822 1.25953-1.85614-.17677-.17679-.22096-.22098-.54138-.54138-.99437-.50824-.62977.03316-1.29268.69608-.60768.60768-.68501 1.12695-.07735.49716.32041 1.18219l-.96123.74024q-.44194-.6629-.50823-1.25952-.05525-.60768.26517-1.28165.3204-.69605.98333-1.35895.65185-.65188 1.21532-.90601.56348-.25407.98333-.20989.43089.03314.87283.3204.26517.17676.83969.75128l1.1601 1.16014q1.21534 1.21532 1.59098 1.4805.37565.26515.83971.39772l-.90599.90598q-.4088-.14362-.80655-.45298zm-2.01083-1.87826q-.28726.6629-1.09381 1.75671-.45299.60767-.58558.93915-.13258.30936-.06628.61871.06628.30937.28726.53034.35355.35353.85074.3204.49718-.03314 1.00542-.54137.50822-.50825.67395-1.1159.16574-.60768-.03314-1.1822-.14363-.4309-.71816-1.00544zm6.89431 2.20972-.91706-.71818q.36462-.2099.57452-.41982.28726-.28728.36464-.56348.08836-.26517.02208-.55243-.05524-.20993-.38672-.91702-.04419-.08841-.13256-.28725l-7.10423-3.19304.93914-.93916 4.04379 1.90037q.7844.3646 1.56886.8176-.453-.74027-.81759-1.52472l-1.90037-4.08795.87287-.87283 3.27036 7.18153q.53033 1.14906.67395 1.64625.19888.66291.09945 1.1601-.08841.50825-.50823.92807-.24308.24308-.6629.44196z"/><path d="m272.91757 283.11026.71813-.96121q.85075.78442 1.41423.81755.57452.0221 1.06067-.464.35354-.35355.45297-.76237.08841-.41983-.08837-.7955-.1768-.37563-.7955-.99435l-4.87242-4.87241.92807-.92807 4.82822 4.8282q.88388.8839 1.17113 1.591.27623.69604.05528 1.42525-.20993.71817-.83968 1.34795-.9281.92806-1.9556.8949-1.03858-.04418-2.07713-1.12694zm9.98786-5.96622-.75129-.75131q.26516 1.48053-.76236 2.50803-.45298.453-1.02748.67398-.5635.2099-1.02754.14361-.453-.07733-.90596-.37565-.30937-.19887-.87285-.76235l-3.18197-3.18197.87282-.87284 2.85053 2.85053q.685.685.97227.86178.41986.26517.88387.19889.46406-.06632.86179-.46404.38672-.3867.53034-.92808.13256-.55242-.0663-1.03858-.19887-.48614-.86177-1.14904l-2.7511-2.7511.87283-.87284 5.13757 5.13758zm2.28704-2.28704-5.13754-5.13758.78443-.78445.72921.72921q-.27621-1.40316.7955-2.47488.46403-.46402 1.01645-.685.55243-.22097 1.01648-.1326.46402.06632.91703.36463.29831.1878.89492.78442l3.15989 3.15988-.87284.87284-3.12674-3.12671q-.53033-.53034-.88388-.68503-.36458-.16571-.78445-.05523-.41983.08837-.77338.44192-.55243.55243-.6077 1.31478-.04418.75132.93915 1.73463l2.80634 2.80633zm7.51303-10.82758 1.01645-.7955q.57453 1.01648.44195 2.03293-.14364 1.00543-1.03856 1.90035-1.12696 1.12696-2.48591 1.09382-1.34793-.04419-2.59643-1.2927-1.3037-1.30372-1.3479-2.67372-.0442-1.39213 1.01645-2.4528 1.02752-1.0275 2.3865-.97226 1.3479.04419 2.6185 1.31479.07733.07733.23203.23199l-3.83386 3.83386q.89492.78446 1.76776.8176.88392.02209 1.53576-.62976.47506-.4751.55243-1.06067.08838-.59662-.26517-1.34793zm-4.2537 1.44736 2.8616-2.86158q-.70714-.5966-1.30376-.6408-.90597-.08838-1.56887.57452-.60767.60768-.61872 1.41421 0 .79551.62975 1.51365z"/><path d="m310.8363 278.86765.71814-.96125q.85074.78446 1.41422.8176.57452.0221 1.06067-.46402.35354-.35358.45297-.76236.0884-.41986-.08838-.7955-.17679-.37564-.7955-.99436l-4.87242-4.8724.92808-.9281 4.82822 4.82821q.88388.88388 1.17114 1.59101.27622.69604.05526 1.42526-.20992.71814-.83968 1.34793-.92807.92807-1.9556.89493-1.03857-.04422-2.07712-1.12695zm9.9879-5.96622-.75132-.75131q.26516 1.48048-.76236 2.50802-.45298.45301-1.0275.67396-.56348.20992-1.02752.14364-.45298-.07734-.90598-.37564-.30936-.1989-.87284-.76236l-3.18198-3.18198.87284-.87283 2.85053 2.85052q.68499.685.97226.86179.41987.26516.88387.19886.46406-.0663.8618-.46403.3867-.38672.53033-.9281.1326-.5524-.06629-1.03854-.19888-.48615-.86178-1.14905l-2.7511-2.7511.87284-.87283 5.13756 5.13757zm2.26494-2.26496-7.08212-7.08212.87283-.87283 7.08213 7.08212zm4.08796-.13259-.91703-.71814q.36459-.20994.57453-.41986.28726-.28728.3646-.56348.08837-.26514.02208-.5524-.05523-.20993-.38668-.91705-.04423-.08838-.1326-.28725l-7.10422-3.19304.93915-.93912 4.04377 1.90033q.7844.36463 1.56887.8176-.45297-.74023-.8176-1.52469l-1.90033-4.08795.87283-.87283 3.27036 7.18155q.53033 1.14905.67397 1.64625.19886.6629.09944 1.16008-.08838.50822-.50824.92807-.24308.24307-.6629.44193z"/><path d="m332.0828 295.3189-4.36417-9.80004 1.0054-1.00543 9.98787 4.17637-1.07167 1.0717-2.97208-1.31478-2.961 2.96103 1.37003 2.9168zm-.8618-4.94973 2.39753-2.39755-2.70688-1.22638q-1.22638-.56348-1.96665-.97226.55244.8176.96122 1.73462zm11.25846-5.44693-.75128-.75131q.26517 1.4805-.76236 2.50803-.45297.453-1.0275.67394-.56347.20994-1.02752.14365-.453-.07733-.90598-.37567-.30935-.19885-.87282-.76233l-3.182-3.18198.87285-.87283 2.85052 2.85053q.685.68499.97226.86178.41987.26517.88387.19885.46406-.06628.8618-.464.3867-.38673.53033-.92812.13257-.55238-.06628-1.03854-.19889-.48614-.86179-1.14904l-2.7511-2.7511.87284-.87284 5.13757 5.13757zm2.56326-1.70148.96125-.71816q.44193.33145.87283.2762.55243-.08837 1.1159-.65185.60767-.60765.685-1.17115.09946-.56347-.22097-1.12694-.19886-.33146-1.06063-1.17116.11046 1.23744-.74028 2.08818-1.06067 1.06067-2.40857.88388-1.33688-.1878-2.4086-1.25952-.72918-.72922-1.08275-1.6131-.3646-.89494-.19886-1.72357.16571-.85074.85074-1.53574.90597-.90597 2.23182-.7734l-.61876-.61873.79551-.7955 4.44152 4.44154q1.20429 1.20428 1.45841 1.94456.25412.74022.01105 1.55782-.23203.82864-1.00543 1.60205-.91703.91703-1.90034 1.06063-.97229.1547-1.77884-.69604zm-2.37542-3.81173q1.01648 1.01645 1.87826 1.08273.86179.06631 1.46944-.54138.59663-.59662.5414-1.46945-.05524-.87283-1.03858-1.85613-.93912-.93916-1.83404-.9944-.90598-.06628-1.49158.5193-.58557.58556-.51926 1.46944.06629.86179.99436 1.78989zm11.12588-5.80051-.75131-.75128q.26517 1.4805-.76233 2.50799-.453.45301-1.02754.67397-.56346.2099-1.02748.14363-.45302-.07733-.90602-.37563-.30934-.1989-.87282-.76237l-3.18198-3.18198.87284-.87283 2.85052 2.85053q.68504.68499.97229.86178.41983.26517.88388.19887.46402-.0663.86179-.46404.38668-.38668.53033-.92806.13257-.55243-.06631-1.03858-.19886-.48612-.86179-1.14905l-2.75107-2.75107.87284-.87283 5.13758 5.13753zm.40882-3.48029.71814-.9833q.59661.44192 1.20428.38669.60768-.05524 1.20428-.65186.59665-.59662.64084-1.12696.05524-.54137-.27621-.87283-.29831-.2983-.72923-.19887-.2983.05523-1.18218.58556-1.20428.71817-1.75672.91704-.54137.18782-1.03857.06627-.49716-.12152-.87283-.49717-.3425-.3425-.47507-.78445-.14363-.453-.06631-.92807.05528-.3425.29831-.78445.24307-.46405.65187-.87283.59663-.59662 1.2264-.87284.62975-.29831 1.14904-.22098.51929.07734 1.09381.4972l-.72922.97226q-.45297-.3425-.96121-.27622-.49719.05524-1.00542.56348-.59663.59662-.65187 1.04962-.06628.44193.20993.71814.16572.16574.39774.19888.25412.03316.57452-.11047.16575-.07737.98334-.54137 1.18219-.674 1.70148-.8839.51926-.20992 1.01646-.1105.50823.0884.95015.53034.44195.44196.57453 1.08276.1326.6187-.13258 1.32584-.26516.68499-.87282 1.29266-.99438.9944-1.94455 1.10486-.93913.09944-1.90033-.57453zm7.95492-6.43023.88388.6408q-.28726.44193-.57452.7292-.47508.4751-.88388.5966-.4088.09947-.76233-.03313-.34253-.14362-1.12697-.92807l-2.94997-2.94995-.6408.64081-.685-.685.64081-.64084-1.27057-1.27057.3425-1.38107 1.78985 1.78985.87284-.87283.68499.68503-.87283.87283 2.99418 2.99414q.37563.37564.53033.44196.14361.05524.30935.02209.17676-.04419.3646-.23202.15469-.1547.35354-.41983z"/><path d="m346.25824 310.26758.80656-.96121q.5966.46405 1.17113.57453.57453.11046 1.25952-.15467.69608-.27623 1.30375-.88391.53033-.53032.78442-1.09378.25412-.58558.17678-1.06067-.07733-.4751-.40878-.80655-.33148-.33145-.7734-.37564-.44196-.06628-1.06067.19885-.39775.17679-1.61307.9281-1.20432.74023-1.80093.91702-.77338.24307-1.41422.11048-.64081-.15467-1.138-.65186-.53033-.53033-.69603-1.29269-.16576-.78443.18782-1.60202.3425-.82866 1.06064-1.54682.78444-.78442 1.63519-1.12692.86179-.35358 1.67938-.17679.80655.16571 1.45841.75131l-.83969.97226q-.72922-.59662-1.49155-.51928-.7734.06628-1.591.88388-.85074.85073-.91702 1.55786-.07734.69604.36459 1.138.37567.37564.90597.35354.50824-.0221 1.91141-.89492 1.40317-.89493 2.01085-1.12696.90596-.33145 1.64623-.18782.72921.1326 1.30374.7071.56347.5635.74023 1.40318.1768.81756-.15466 1.70148-.33148.88388-1.08277 1.63516-.96124.96124-1.88931 1.33688-.93912.3646-1.87823.1768-.9281-.1989-1.65729-.88392zm10.70602-9.4686 1.01648-.79548q.57453 1.01646.44193 2.03294-.14362 1.0054-1.03855 1.90033-1.12695 1.12695-2.48592 1.09381-1.34794-.04418-2.5964-1.29268-1.30375-1.30373-1.34794-2.67375-.04419-1.39212 1.01648-2.45275 1.02749-1.02754 2.38646-.9723 1.34794.0442 2.6185 1.3148.07737.07732.23204.232l-3.83384 3.83384q.89493.78446 1.76777.8176.88388.0221 1.53573-.62976.4751-.4751.55243-1.06068.08841-.5966-.26517-1.34792zm-4.25369 1.44736 2.86157-2.86157q-.70709-.59662-1.30371-.64081-.90597-.08838-1.56891.57452-.60766.60767-.61872 1.41422 0 .7955.62977 1.51364zm10.02103.03314-7.1042-7.10418.79548-.7955.67398.67394q-.12156-.67394.04419-1.21534.15467-.55242.66291-1.06066.65188-.65184 1.49154-.80654.8397-.17677 1.71253.18783.87283.36459 1.60205 1.09381.78445.78446 1.138 1.71252.35354.90598.15469 1.78986-.19887.86178-.7955 1.4584-.43091.43091-.97229.59662-.5303.1547-1.0275.09946l2.49698 2.49695zm-3.72336-5.29224q.99438.99436 1.86722 1.07172.88388.06628 1.4584-.50824.57454-.57452.49719-1.46945-.07733-.91702-1.10485-1.94455-.9833-.98332-1.87827-1.06067-.88388-.08838-1.44736.4751-.55243.55243-.46402 1.50259.08838.9502 1.07169 1.9335zm8.54053-5.005.88388.64084q-.28725.44192-.57453.72918-.47506.4751-.88388.59662-.40878.09946-.76234-.03314-.3425-.14361-1.12694-.92807l-2.94998-2.94995-.64081.64081-.685-.68503.64081-.6408-1.27058-1.27058.3425-1.38107 1.78987 1.78985.87283-.87283.685.68503-.87283.87283 2.99417 2.99414q.37564.37565.53033.44196.14363.05524.30936.02209.17677-.04418.36459-.23202.15468-.1547.35355-.41986zm3.55763-5.32538 1.01646-.7955q.57454 1.01648.44196 2.03294-.14365 1.00542-1.03857 1.90035-1.12695 1.12695-2.48591 1.09381-1.34794-.04422-2.59644-1.2927-1.3037-1.30371-1.3479-2.67373-.04418-1.39213 1.01646-2.45279 1.02752-1.0275 2.3865-.97226 1.3479.04419 2.6185 1.31476.07734.07736.23204.23202l-3.83388 3.83386q.89493.78443 1.76778.81758.88387.02212 1.53575-.62977.47507-.47507.55243-1.06063.08838-.59666-.26518-1.34794zm-4.25368 1.44736 2.86158-2.86157q-.70713-.59662-1.30375-.64081-.90597-.08841-1.56888.57452-.60767.60767-.61871 1.41422 0 .79547.62976 1.51364zm8.05438-1.9335-5.13757-5.13758.78447-.78444.72917.7292q-.15467-.6187.0221-1.23742.17679-.64084.68503-1.14905.57452-.57453 1.1822-.69607.5966-.13256 1.17113.13259-.28726-1.50262.68503-2.47488.76234-.76237 1.59097-.75131.83969 0 1.72357.88388l3.52448 3.5245-.87284.87284-3.23721-3.23725q-.51929-.51925-.83969-.6629-.30936-.15466-.6629-.06628-.3646.07733-.66294.37565-.54135.54137-.54135 1.2706 0 .70708.79547 1.50258l2.98313 2.98309-.87285.87283-3.33666-3.33663q-.57452-.57453-1.07171-.65189-.50821-.08838-.99436.39777-.36459.36459-.48614.88388-.12153.49719.1105 1.01645.232.49719.93912 1.20432l2.66269 2.66268zm8.58472-8.58472-.80655.80655-7.08209-7.08213.86179-.86178 2.51903 2.51906q-.13256-1.2374.72923-2.0992.47509-.4751 1.08277-.70712.60766-.23203 1.23742-.15468.61871.0663 1.25952.39775.64084.33145 1.20431.89493 1.31475 1.31479 1.38105 2.70692.0663 1.36998-.83966 2.27596-.90601.906-2.18764.66294zm-2.6185-2.5964q.92808.92806 1.591 1.08276 1.08274.26516 1.77881-.43091.57453-.57452.48612-1.4805-.07733-.91702-1.06065-1.90035-1.00542-1.0054-1.87826-1.08274-.87284-.07736-1.43631.48611-.57453.57453-.49719 1.49158.07736.89493 1.01648 1.83405zm9.32498-7.42463 1.01645-.7955q.57453 1.01648.44195 2.03293-.14364 1.00543-1.03857 1.90036-1.12695 1.12694-2.48593 1.09381-1.3479-.04419-2.5964-1.29269-1.3037-1.30372-1.3479-2.67374-.04422-1.39212 1.01645-2.45279 1.02752-1.0275 2.38647-.97225 1.34793.04418 2.61853 1.31478.07733.07732.232.23199l-3.83385 3.83387q.89494.78442 1.76777.81759.88389.0221 1.53577-.62979.47506-.47507.55243-1.06064.08838-.59662-.26517-1.34793zm-4.2537 1.44736 2.86158-2.86157q-.70712-.59662-1.30374-.64081-.90597-.08841-1.56888.57452-.60766.60767-.61871 1.41423 0 .7955.62975 1.51363zm8.04335-1.92246-5.13758-5.13757.78446-.78442.78442.78442q-.25412-.85074-.16571-1.27057.07733-.43091.38669-.74026.44195-.44193 1.17114-.61872l.50823 1.10485q-.50823.13258-.82863.453-.28727.28728-.3425.69606-.05524.38669.15466.7955.32044.60767.87287 1.1601l2.68478 2.68478z"/><path d="m391.52426 296.3354q-1.76776-1.7678-1.81196-3.71232-.05523-1.9556 1.43632-3.44715.98331-.98333 2.24286-1.29269 1.25952-.33144 2.50802.09943 1.25953.41986 2.3202 1.48053 1.08276 1.08273 1.49154 2.37542.41983 1.28162.06629 2.51908-.3646 1.22638-1.29267 2.15445-1.00543 1.00543-2.276 1.30375-1.2706.2983-2.50802-.12156-1.24848-.43088-2.17658-1.35894zm.98334-.96125q1.2816 1.28165 2.70688 1.33688 1.42526.03314 2.46382-1.00543 1.04964-1.0496.99437-2.47486-.05524-1.42526-1.42527-2.79528-.87283-.87284-1.81194-1.21534-.92806-.35357-1.8451-.14364-.9281.19888-1.62414.89492-.99439.9944-1.02752 2.39756-.03315 1.40317 1.5689 3.00519zm11.8882-8.77253.9723-.75132q.74024 1.0275.6629 2.12132-.07733 1.07171-.91702 1.91141-1.04962 1.04962-2.37542 1.00543-1.33689-.05526-2.62958-1.34793-.82865-.82865-1.17114-1.72357-.35354-.90598-.09944-1.77881.25413-.87287.91703-1.53577.82865-.82864 1.77881-.93912.96124-.12156 1.88931.51929l-.70709.97225q-.64084-.39773-1.20431-.3425-.57453.0442-1.00541.4751-.66294.6629-.59661 1.5468.05523.87283 1.07167 1.8893 1.0386 1.03855 1.91142 1.11588.86178.06632 1.49155-.56345.51928-.51928.55243-1.17117.0221-.6629-.5414-1.40314zm4.60728-2.39755.88388.64081q-.28726.44195-.57452.72922-.4751.4751-.88388.59662-.40882.09942-.76236-.03315-.3425-.14364-1.12695-.92807l-2.94995-2.94998-.64084.64084-.685-.68503.64081-.64081-1.27057-1.2706.3425-1.38104 1.78985 1.78986.87285-.87284.685.685-.87282.87284 2.99414 2.99416q.37564.37565.53034.44193.14361.05527.30934.0221.1768-.04419.3646-.232.1547-.15469.35358-.41986zm-1.18222-2.39752q-1.42526-1.42525-1.3258-2.91681.08838-1.21536 1.04959-2.17657 1.04962-1.04963 2.41965-1.02753 1.35897.01106 2.58535 1.23746.99435.99435 1.27057 1.86718.26518.86179.01105 1.75672-.25409.87283-.91702 1.53576-1.08277 1.08274-2.44172 1.04959-1.35897-.03315-2.65167-1.3258zm.89496-.89493q.98331.98331 1.91138 1.04958.91702.05525 1.5689-.5966.6408-.6408.57453-1.56888-.06633-.92812-1.07173-1.93352-.95015-.95015-1.8672-1.00542-.92807-.06628-1.56888.57452-.65186.6519-.59662 1.5689.05524.91704 1.04962 1.91142zm8.45212-3.32562-.80654.80655-7.08213-7.08213.86181-.86178 2.51905 2.51906q-.13257-1.23744.72921-2.09923.4751-.47507 1.08276-.70709.60767-.23203 1.23743-.1547.61872.06632 1.25953.39777.64084.33145 1.20431.89493 1.31476 1.31479 1.38103 2.70688.06633 1.37002-.83965 2.276-.906.906-2.18762.66294zm-2.6185-2.5964q.92806.92806 1.591 1.08276 1.08274.26516 1.77881-.43091.57452-.57452.48611-1.4805-.07733-.91702-1.06063-1.90035-1.00543-1.0054-1.87827-1.08274-.87283-.07736-1.43631.48611-.57452.57453-.49719 1.49155.07736.89496 1.01648 1.83408zm9.32498-7.42463 1.01645-.7955q.57453 1.01648.44195 2.03293-.14364 1.00543-1.03857 1.90036-1.12695 1.12694-2.48593 1.09381-1.3479-.04419-2.59642-1.29269-1.3037-1.30372-1.3479-2.67374-.0442-1.39212 1.01646-2.45279 1.02754-1.0275 2.38648-.97225 1.34793.04418 2.61853 1.31475.07733.07735.23199.23202l-3.83383 3.83387q.89493.78442 1.76777.81759.88387.0221 1.53576-.62979.47507-.47507.5524-1.06064.08841-.59662-.26514-1.34793zm-4.25369 1.44736 2.86157-2.86157q-.70712-.59662-1.30374-.64081-.90598-.08841-1.56888.57452-.60768.60767-.61874 1.41423 0 .79546.62979 1.51363zm8.04333-1.92246-5.13756-5.13757.78444-.78445.78443.78445q-.25412-.85074-.16571-1.27057.07734-.43091.38669-.74026.44195-.44193 1.17115-.61872l.50823 1.10485q-.50823.13258-.82865.45298-.28726.28727-.34248.69608-.05525.38669.15465.7955.32043.60767.87283 1.1601l2.68482 2.68478z"/><path d="m419.73135 308.6987-7.08212-7.08212.96124-.96122 9.28077 1.83404-5.55741-5.5574.90597-.906 7.08213 7.08212-.96123.96125-9.29182-1.84513 5.56845 5.56848zm3.38085-8.5074q-1.42525-1.42525-1.32582-2.9168.08842-1.21533 1.04962-2.17657 1.04962-1.04963 2.4196-1.0275 1.359.01105 2.5854 1.23743.99436.99436 1.27057 1.86719.26517.86178.01105 1.75675-.25412.87283-.91702 1.53573-1.08277 1.08277-2.44175 1.04962-1.35895-.03315-2.65165-1.32585zm.89494-.8949q.98334.9833 1.91141 1.0496.91702.05525 1.56888-.59664.64084-.64081.57452-1.56888-.06628-.92808-1.07169-1.9335-.95019-.95018-1.86721-1.0054-.92807-.06632-1.56888.57452-.65189.65186-.59665 1.56888.05528.91702 1.04962 1.91142zm9.07086-3.94435-7.09317-3.18198.92807-.92807 4.17636 1.98874q.67394.32041 1.35898.69606-.28726-.53035-.65188-1.29268l-1.98874-4.28682.89496-.89497 3.19302 7.08212zm5.38065-8.69519 1.01645-.7955q.57452 1.01644.44195 2.03294-.14365 1.0054-1.03857 1.90035-1.12695 1.12695-2.48593 1.09378-1.3479-.04419-2.59641-1.29267-1.30371-1.30374-1.3479-2.67373-.04419-1.39213 1.01646-2.45279 1.02752-1.02754 2.3865-.97226 1.3479.04419 2.6185 1.31476.07733.07733.23202.23202l-3.83386 3.83384q.89494.78445 1.76776.8176.88388.0221 1.53578-.62977.47505-.4751.55242-1.06067.08838-.59662-.26517-1.3479zm-4.25369 1.44736 2.86157-2.86157q-.70713-.59662-1.30373-.64085-.906-.08837-1.5689.57453-.60766.6077-.6187 1.41422 0 .7955.62976 1.51367zm8.05438-1.9335-5.13757-5.13758.78445-.78444.72918.7292q-.15466-.6187.0221-1.23745.1768-.64081.68503-1.14905.57452-.57452 1.18219-.69604.59662-.1326 1.17114.13256-.28726-1.50259.685-2.47485.76236-.76237 1.591-.75131.83969 0 1.72357.88388l3.52447 3.5245-.87282.87284-3.23722-3.23725q-.51928-.51928-.83969-.6629-.30935-.15469-.6629-.06628-.36462.07733-.66293.37565-.54136.54137-.54136 1.27056 0 .70712.79548 1.50262l2.98312 2.98309-.87283.87283-3.33667-3.33663q-.57453-.57453-1.07172-.65189-.50824-.08838-.99436.39777-.3646.36459-.48614.88388-.12152.49719.11047 1.01645.23203.49719.93915 1.20432l2.66269 2.66268zm8.58472-8.58472-.80656.80655-7.08212-7.08213.86179-.86178 2.51907 2.51906q-.13257-1.23744.72922-2.09923.47507-.47507 1.08276-.70709.60768-.23203 1.23743-.1547.61871.06632 1.25952.39777.64083.33145 1.20433.89493 1.31475 1.31476 1.38103 2.70688.06631 1.37002-.83969 2.276-.90598.90597-2.18759.66294zm-2.6185-2.5964q.92807.92806 1.59097 1.08276 1.08277.26516 1.77884-.43091.57453-.57452.48611-1.4805-.07733-.91702-1.06064-1.90035-1.00544-1.0054-1.87826-1.08277-.87284-.07733-1.43631.48614-.57453.57453-.49719 1.49155.07736.89493 1.01648 1.83408zm9.32498-7.42463 1.01646-.7955q.5745 1.01648.44194 2.03293-.14364 1.00543-1.03857 1.90036-1.12697 1.12694-2.48593 1.09381-1.3479-.04422-2.59641-1.29269-1.30371-1.30372-1.34793-2.67374-.0442-1.39212 1.01648-2.45279 1.02752-1.0275 2.38647-.97225 1.34795.04418 2.61853 1.31475.07734.07735.232.23202l-3.83383 3.83387q.89493.78442 1.76775.81756.8839.02213 1.53578-.62976.47506-.47507.55239-1.06064.08841-.59665-.26513-1.34793zm-4.2537 1.44736 2.86158-2.86157q-.70712-.59662-1.30374-.64081-.90598-.08841-1.56888.57452-.6077.60767-.61875 1.41423 0 .79546.62979 1.51363zm8.04334-1.92246-5.13758-5.13757.78446-.78445.78442.78445q-.25412-.85074-.16571-1.27057.07733-.43091.38669-.74026.44196-.44193 1.17114-.61872l.50824 1.10485q-.50824.13258-.82864.45298-.28726.28727-.3425.69608-.05523.38669.15466.7955.32044.60767.87284 1.1601l2.6848 2.68478z"/><path d="m452.71143 309.39474-7.08213-7.08212 2.4417-2.44172q.82866-.82863 1.359-1.16008.74026-.4751 1.5468-.53034 1.03855-.08838 2.05503.37564 1.0054.453 1.9556 1.40318.80652.80654 1.24847 1.62414.4309.80654.54138 1.51364.12152.69607 0 1.28164-.12155.58558-.49718 1.20428-.3646.60767-1.0054 1.24848zm.09942-1.7788 1.51365-1.51364q.69607-.69608.97228-1.21537.27622-.54138.26517-1.01645 0-.66293-.37567-1.41421-.37564-.75131-1.18218-1.55787-1.10487-1.10482-2.06608-1.33685-.96122-.23202-1.69042.07735-.53035.24306-1.359 1.0717l-1.49154 1.49155zm8.71732-10.35248 1.01645-.7955q.57452 1.01644.44195 2.03294-.14364 1.00542-1.03857 1.90035-1.12696 1.12695-2.48593 1.09378-1.3479-.04419-2.59641-1.29267-1.30371-1.30374-1.3479-2.67373-.04422-1.39213 1.01644-2.45279 1.02754-1.02754 2.3865-.97226 1.34792.04419 2.6185 1.31475.07735.07734.232.23203l-3.83382 3.83384q.89492.78445 1.76776.8176.88388.02208 1.53576-.62977.47507-.4751.5524-1.06067.0884-.59662-.26513-1.3479zm-4.25369 1.44736 2.86157-2.86158q-.70713-.59662-1.30375-.64084-.90597-.08837-1.56887.57453-.6077.60769-.61875 1.41421 0 .79551.6298 1.51368zm9.52382-7.15946.97227-.75131q.74026 1.02753.66293 2.12131-.07736 1.07171-.91702 1.9114-1.04962 1.04964-2.37546 1.00544-1.33685-.05527-2.62955-1.34794-.82864-.82864-1.17114-1.72356-.35353-.90598-.09943-1.77882.2541-.87283.91703-1.53576.82864-.82865 1.77881-.93912.96121-.12152 1.88931.5193l-.70712.97225q-.64081-.39775-1.20429-.3425-.57452.04419-1.00544.4751-.6629.6629-.5966 1.54678.05523.87283 1.0717 1.88931 1.03858 1.03856 1.91142 1.11591.86178.06628 1.49154-.56348.51929-.51929.55244-1.17114.0221-.66293-.5414-1.40317zm5.33647-4.8945 1.01643-.7955q.57454 1.01644.44197 2.03294-.14365 1.0054-1.03857 1.90035-1.12696 1.12692-2.48594 1.09378-1.3479-.04419-2.5964-1.29267-1.30371-1.30374-1.3479-2.67376-.04422-1.3921 1.01644-2.45276 1.02753-1.02754 2.3865-.97229 1.3479.04422 2.6185 1.31479.07734.07733.23204.23202l-3.83386 3.83384q.89492.78445 1.76776.8176.88388.0221 1.53576-.62977.47507-.4751.55243-1.06067.08837-.59662-.26516-1.3479zm-4.2537 1.44736 2.86158-2.86157q-.70713-.59662-1.30375-.64085-.90597-.08837-1.56887.57453-.60767.60767-.61873 1.41422 0 .7955.62977 1.51367zm8.05439-1.9335-5.13758-5.13758.78446-.78444.72918.7292q-.15466-.61874.0221-1.23745.17678-.64081.68503-1.14905.57452-.57452 1.18219-.69604.59661-.1326 1.17114.13256-.28726-1.50259.685-2.47485.76236-.76237 1.591-.75131.83969 0 1.72357.88388l3.52448 3.52446-.87283.87288-3.23722-3.23725q-.51928-.51928-.83968-.6629-.30937-.15469-.6629-.06628-.36464.07733-.66295.37565-.54138.54137-.54138 1.27056 0 .70712.7955 1.50262l2.98313 2.98309-.87284.87283-3.33666-3.33666q-.57453-.57454-1.07172-.65186-.50824-.08838-.99436.39777-.36462.36459-.48614.88388-.12152.49717.11047 1.01645.23203.49719.93915 1.20428l2.6627 2.66272zm8.58471-8.58472-.80655.80655-7.08212-7.08213.8618-.86178 2.51906 2.51906q-.13256-1.23744.72922-2.09923.47506-.47507 1.08276-.70709.60766-.23203 1.23743-.1547.61871.06629 1.25953.39777.64083.33145 1.2043.89493 1.31476 1.31476 1.38105 2.70688.06631 1.37002-.83969 2.276-.90598.90597-2.1876.66294zm-2.6185-2.5964q.92807.92806 1.59098 1.08273 1.08275.26517 1.77883-.43088.57452-.57452.48612-1.4805-.07733-.91702-1.06064-1.90035-1.00543-1.0054-1.87826-1.08277-.87284-.07733-1.4363.48614-.57454.57453-.4972 1.49155.07735.89493 1.01647 1.83408zm9.32498-7.42463 1.01645-.7955q.57453 1.01645.44196 2.03293-.14366 1.00543-1.03858 1.90036-1.12695 1.12694-2.48593 1.09381-1.3479-.04422-2.5964-1.29269-1.30371-1.30375-1.34793-2.67374-.04419-1.39212 1.01648-2.45279 1.02752-1.02753 2.38647-.97225 1.34793.04418 2.61853 1.31475.07733.07735.232.23202l-3.83384 3.83383q.89494.78446 1.76777.8176.88387.0221 1.53573-.62976.4751-.4751.55244-1.06067.0884-.59662-.26515-1.3479zm-4.25369 1.44736 2.86157-2.86157q-.70713-.59662-1.30373-.64081-.90598-.08841-1.5689.57452-.60768.60767-.61873 1.41419 0 .7955.62979 1.51367zm8.04334-1.92246-5.13758-5.13757.78446-.78445.78442.78445q-.25412-.85074-.1657-1.27057.07732-.43091.38668-.74026.44195-.44197 1.17114-.61872l.50824 1.10485q-.50824.13258-.82864.45298-.28726.28727-.3425.69608-.05524.38669.15466.7955.32042.60767.87282 1.1601l2.68483 2.68478z"/></g><path d="m226.5 23.05c0-.552285.44771-1 1-1h10c.55229 0 1 .447715 1 1v10c0 .552283-.44771 1-1 1h-10c-.55229 0-1-.447717-1-1z" fill="#4285f4"/><path d="m247.67188 33.55v-11.453126h4.29687q1.3125 0 2.10937.34375.79688.34375 1.23438 1.078126.45312.71875.45312 1.5 0 .734374-.40624 1.390624-.39063.640626-1.1875 1.046876 1.03124.296874 1.59374 1.03125.5625.734374.5625 1.734374 0 .8125-.34374 1.5-.34376.6875-.84376 1.0625-.5.375-1.25.578126-.75.1875-1.84374.1875zm1.51562-6.640626h2.48438q1 0 1.4375-.140624.57812-.171876.875-.5625.29687-.40625.29687-1 0-.578126-.28125-1-.26562-.4375-.78125-.59375-.5-.171876-1.73437-.171876h-2.29688zm0 5.28125h2.85938q.73437 0 1.03124-.046874.51563-.09375.85938-.3125.35938-.21875.57812-.640626.23438-.421874.23438-.96875 0-.640624-.32812-1.109374-.32813-.46875-.90626-.65625-.57812-.203126-1.67187-.203126h-2.65625zm8.84375-2.796874q0-2.296876 1.28125-3.40625 1.07812-.921876 2.60938-.921876 1.71874 0 2.79687 1.125 1.09375 1.109376 1.09375 3.09375 0 1.59375-.48438 2.515626-.48437.921874-1.40624 1.4375-.90626.5-2 .5-1.73438 0-2.8125-1.109376-1.07813-1.125-1.07813-3.234374zm1.45313 0q0 1.59375.6875 2.390624.70312.796876 1.75.796876 1.04687 0 1.73437-.796876.70313-.796874.70313-2.4375 0-1.53125-.70313-2.328124-.6875-.796876-1.73437-.796876-1.04688 0-1.75.796876-.6875.78125-.6875 2.375zm7.54687 0q0-2.296876 1.28125-3.40625 1.07812-.921876 2.60938-.921876 1.71874 0 2.79687 1.125 1.09375 1.109376 1.09375 3.09375 0 1.59375-.48438 2.515626-.48437.921874-1.40624 1.4375-.90626.5-2 .5-1.73438 0-2.8125-1.109376-1.07813-1.125-1.07813-3.234374zm1.45313 0q0 1.59375.6875 2.390624.70312.796876 1.75.796876 1.04687 0 1.73437-.796876.70313-.796874.70313-2.4375 0-1.53125-.70313-2.328124-.6875-.796876-1.73437-.796876-1.04688 0-1.75.796876-.6875.78125-.6875 2.375zm8.07812 4.15625v-11.453126h1.40625v6.53125l3.32813-3.375h1.82812l-3.17188 3.078126 3.48438 5.21875h-1.73438l-2.73437-4.25-1 .953124v3.296876zm7.4375-2.484376 1.39062-.21875q.10938.84375.64063 1.296876.54687.4375 1.5.4375.96875 0 1.4375-.390626.46875-.40625.46875-.9375 0-.46875-.40625-.75-.29687-.1875-1.4375-.46875-1.54687-.390624-2.15625-.671874-.59375-.296876-.90625-.796876-.29687-.5-.29687-1.109374 0-.5625.25-1.03125.25-.46875.6875-.78125.32812-.25.89062-.40625.57812-.171876 1.21875-.171876.98437 0 1.71875.28125.73438.28125 1.07812.765626.35938.46875.5 1.28125l-1.375.1875q-.09374-.640626-.54687-1-.45313-.359376-1.26563-.359376-.96874 0-1.39062.328126-.40625.3125-.40625.734374 0 .28125.17187.5.17188.21875.53126.375.21874.078126 1.25.359376 1.48437.390624 2.07812.65625.59375.25.92188.734374.34374.484376.34374 1.203126 0 .703124-.42187 1.328124-.40625.609376-1.1875.953126-.76563.34375-1.73437.34375-1.625 0-2.46876-.671876-.84374-.671874-1.07812-2z" fill="#1a1a1a"/><path d="m307.5 23.05c0-.552285.44772-1 1-1h10c.55228 0 1 .447715 1 1v10c0 .552283-.44772 1-1 1h-10c-.55228 0-1-.447717-1-1z" fill="#ea4335"/><path d="m328.73438 33.55v-11.453126h4.32812q1.14062 0 1.73438.109376.84374.140624 1.40624.53125.57813.390624.92188 1.109374.35938.703126.35938 1.5625 0 1.453126-.9375 2.46875-.92188 1.015626-3.35938 1.015626h-2.9375v4.65625zm1.51562-6.015626h2.96875q1.46875 0 2.07813-.546874.625-.546876.625-1.53125 0-.71875-.375-1.234376-.35938-.515624-.95313-.671874-.375-.109376-1.40625-.109376h-2.9375zm14.71875 4.984376q-.78125.671874-1.5.953124-.71875.265626-1.54687.265626-1.375 0-2.10938-.671876-.73438-.671874-.73438-1.703124 0-.609376.28126-1.109376.28124-.515624.71874-.8125.45313-.3125 1.01563-.46875.42187-.109374 1.25-.203124 1.70313-.203126 2.51563-.484376 0-.296874 0-.375 0-.859374-.39063-1.203124-.54687-.484376-1.60937-.484376-.98438 0-1.46876.359376-.46874.34375-.6875 1.21875l-1.375-.1875q.1875-.875.60938-1.421876.4375-.546874 1.25-.828124.8125-.296876 1.875-.296876 1.0625 0 1.71875.25.67187.25.98437.625.3125.375.4375.953126.07813.359374.07813 1.296874v1.875q0 1.96875.07813 2.484376.09374.515624.35937 1h-1.46875q-.21875-.4375-.28125-1.03125zm-.10937-3.140626q-.76563.3125-2.29688.53125-.875.125-1.23438.28125-.35937.15625-.5625.46875-.1875.296876-.1875.65625 0 .5625.42188.9375.4375.375 1.25.375.8125 0 1.4375-.34375.64062-.359374.9375-.984374.23438-.46875.23438-1.40625zm3.4375 4.859376 1.375.203124q.07812.640626.46874.921876.53126.390624 1.4375.390624.96876 0 1.5-.390624.53126-.390626.71876-1.09375.10937-.421876.10937-1.8125-.92187 1.09375-2.29687 1.09375-1.71876 0-2.65626-1.234376-.9375-1.234374-.9375-2.96875 0-1.1875.42188-2.1875.4375-1 1.25-1.546874.82812-.546876 1.92188-.546876 1.46874 0 2.42187 1.1875v-1h1.29687v7.171876q0 1.9375-.39062 2.75-.39062.8125-1.25 1.28125-.85938.46875-2.10938.46875-1.48437 0-2.40624-.671876-.90626-.671874-.875-2.015624zm1.17187-4.984376q0 1.625.64063 2.375.65624.75 1.625.75.96874 0 1.625-.734374.65624-.75.65624-2.34375 0-1.53125-.67187-2.296876-.67187-.78125-1.625-.78125-.9375 0-1.59375.765626-.65625.765624-.65625 2.265624zm13.76563 1.625 1.45312.171876q-.34375 1.28125-1.28125 1.984374-.92187.703126-2.35937.703126-1.82813 0-2.89063-1.125-1.0625-1.125-1.0625-3.140626 0-2.09375 1.07813-3.25 1.07812-1.15625 2.79687-1.15625 1.65625 0 2.70313 1.140626 1.0625 1.125 1.0625 3.171874 0 .125 0 .375h-6.1875q.07812 1.375.76562 2.109376.70312.71875 1.73438.71875.78124 0 1.32812-.40625.54688-.40625.85938-1.296876zm-4.60938-2.28125h4.625q-.09375-1.046874-.53125-1.5625-.67187-.8125-1.73437-.8125-.96876 0-1.64063.65625-.65625.640626-.71875 1.71875zm7.375 2.46875 1.39062-.21875q.10938.84375.64063 1.296876.54687.4375 1.5.4375.96875 0 1.4375-.390626.46875-.40625.46875-.9375 0-.46875-.40625-.75-.29687-.1875-1.4375-.46875-1.54687-.390624-2.15625-.671874-.59375-.296876-.90625-.796876-.29687-.5-.29687-1.109374 0-.5625.25-1.03125.25-.46875.6875-.78125.32812-.25.89062-.40625.57812-.171876 1.21875-.171876.98437 0 1.71875.28125.73438.28125 1.07812.765626.35938.46875.5 1.28125l-1.375.1875q-.09374-.640626-.54687-1-.45313-.359376-1.26563-.359376-.96874 0-1.39062.328126-.40625.3125-.40625.734374 0 .28125.17187.5.17188.21875.53126.375.21874.078126 1.25.359376 1.48437.390624 2.07812.65625.59375.25.92188.734374.34374.484376.34374 1.203126 0 .703124-.42187 1.328124-.40625.609376-1.1875.953126-.76563.34375-1.73437.34375-1.625 0-2.46876-.671876-.84374-.671874-1.07812-2z" fill="#1a1a1a"/></svg>