<svg height="316" viewBox="0 0 562 316" width="562" xmlns="http://www.w3.org/2000/svg"><path d="m0 0h562v316h-562z" fill="#fff"/><g transform="translate(57 37)"><path d="m.5.5h500v200h-500z" fill="none" stroke="#ddd"/><g fill="none" pointer-events="none" stroke="#ddd" transform="translate(.5 .5)"><path d="m0 200h500"/><path d="m0 171h500"/><path d="m0 143h500"/><path d="m0 114h500"/><path d="m0 86h500"/><path d="m0 57h500"/><path d="m0 29h500"/><path d="m0 0h500"/></g><g fill="#4c78a8"><path d="m2.08333333 142.85714286h37.5v57.14285714h-37.5z"/><path d="m43.75 114.28571429h37.5v85.71428571h-37.5z"/><path d="m85.41666667 28.57142857h37.5v171.42857143h-37.5z"/><path d="m127.08333333 85.71428571h37.5v114.28571429h-37.5z"/><path d="m168.75 57.14285714h37.5v142.85714286h-37.5z"/><path d="m210.41666667 28.57142857h37.5v171.42857143h-37.5z"/><path d="m252.08333333 171.42857143h37.5v28.57142857h-37.5z"/><path d="m293.75 0h37.5v200h-37.5z"/><path d="m335.41666667 57.14285714h37.5v142.85714286h-37.5z"/><path d="m377.08333333 28.57142857h37.5v171.42857143h-37.5z"/><path d="m418.75 142.85714286h37.5v57.14285714h-37.5z"/><path d="m460.41666667 85.71428571h37.5v114.28571429h-37.5z"/></g><text font-family="sans-serif" font-size="20" font-weight="bold" pointer-events="none" text-anchor="middle" transform="translate(250 -16)">Number of books finished in each month</text><g pointer-events="none" transform="translate(.5 200.5)"><g fill="none" stroke="#888"><path d="m20 0v5"/><path d="m62 0v5"/><path d="m103 0v5"/><path d="m145 0v5"/><path d="m187 0v5"/><path d="m228 0v5"/><path d="m270 0v5"/><path d="m312 0v5"/><path d="m353 0v5"/><path d="m395 0v5"/><path d="m437 0v5"/><path d="m478 0v5"/></g><g font-family="sans-serif" font-size="16" text-anchor="end"><text transform="matrix(0 -1 1 0 24.833333 7)">Jan</text><text transform="matrix(0 -1 1 0 66.5 7)">Feb</text><text transform="matrix(0 -1 1 0 108.166667 7)">Mar</text><text transform="matrix(0 -1 1 0 149.833333 7)">Apr</text><text transform="matrix(0 -1 1 0 191.5 7)">May</text><text transform="matrix(0 -1 1 0 233.166667 7)">Jun</text><text transform="matrix(0 -1 1 0 274.833333 7)">Jul</text><text transform="matrix(0 -1 1 0 316.5 7)">Aug</text><text transform="matrix(0 -1 1 0 358.166667 7)">Sep</text><text transform="matrix(0 -1 1 0 399.833333 7)">Oct</text><text transform="matrix(0 -1 1 0 441.5 7)">Nov</text><text transform="matrix(0 -1 1 0 483.166667 7)">Dec</text></g><path d="m0 0h500" fill="none" stroke="#888"/><text font-family="sans-serif" font-size="18" font-weight="bold" text-anchor="middle" transform="translate(250 69.226563)">Month</text></g><g pointer-events="none" transform="translate(.5 .5)"><g fill="none" stroke="#888"><path d="m0 200h-5"/><path d="m0 171h-5"/><path d="m0 143h-5"/><path d="m0 114h-5"/><path d="m0 86h-5"/><path d="m0 57h-5"/><path d="m0 29h-5"/><path d="m0 0h-5"/></g><g font-family="sans-serif" font-size="16" text-anchor="end"><text transform="translate(-7 205)">0</text><text transform="translate(-7 176.428571)">1</text><text transform="translate(-7 147.857143)">2</text><text transform="translate(-7 119.285714)">3</text><text transform="translate(-7 90.714286)">4</text><text transform="translate(-7 62.142857)">5</text><text transform="translate(-7 33.571429)">6</text><text transform="translate(-7 5)">7</text></g><path d="m0 200v-200" fill="none" stroke="#888"/><text font-family="sans-serif" font-size="18" font-weight="bold" text-anchor="middle" transform="matrix(0 -1 1 0 -37.898438 100)">Number</text></g></g></svg>